{"glyphs":{"0":{"ha":895,"x_min":79,"x_max":874,"o":"m 399 -11 q 214 45 290 -11 q 109 205 138 102 q 108 448 79 308 l 130 560 q 218 801 159 700 q 365 957 278 902 q 560 1011 452 1011 q 742 957 667 1011 q 845 800 816 903 q 844 551 874 697 l 821 438 q 669 109 779 229 q 399 -11 559 -11 m 397 69 q 546 114 479 69 q 660 242 612 159 q 730 438 707 325 l 758 569 q 764 766 782 685 q 692 888 745 846 q 558 930 640 930 q 407 885 474 930 q 292 758 339 840 q 221 560 245 675 l 195 430 q 191 240 172 321 q 262 114 209 159 q 397 69 315 69 z "},"1":{"ha":526,"x_min":182,"x_max":519,"o":"m 229 0 l 412 919 l 431 890 l 182 780 l 202 877 l 481 1000 l 519 1000 l 318 0 l 229 0 z "},"2":{"ha":778,"x_min":9,"x_max":747,"o":"m 9 0 l 14 33 l 371 392 q 467 486 417 438 q 560 581 517 533 q 630 677 603 629 q 657 774 657 726 q 609 884 657 838 q 477 930 561 930 q 363 902 414 930 q 280 825 313 873 q 240 715 248 776 l 153 724 q 206 870 162 806 q 320 973 250 935 q 481 1011 391 1011 q 618 982 558 1011 q 712 901 678 953 q 747 781 747 849 q 720 663 747 719 q 647 555 692 608 q 548 451 602 503 q 438 345 493 399 l 171 81 l 168 77 l 329 81 l 645 81 l 630 0 l 9 0 z "},"3":{"ha":770,"x_min":40,"x_max":722,"o":"m 342 -11 q 183 27 253 -11 q 76 132 113 66 q 52 282 40 199 l 138 277 q 158 169 132 216 q 233 96 184 122 q 345 69 282 69 q 473 101 417 69 q 560 188 528 134 q 591 305 591 241 q 569 395 591 359 q 512 451 547 431 q 439 481 478 472 q 368 490 401 490 l 332 490 l 347 568 l 395 568 q 511 598 456 568 q 598 678 565 629 q 632 785 632 728 q 587 890 632 849 q 467 930 542 930 q 367 907 411 930 q 295 844 322 884 q 261 753 267 804 l 172 758 q 224 891 183 834 q 328 979 264 947 q 469 1011 391 1011 q 601 983 544 1011 q 690 904 658 954 q 722 791 722 854 q 697 683 722 734 q 629 593 671 632 q 532 533 586 554 q 421 515 478 511 l 423 541 q 562 512 505 544 q 649 425 619 480 q 679 300 679 369 q 634 143 679 214 q 512 31 589 72 q 342 -11 435 -11 z "},"4":{"ha":791,"x_min":22,"x_max":750,"o":"m 463 0 l 597 675 l 637 848 l 631 848 l 530 724 l 160 311 l 159 306 l 745 306 l 730 228 l 22 228 l 33 278 l 675 1000 l 750 1000 l 550 0 l 463 0 z "},"5":{"ha":785,"x_min":60,"x_max":777,"o":"m 362 -11 q 220 19 283 -11 q 114 98 156 48 q 60 208 73 147 l 144 235 q 183 152 153 190 q 258 92 212 115 q 361 69 304 69 q 498 108 438 69 q 593 209 558 146 q 628 345 628 272 q 576 490 628 430 q 421 550 524 550 q 302 526 354 550 q 224 473 251 502 l 168 502 l 273 1000 l 777 1000 l 759 920 l 345 920 l 264 529 l 240 562 q 323 610 269 591 q 440 629 377 629 q 588 593 526 629 q 684 493 650 557 q 717 347 717 429 q 670 166 717 248 q 543 37 623 85 q 362 -11 463 -11 z "},"6":{"ha":793,"x_min":61,"x_max":714,"o":"m 361 -11 q 202 28 270 -11 q 98 134 135 68 q 61 281 61 201 q 83 399 61 347 q 138 495 105 451 q 205 581 172 540 l 555 1000 l 664 1000 l 315 584 l 283 574 q 354 614 317 602 q 434 627 391 627 q 576 590 513 627 q 677 488 640 553 q 714 336 714 422 q 667 161 714 240 q 540 36 620 82 q 361 -11 460 -11 m 363 69 q 498 106 439 69 q 593 203 558 142 q 627 338 627 264 q 603 445 627 397 q 533 520 579 492 q 418 548 486 548 q 280 512 342 548 q 181 417 218 477 q 145 284 145 357 q 172 174 145 223 q 248 97 199 125 q 363 69 297 69 z "},"7":{"ha":720,"x_min":140,"x_max":802,"o":"m 142 0 l 699 964 l 720 920 l 140 920 l 157 1000 l 802 1000 l 797 970 l 237 0 l 142 0 z "},"8":{"ha":816,"x_min":58,"x_max":755,"o":"m 361 -11 q 205 22 273 -11 q 97 114 136 56 q 58 248 58 172 q 88 372 58 314 q 172 473 119 429 q 293 542 224 517 q 436 567 361 567 q 591 533 526 567 q 690 441 655 499 q 726 309 726 382 q 697 183 726 241 q 618 81 669 125 q 502 14 568 38 q 361 -11 436 -11 m 361 69 q 500 101 437 69 q 600 188 563 134 q 637 309 637 242 q 583 439 637 387 q 429 492 528 492 q 289 460 353 492 q 186 372 224 427 q 147 251 147 317 q 175 155 147 196 q 251 92 203 114 q 361 69 300 69 m 444 503 q 319 531 372 503 q 237 609 266 559 q 208 724 208 659 q 249 868 208 803 q 361 972 291 934 q 517 1011 431 1011 q 642 984 588 1011 q 725 906 695 956 q 755 791 755 857 q 713 647 755 712 q 600 542 671 581 q 444 503 530 503 m 448 573 q 559 603 509 573 q 638 682 609 633 q 667 786 667 731 q 627 891 667 850 q 513 932 586 932 q 402 903 452 932 q 323 826 353 874 q 294 722 294 779 q 338 613 294 652 q 448 573 381 573 z "},"9":{"ha":793,"x_min":136,"x_max":789,"o":"m 489 1011 q 648 972 581 1011 q 752 866 715 932 q 789 719 789 800 q 767 602 789 654 q 712 505 745 549 q 644 420 679 461 l 294 1 l 186 1 l 534 416 l 567 426 q 496 386 534 399 q 416 374 459 374 q 274 411 338 374 q 174 513 211 448 q 136 664 136 578 q 183 840 136 761 q 311 965 231 918 q 489 1011 391 1011 m 488 931 q 352 895 412 931 q 258 797 292 858 q 223 663 223 736 q 247 556 223 604 q 317 480 271 509 q 431 452 363 452 q 570 488 508 452 q 668 584 632 524 q 705 716 705 644 q 678 826 705 778 q 603 903 651 875 q 488 931 554 931 z "},"A":{"ha":930,"x_min":-43,"x_max":831,"o":"m -43 0 l 558 1000 l 629 1000 l 831 0 l 745 0 l 683 316 l 678 345 l 577 875 l 572 875 l 258 348 l 238 311 l 54 0 l -43 0 m 189 291 l 205 372 l 733 372 l 716 291 l 189 291 z "},"Á":{"ha":930,"x_min":-43,"x_max":831,"o":"m -43 0 l 558 1000 l 629 1000 l 831 0 l 745 0 l 683 316 l 678 345 l 577 875 l 572 875 l 258 348 l 238 311 l 54 0 l -43 0 m 189 291 l 205 372 l 733 372 l 716 291 l 189 291 m 624 1053 l 570 1100 l 726 1292 l 783 1236 l 624 1053 z "},"Ă":{"ha":930,"x_min":-43,"x_max":852,"o":"m -43 0 l 558 1000 l 629 1000 l 831 0 l 745 0 l 683 316 l 678 345 l 577 875 l 572 875 l 258 348 l 238 311 l 54 0 l -43 0 m 189 291 l 205 372 l 733 372 l 716 291 l 189 291 m 614 1057 q 510 1081 553 1057 q 447 1147 467 1106 q 438 1234 428 1187 l 498 1225 q 504 1166 490 1190 q 548 1128 518 1141 q 614 1116 577 1116 q 731 1149 682 1116 q 790 1234 781 1182 l 852 1225 q 807 1136 843 1173 q 719 1078 770 1098 q 614 1057 667 1057 z "},"Ắ":{"ha":930,"x_min":-43,"x_max":847,"o":"m -43 0 l 558 1000 l 629 1000 l 831 0 l 745 0 l 683 316 l 678 345 l 577 875 l 572 875 l 258 348 l 238 311 l 54 0 l -43 0 m 189 291 l 205 372 l 733 372 l 716 291 l 189 291 m 628 1172 l 573 1209 l 704 1426 l 762 1379 l 628 1172 m 615 1055 q 513 1080 557 1055 q 446 1147 468 1105 q 434 1240 425 1189 l 493 1234 q 502 1172 486 1200 q 550 1128 518 1145 q 620 1112 581 1112 q 728 1150 682 1112 q 785 1241 774 1188 l 847 1234 q 805 1143 838 1183 q 723 1079 772 1103 q 615 1055 674 1055 z "},"Ặ":{"ha":930,"x_min":-43,"x_max":852,"o":"m -43 0 l 558 1000 l 629 1000 l 831 0 l 745 0 l 683 316 l 678 345 l 577 875 l 572 875 l 258 348 l 238 311 l 54 0 l -43 0 m 189 291 l 205 372 l 733 372 l 716 291 l 189 291 m 377 -241 q 323 -219 345 -241 q 302 -166 302 -197 q 323 -113 302 -135 q 377 -91 345 -91 q 430 -113 408 -91 q 452 -166 452 -135 q 430 -219 452 -197 q 377 -241 408 -241 m 614 1057 q 510 1082 553 1057 q 447 1147 467 1107 q 438 1235 428 1188 l 498 1226 q 504 1166 490 1191 q 548 1129 518 1142 q 614 1116 577 1116 q 731 1149 682 1116 q 790 1235 781 1183 l 852 1226 q 807 1136 843 1174 q 719 1078 770 1099 q 614 1057 667 1058 z "},"Ằ":{"ha":930,"x_min":-43,"x_max":831,"o":"m -43 0 l 558 1000 l 629 1000 l 831 0 l 745 0 l 683 316 l 678 345 l 577 875 l 572 875 l 258 348 l 238 311 l 54 0 l -43 0 m 189 291 l 205 372 l 733 372 l 716 291 l 189 291 m 621 1179 l 449 1362 l 502 1417 l 667 1226 l 621 1179 m 593 1055 q 491 1080 536 1055 q 424 1147 446 1105 q 412 1240 402 1189 l 471 1234 q 480 1172 465 1200 q 528 1128 496 1145 q 598 1112 559 1112 q 706 1150 660 1112 q 764 1241 753 1188 l 825 1234 q 783 1143 816 1183 q 701 1079 750 1103 q 593 1055 652 1055 z "},"Ẳ":{"ha":930,"x_min":-43,"x_max":852,"o":"m -43 0 l 558 1000 l 629 1000 l 831 0 l 745 0 l 683 316 l 678 345 l 577 875 l 572 875 l 258 348 l 238 311 l 54 0 l -43 0 m 189 291 l 205 372 l 733 372 l 716 291 l 189 291 m 620 1053 q 518 1078 563 1053 q 451 1145 473 1103 q 439 1238 429 1187 l 498 1232 q 507 1170 491 1198 q 554 1126 523 1143 q 625 1110 585 1110 q 733 1148 686 1110 q 790 1239 780 1186 l 852 1232 q 810 1141 842 1181 q 728 1077 777 1101 q 620 1053 679 1053 m 626 1175 l 593 1219 q 648 1257 626 1234 q 674 1303 669 1280 q 665 1340 680 1327 q 619 1353 650 1353 q 575 1348 598 1353 q 534 1337 551 1343 l 541 1401 q 584 1411 563 1408 q 624 1414 605 1414 q 716 1382 689 1414 q 734 1302 744 1350 q 696 1229 726 1263 q 626 1175 666 1195 z "},"Ẵ":{"ha":930,"x_min":-43,"x_max":876,"o":"m -43 0 l 558 1000 l 629 1000 l 831 0 l 745 0 l 683 316 l 678 345 l 577 875 l 572 875 l 258 348 l 238 311 l 54 0 l -43 0 m 189 291 l 205 372 l 733 372 l 716 291 l 189 291 m 492 1279 l 431 1286 q 482 1387 443 1351 q 574 1422 521 1422 q 629 1410 608 1422 q 665 1382 650 1398 q 695 1355 680 1367 q 730 1343 709 1343 q 782 1366 760 1343 q 812 1428 805 1390 l 877 1420 q 849 1347 869 1379 q 798 1298 828 1316 q 732 1280 768 1280 q 679 1293 700 1280 q 643 1321 659 1305 q 610 1350 627 1337 q 572 1362 593 1362 q 524 1341 545 1362 q 492 1279 502 1320 m 594 1055 q 492 1080 537 1055 q 426 1147 448 1105 q 413 1240 404 1189 l 473 1234 q 481 1172 465 1200 q 529 1128 497 1145 q 599 1112 560 1112 q 708 1150 661 1112 q 765 1241 754 1188 l 827 1234 q 784 1143 817 1183 q 703 1079 751 1103 q 594 1055 654 1055 z "},"Ǎ":{"ha":930,"x_min":-43,"x_max":848,"o":"m -43 0 l 558 1000 l 629 1000 l 831 0 l 745 0 l 683 316 l 678 345 l 577 875 l 572 875 l 258 348 l 238 311 l 54 0 l -43 0 m 189 291 l 205 372 l 733 372 l 716 291 l 189 291 m 589 1053 l 420 1204 l 468 1253 l 608 1122 l 616 1122 l 808 1253 l 848 1204 l 618 1053 l 589 1053 z "},"Â":{"ha":930,"x_min":-43,"x_max":833,"o":"m -43 0 l 558 1000 l 629 1000 l 831 0 l 745 0 l 683 316 l 678 345 l 577 875 l 572 875 l 258 348 l 238 311 l 54 0 l -43 0 m 189 291 l 205 372 l 733 372 l 716 291 l 189 291 m 447 1053 l 406 1103 l 635 1253 l 665 1253 l 833 1103 l 785 1053 l 646 1185 l 638 1185 l 447 1053 z "},"Ấ":{"ha":930,"x_min":-43,"x_max":1009,"o":"m -43 0 l 558 1000 l 629 1000 l 831 0 l 745 0 l 683 316 l 678 345 l 577 875 l 572 875 l 258 348 l 238 311 l 54 0 l -43 0 m 189 291 l 205 372 l 733 372 l 716 291 l 189 291 m 784 1190 l 745 1228 l 968 1416 l 1009 1358 l 784 1190 m 440 1044 l 400 1092 l 627 1244 l 656 1244 l 827 1092 l 779 1044 l 637 1174 l 631 1174 l 440 1044 z "},"Ậ":{"ha":930,"x_min":-43,"x_max":833,"o":"m -43 0 l 558 1000 l 629 1000 l 831 0 l 745 0 l 683 316 l 678 345 l 577 875 l 572 875 l 258 348 l 238 311 l 54 0 l -43 0 m 189 291 l 205 372 l 733 372 l 716 291 l 189 291 m 377 -241 q 323 -219 345 -241 q 302 -166 302 -197 q 323 -113 302 -135 q 377 -91 345 -91 q 430 -113 408 -91 q 452 -166 452 -135 q 430 -219 452 -197 q 377 -241 408 -241 m 447 1054 l 406 1104 l 635 1254 l 665 1254 l 833 1104 l 785 1054 l 646 1185 l 638 1185 l 447 1054 z "},"Ầ":{"ha":930,"x_min":-43,"x_max":831,"o":"m -43 0 l 558 1000 l 629 1000 l 831 0 l 745 0 l 683 316 l 678 345 l 577 875 l 572 875 l 258 348 l 238 311 l 54 0 l -43 0 m 189 291 l 205 372 l 733 372 l 716 291 l 189 291 m 463 1185 l 317 1376 l 374 1421 l 514 1218 l 463 1185 m 442 1040 l 403 1088 l 629 1240 l 659 1240 l 829 1088 l 781 1040 l 639 1170 l 633 1170 l 442 1040 z "},"Ẩ":{"ha":930,"x_min":-43,"x_max":884,"o":"m -43 0 l 558 1000 l 629 1000 l 831 0 l 745 0 l 683 316 l 678 345 l 577 875 l 572 875 l 258 348 l 238 311 l 54 0 l -43 0 m 189 291 l 205 372 l 733 372 l 716 291 l 189 291 m 781 1182 l 737 1220 q 786 1262 765 1238 q 811 1310 806 1287 q 802 1345 817 1333 q 754 1357 788 1357 q 715 1355 738 1357 q 673 1346 692 1352 l 680 1407 q 719 1416 698 1413 q 758 1418 741 1418 q 855 1388 825 1418 q 875 1310 884 1358 q 839 1238 867 1272 q 781 1182 810 1203 m 441 1044 l 401 1092 l 627 1244 l 657 1244 l 828 1092 l 780 1044 l 637 1174 l 631 1174 l 441 1044 z "},"Ẫ":{"ha":930,"x_min":-43,"x_max":870,"o":"m -43 0 l 558 1000 l 629 1000 l 831 0 l 745 0 l 683 316 l 678 345 l 577 875 l 572 875 l 258 348 l 238 311 l 54 0 l -43 0 m 189 291 l 205 372 l 733 372 l 716 291 l 189 291 m 485 1279 l 423 1286 q 475 1387 435 1351 q 568 1422 514 1422 q 622 1410 601 1422 q 658 1382 643 1398 q 688 1355 673 1367 q 723 1343 703 1343 q 775 1366 753 1343 q 805 1428 798 1390 l 870 1420 q 842 1347 863 1379 q 791 1298 821 1316 q 725 1280 761 1280 q 672 1293 693 1280 q 636 1321 652 1305 q 603 1350 620 1337 q 565 1362 587 1362 q 517 1341 540 1362 q 485 1279 494 1320 m 441 1044 l 401 1092 l 628 1244 l 658 1244 l 829 1092 l 781 1044 l 638 1174 l 632 1174 l 441 1044 z "},"Ȁ":{"ha":930,"x_min":-43,"x_max":831,"o":"m -43 0 l 558 1000 l 629 1000 l 831 0 l 745 0 l 683 316 l 678 345 l 577 875 l 572 875 l 258 348 l 238 311 l 54 0 l -43 0 m 189 291 l 205 372 l 733 372 l 716 291 l 189 291 m 481 1079 l 378 1294 l 452 1331 l 534 1103 l 481 1079 m 692 1079 l 595 1294 l 667 1331 l 747 1103 l 692 1079 z "},"Ä":{"ha":930,"x_min":-43,"x_max":840,"o":"m -43 0 l 558 1000 l 629 1000 l 831 0 l 745 0 l 683 316 l 678 345 l 577 875 l 572 875 l 258 348 l 238 311 l 54 0 l -43 0 m 189 291 l 205 372 l 733 372 l 716 291 l 189 291 m 771 1078 q 718 1099 740 1078 q 696 1150 696 1120 q 716 1202 696 1181 q 768 1222 736 1222 q 819 1201 798 1222 q 840 1147 840 1181 q 821 1097 840 1117 q 771 1078 801 1078 m 486 1078 q 435 1099 456 1078 q 414 1150 414 1120 q 433 1202 414 1181 q 482 1222 452 1222 q 536 1200 515 1222 q 557 1147 557 1178 q 537 1098 557 1118 q 486 1078 517 1078 z "},"Ȧ":{"ha":930,"x_min":-43,"x_max":831,"o":"m -43 0 l 558 1000 l 629 1000 l 831 0 l 745 0 l 683 316 l 678 345 l 577 875 l 572 875 l 258 348 l 238 311 l 54 0 l -43 0 m 189 291 l 205 372 l 733 372 l 716 291 l 189 291 m 636 1074 q 583 1096 604 1074 q 561 1149 561 1118 q 583 1203 561 1181 q 636 1225 604 1225 q 689 1203 667 1225 q 711 1149 711 1181 q 689 1096 711 1118 q 636 1074 667 1074 z "},"Ạ":{"ha":930,"x_min":-43,"x_max":831,"o":"m -43 0 l 558 1000 l 629 1000 l 831 0 l 745 0 l 683 316 l 678 345 l 577 875 l 572 875 l 258 348 l 238 311 l 54 0 l -43 0 m 189 291 l 205 372 l 733 372 l 716 291 l 189 291 m 377 -241 q 323 -219 345 -241 q 302 -166 302 -197 q 323 -113 302 -135 q 377 -91 345 -91 q 430 -113 408 -91 q 452 -166 452 -135 q 430 -219 452 -197 q 377 -241 408 -241 z "},"À":{"ha":930,"x_min":-43,"x_max":831,"o":"m -43 0 l 558 1000 l 629 1000 l 831 0 l 745 0 l 683 316 l 678 345 l 577 875 l 572 875 l 258 348 l 238 311 l 54 0 l -43 0 m 189 291 l 205 372 l 733 372 l 716 291 l 189 291 m 610 1053 l 441 1236 l 494 1292 l 661 1100 l 610 1053 z "},"Ả":{"ha":930,"x_min":-43,"x_max":831,"o":"m -43 0 l 558 1000 l 629 1000 l 831 0 l 745 0 l 683 316 l 678 345 l 577 875 l 572 875 l 258 348 l 238 311 l 54 0 l -43 0 m 189 291 l 205 372 l 733 372 l 716 291 l 189 291 m 629 1084 l 596 1128 q 650 1166 629 1143 q 677 1212 672 1189 q 667 1249 682 1236 q 622 1262 652 1262 q 577 1257 601 1262 q 536 1246 554 1253 l 544 1310 q 587 1319 566 1316 q 627 1322 608 1322 q 719 1291 692 1322 q 737 1211 747 1259 q 699 1138 729 1172 q 629 1084 669 1104 z "},"Ȃ":{"ha":930,"x_min":-43,"x_max":831,"o":"m -43 0 l 558 1000 l 629 1000 l 831 0 l 745 0 l 683 316 l 678 345 l 577 875 l 572 875 l 258 348 l 238 311 l 54 0 l -43 0 m 189 291 l 205 372 l 733 372 l 716 291 l 189 291 m 816 1050 l 755 1059 q 732 1141 766 1108 q 633 1173 697 1173 q 522 1139 570 1173 q 463 1053 474 1105 l 402 1062 q 448 1151 413 1114 q 533 1209 483 1188 q 637 1230 583 1230 q 743 1205 699 1231 q 807 1138 787 1180 q 816 1050 827 1097 z "},"Ā":{"ha":930,"x_min":-43,"x_max":873,"o":"m -43 0 l 558 1000 l 629 1000 l 831 0 l 745 0 l 683 316 l 678 345 l 577 875 l 572 875 l 258 348 l 238 311 l 54 0 l -43 0 m 189 291 l 205 372 l 733 372 l 716 291 l 189 291 m 384 1115 l 395 1181 l 873 1181 l 861 1115 l 384 1115 z "},"Ą":{"ha":930,"x_min":-43,"x_max":831,"o":"m -43 0 l 558 1000 l 629 1000 l 831 0 l 745 0 l 683 316 l 678 345 l 577 875 l 572 875 l 258 348 l 238 311 l 54 0 l -43 0 m 189 291 l 205 372 l 733 372 l 716 291 l 189 291 m 710 -269 q 633 -237 659 -269 q 618 -155 608 -204 q 675 -59 629 -101 q 781 24 722 -17 l 831 0 q 767 -50 801 -24 q 709 -103 734 -76 q 677 -159 684 -130 q 686 -197 673 -184 q 724 -210 699 -210 q 777 -199 751 -210 q 817 -181 803 -189 l 806 -246 q 761 -262 789 -256 q 710 -269 732 -269 z "},"Å":{"ha":930,"x_min":-43,"x_max":831,"o":"m -43 0 l 558 1000 l 629 1000 l 831 0 l 745 0 l 683 316 l 678 345 l 577 875 l 572 875 l 258 348 l 238 311 l 54 0 l -43 0 m 189 291 l 205 372 l 733 372 l 716 291 l 189 291 m 614 1044 q 544 1062 574 1044 q 499 1115 513 1081 q 494 1192 485 1148 q 553 1292 505 1253 q 659 1330 600 1330 q 732 1310 702 1330 q 775 1256 762 1289 q 780 1180 788 1222 q 748 1110 772 1141 q 689 1061 724 1079 q 614 1044 654 1044 m 613 1103 q 684 1131 654 1103 q 722 1194 715 1158 q 710 1249 728 1229 q 656 1270 692 1270 q 590 1244 621 1270 q 549 1178 558 1218 q 562 1124 543 1145 q 613 1103 581 1103 z "},"Ǻ":{"ha":930,"x_min":-43,"x_max":884,"o":"m 629 1097 q 561 1116 590 1097 q 518 1167 531 1135 q 511 1236 505 1198 q 564 1325 521 1289 q 661 1360 607 1360 q 729 1341 700 1360 q 771 1289 758 1321 q 776 1219 784 1257 q 725 1133 766 1168 q 629 1097 684 1097 m 631 1149 q 688 1171 661 1149 q 722 1225 715 1192 q 710 1283 728 1258 q 657 1308 691 1308 q 599 1286 627 1308 q 566 1232 572 1264 q 578 1175 559 1201 q 631 1149 597 1149 m 726 1390 l 671 1436 l 827 1628 l 884 1573 l 726 1390 m -43 0 l 558 1000 l 629 1000 l 831 0 l 745 0 l 683 316 l 678 345 l 577 875 l 572 875 l 258 348 l 238 311 l 54 0 l -43 0 m 189 291 l 205 372 l 733 372 l 716 291 l 189 291 z "},"Ã":{"ha":930,"x_min":-43,"x_max":852,"o":"m -43 0 l 558 1000 l 629 1000 l 831 0 l 745 0 l 683 316 l 678 345 l 577 875 l 572 875 l 258 348 l 238 311 l 54 0 l -43 0 m 189 291 l 205 372 l 733 372 l 716 291 l 189 291 m 466 1074 l 405 1083 q 457 1187 418 1148 q 549 1227 497 1227 q 606 1214 585 1227 q 641 1183 627 1200 q 668 1153 654 1166 q 701 1140 681 1140 q 758 1168 733 1140 q 789 1232 782 1196 l 852 1223 q 799 1119 839 1159 q 706 1079 760 1079 q 652 1092 673 1079 q 617 1122 632 1105 q 587 1152 602 1139 q 549 1165 571 1165 q 498 1139 522 1165 q 466 1074 475 1114 z "},"Æ":{"ha":1230,"x_min":-66,"x_max":1273,"o":"m -66 0 l 663 1000 l 728 1000 l 713 895 l 686 895 l 445 561 l 35 0 l -66 0 m 223 291 l 239 372 l 676 372 l 669 291 l 223 291 m 582 0 l 669 774 l 704 1000 l 1273 1000 l 1257 919 l 767 919 l 675 81 l 1088 81 l 1072 0 l 582 0 m 705 469 l 715 550 l 1120 550 l 1103 469 l 705 469 z "},"Ǽ":{"ha":1230,"x_min":-66,"x_max":1273,"o":"m -66 0 l 663 1000 l 728 1000 l 713 895 l 686 895 l 445 561 l 35 0 l -66 0 m 223 291 l 239 372 l 676 372 l 669 291 l 223 291 m 582 0 l 669 774 l 704 1000 l 1273 1000 l 1257 919 l 767 919 l 675 81 l 1088 81 l 1072 0 l 582 0 m 705 469 l 715 550 l 1120 550 l 1103 469 l 705 469 m 916 1053 l 861 1100 l 1017 1292 l 1075 1236 l 916 1053 z "},"B":{"ha":822,"x_min":54,"x_max":740,"o":"m 132 0 l 147 81 l 406 81 q 528 107 475 81 q 612 182 582 134 q 643 291 643 229 q 618 386 643 345 q 548 450 593 427 q 441 473 503 473 l 208 473 l 224 553 l 442 553 q 549 584 502 553 q 623 664 595 614 q 650 767 650 713 q 627 851 650 818 q 563 902 604 885 q 472 919 523 919 l 297 919 l 315 1000 l 483 1000 q 618 971 560 1000 q 708 892 675 943 q 740 773 740 841 q 715 661 740 714 q 648 568 691 608 q 547 503 604 527 l 546 524 q 644 478 602 511 q 708 396 686 445 q 731 287 731 347 q 689 140 731 205 q 574 38 646 75 q 412 0 503 0 l 132 0 m 54 0 l 256 1000 l 346 1000 l 144 0 l 54 0 z "},"C":{"ha":906,"x_min":96,"x_max":955,"o":"m 498 -11 q 280 46 370 -11 q 143 198 190 102 q 96 413 96 294 q 139 638 96 531 q 261 829 183 745 q 441 962 338 913 q 661 1010 543 1010 q 826 983 749 1010 q 955 911 904 956 l 907 832 q 802 903 869 876 q 655 930 734 930 q 472 887 557 930 q 322 772 387 845 q 221 608 258 700 q 184 416 184 516 q 221 243 184 321 q 328 117 257 164 q 499 70 398 70 q 656 101 581 70 q 789 184 730 132 l 811 95 q 663 16 745 42 q 498 -11 581 -11 z "},"Ć":{"ha":906,"x_min":96,"x_max":955,"o":"m 498 -11 q 280 46 370 -11 q 143 198 190 102 q 96 413 96 294 q 139 638 96 531 q 261 829 183 745 q 441 962 338 913 q 661 1010 543 1010 q 826 983 749 1010 q 955 911 904 956 l 907 832 q 802 903 869 876 q 655 930 734 930 q 472 887 557 930 q 322 772 387 845 q 221 608 258 700 q 184 416 184 516 q 221 243 184 321 q 328 117 257 164 q 499 70 398 70 q 656 101 581 70 q 789 184 730 132 l 811 95 q 663 16 745 42 q 498 -11 581 -11 m 694 1053 l 640 1100 l 795 1292 l 853 1236 l 694 1053 z "},"Č":{"ha":906,"x_min":96,"x_max":955,"o":"m 498 -11 q 280 46 370 -11 q 143 198 190 102 q 96 413 96 294 q 139 638 96 531 q 261 829 183 745 q 441 962 338 913 q 661 1010 543 1010 q 826 983 749 1010 q 955 911 904 956 l 907 832 q 802 903 869 876 q 655 930 734 930 q 472 887 557 930 q 322 772 387 845 q 221 608 258 700 q 184 416 184 516 q 221 243 184 321 q 328 117 257 164 q 499 70 398 70 q 656 101 581 70 q 789 184 730 132 l 811 95 q 663 16 745 42 q 498 -11 581 -11 m 659 1053 l 490 1204 l 537 1253 l 677 1122 l 685 1122 l 877 1253 l 918 1204 l 688 1053 l 659 1053 z "},"Ç":{"ha":906,"x_min":96,"x_max":955,"o":"m 498 -11 q 280 46 370 -11 q 143 198 190 102 q 96 413 96 294 q 139 638 96 531 q 261 829 183 745 q 441 962 338 913 q 661 1010 543 1010 q 826 983 749 1010 q 955 911 904 956 l 907 832 q 802 903 869 876 q 655 930 734 930 q 472 887 557 930 q 322 772 387 845 q 221 608 258 700 q 184 416 184 516 q 221 243 184 321 q 328 117 257 164 q 499 70 398 70 q 656 101 581 70 q 789 184 730 132 l 811 95 q 663 16 745 42 q 498 -11 581 -11 m 318 -305 l 324 -249 q 435 -233 391 -251 q 487 -176 479 -215 q 469 -136 492 -151 q 394 -119 445 -121 l 455 0 l 511 0 l 452 -109 l 446 -77 q 503 -92 478 -78 q 541 -131 528 -106 q 546 -190 553 -155 q 506 -259 537 -234 q 426 -295 474 -285 q 318 -305 378 -305 z "},"Ḉ":{"ha":906,"x_min":96,"x_max":955,"o":"m 498 -11 q 280 46 370 -11 q 143 198 190 102 q 96 413 96 294 q 139 638 96 531 q 261 829 183 745 q 441 962 338 913 q 661 1010 543 1010 q 826 983 749 1010 q 955 911 904 956 l 907 832 q 802 903 869 876 q 655 930 734 930 q 472 887 557 930 q 322 772 387 845 q 221 608 258 700 q 184 416 184 516 q 221 243 184 321 q 328 117 257 164 q 499 70 398 70 q 656 101 581 70 q 789 184 730 132 l 811 95 q 663 16 745 42 q 498 -11 581 -11 m 318 -305 l 324 -249 q 435 -233 391 -251 q 487 -176 479 -215 q 469 -136 492 -151 q 394 -119 445 -121 l 455 0 l 511 0 l 452 -109 l 446 -77 q 503 -92 478 -78 q 541 -131 528 -106 q 546 -190 553 -155 q 506 -259 537 -234 q 426 -295 474 -285 q 318 -305 378 -305 m 694 1053 l 640 1100 l 795 1292 l 853 1236 l 694 1053 z "},"Ĉ":{"ha":906,"x_min":96,"x_max":955,"o":"m 498 -11 q 280 46 370 -11 q 143 198 190 102 q 96 413 96 294 q 139 638 96 531 q 261 829 183 745 q 441 962 338 913 q 661 1010 543 1010 q 826 983 749 1010 q 955 911 904 956 l 907 832 q 802 903 869 876 q 655 930 734 930 q 472 887 557 930 q 322 772 387 845 q 221 608 258 700 q 184 416 184 516 q 221 243 184 321 q 328 117 257 164 q 499 70 398 70 q 656 101 581 70 q 789 184 730 132 l 811 95 q 663 16 745 42 q 498 -11 581 -11 m 516 1053 l 475 1103 l 705 1253 l 734 1253 l 903 1103 l 854 1053 l 715 1185 l 707 1185 l 516 1053 z "},"Ċ":{"ha":906,"x_min":96,"x_max":955,"o":"m 498 -11 q 280 46 370 -11 q 143 198 190 102 q 96 413 96 294 q 139 638 96 531 q 261 829 183 745 q 441 962 338 913 q 661 1010 543 1010 q 826 983 749 1010 q 955 911 904 956 l 907 832 q 802 903 869 876 q 655 930 734 930 q 472 887 557 930 q 322 772 387 845 q 221 608 258 700 q 184 416 184 516 q 221 243 184 321 q 328 117 257 164 q 499 70 398 70 q 656 101 581 70 q 789 184 730 132 l 811 95 q 663 16 745 42 q 498 -11 581 -11 m 706 1074 q 652 1096 674 1074 q 631 1149 631 1118 q 652 1203 631 1181 q 706 1225 674 1225 q 759 1203 737 1225 q 781 1149 781 1181 q 759 1096 781 1118 q 706 1074 737 1074 z "},"D":{"ha":945,"x_min":54,"x_max":901,"o":"m 54 0 l 256 1000 l 527 1000 q 730 944 647 1000 q 857 793 814 889 q 901 574 901 696 q 865 353 901 456 q 762 170 829 249 q 600 45 694 90 q 389 0 505 0 l 54 0 m 161 81 l 398 81 q 571 121 494 81 q 702 231 648 161 q 784 390 756 300 q 812 577 812 479 q 778 758 812 681 q 677 877 743 834 q 519 919 612 919 l 330 919 l 161 81 z "},"Ǆ":{"ha":1725,"x_min":54,"x_max":1756,"o":"m 54 0 l 256 1000 l 527 1000 q 730 944 647 1000 q 857 793 814 889 q 901 574 901 696 q 865 353 901 456 q 762 170 829 249 q 600 45 694 90 q 389 0 505 0 l 54 0 m 161 81 l 398 81 q 571 121 494 81 q 702 231 648 161 q 784 390 756 300 q 812 577 812 479 q 778 758 812 681 q 677 877 743 834 q 519 919 612 919 l 330 919 l 161 81 m 915 0 l 920 28 l 1606 918 l 1606 920 l 1120 920 l 1136 1000 l 1756 1000 l 1750 973 l 1061 82 l 1061 79 l 1589 79 l 1573 0 l 915 0 m 1448 1053 l 1279 1204 l 1326 1253 l 1467 1122 l 1474 1122 l 1666 1253 l 1707 1204 l 1477 1053 l 1448 1053 z "},"Ď":{"ha":945,"x_min":54,"x_max":901,"o":"m 54 0 l 256 1000 l 527 1000 q 730 944 647 1000 q 857 793 814 889 q 901 574 901 696 q 865 353 901 456 q 762 170 829 249 q 600 45 694 90 q 389 0 505 0 l 54 0 m 161 81 l 398 81 q 571 121 494 81 q 702 231 648 161 q 784 390 756 300 q 812 577 812 479 q 778 758 812 681 q 677 877 743 834 q 519 919 612 919 l 330 919 l 161 81 m 583 1053 l 414 1204 l 461 1253 l 602 1122 l 609 1122 l 801 1253 l 842 1204 l 612 1053 l 583 1053 z "},"Đ":{"ha":965,"x_min":58,"x_max":921,"o":"m 75 0 l 276 1000 l 547 1000 q 751 944 667 1000 q 878 793 834 889 q 921 574 921 696 q 885 353 921 456 q 782 170 849 249 q 620 45 715 90 q 409 0 526 0 l 75 0 m 181 81 l 418 81 q 592 121 515 81 q 723 231 669 161 q 805 390 777 300 q 833 577 833 479 q 798 758 833 681 q 698 877 764 834 q 539 919 632 919 l 350 919 l 181 81 m 58 468 l 73 537 l 412 537 l 395 468 l 58 468 z "},"Ḍ":{"ha":945,"x_min":54,"x_max":901,"o":"m 54 0 l 256 1000 l 527 1000 q 730 944 647 1000 q 857 793 814 889 q 901 574 901 696 q 865 353 901 456 q 762 170 829 249 q 600 45 694 90 q 389 0 505 0 l 54 0 m 161 81 l 398 81 q 571 121 494 81 q 702 231 648 161 q 784 390 756 300 q 812 577 812 479 q 778 758 812 681 q 677 877 743 834 q 519 919 612 919 l 330 919 l 161 81 m 359 -241 q 305 -219 327 -241 q 283 -166 283 -197 q 305 -113 283 -135 q 359 -91 327 -91 q 412 -113 390 -91 q 434 -166 434 -135 q 412 -219 434 -197 q 359 -241 390 -241 z "},"Ḏ":{"ha":945,"x_min":54,"x_max":901,"o":"m 54 0 l 256 1000 l 527 1000 q 730 944 647 1000 q 857 793 814 889 q 901 574 901 696 q 865 353 901 456 q 762 170 829 249 q 600 45 694 90 q 389 0 505 0 l 54 0 m 161 81 l 398 81 q 571 121 494 81 q 702 231 648 161 q 784 390 756 300 q 812 577 812 479 q 778 758 812 681 q 677 877 743 834 q 519 919 612 919 l 330 919 l 161 81 m 109 -262 l 121 -201 l 584 -201 l 572 -262 l 109 -262 z "},"ǅ":{"ha":1554,"x_min":54,"x_max":1555,"o":"m 54 0 l 256 1000 l 527 1000 q 730 944 647 1000 q 857 793 814 889 q 901 574 901 696 q 865 353 901 456 q 762 170 829 249 q 600 45 694 90 q 389 0 505 0 l 54 0 m 161 81 l 398 81 q 571 121 494 81 q 702 231 648 161 q 784 390 756 300 q 812 577 812 479 q 778 758 812 681 q 677 877 743 834 q 519 919 612 919 l 330 919 l 161 81 m 901 0 l 906 26 l 1408 635 l 1408 640 l 1046 640 l 1061 715 l 1554 715 l 1551 692 l 1048 81 l 1048 77 l 1432 77 l 1417 0 l 901 0 m 1303 811 l 1143 996 l 1188 1041 l 1322 882 l 1327 882 l 1517 1041 l 1555 996 l 1330 811 l 1303 811 z "},"Ð":{"ha":965,"x_min":58,"x_max":921,"o":"m 75 0 l 276 1000 l 547 1000 q 751 944 667 1000 q 878 793 834 889 q 921 574 921 696 q 885 353 921 456 q 782 170 849 249 q 620 45 715 90 q 409 0 526 0 l 75 0 m 181 81 l 418 81 q 592 121 515 81 q 723 231 669 161 q 805 390 777 300 q 833 577 833 479 q 798 758 833 681 q 698 877 764 834 q 539 919 632 919 l 350 919 l 181 81 m 58 468 l 73 537 l 412 537 l 395 468 l 58 468 z "},"E":{"ha":728,"x_min":54,"x_max":770,"o":"m 54 0 l 256 1000 l 770 1000 l 754 919 l 330 919 l 255 550 l 616 550 l 600 469 l 239 469 l 161 81 l 584 81 l 568 0 l 54 0 z "},"É":{"ha":728,"x_min":54,"x_max":770,"o":"m 54 0 l 256 1000 l 770 1000 l 754 919 l 330 919 l 255 550 l 616 550 l 600 469 l 239 469 l 161 81 l 584 81 l 568 0 l 54 0 m 549 1053 l 494 1100 l 650 1292 l 708 1236 l 549 1053 z "},"Ĕ":{"ha":728,"x_min":54,"x_max":776,"o":"m 54 0 l 256 1000 l 770 1000 l 754 919 l 330 919 l 255 550 l 616 550 l 600 469 l 239 469 l 161 81 l 584 81 l 568 0 l 54 0 m 538 1057 q 434 1081 477 1057 q 371 1147 391 1106 q 362 1234 352 1187 l 422 1225 q 428 1166 414 1190 q 472 1128 442 1141 q 538 1116 501 1116 q 655 1149 606 1116 q 714 1234 705 1182 l 776 1225 q 731 1136 767 1173 q 643 1078 694 1098 q 538 1057 591 1057 z "},"Ě":{"ha":728,"x_min":54,"x_max":773,"o":"m 54 0 l 256 1000 l 770 1000 l 754 919 l 330 919 l 255 550 l 616 550 l 600 469 l 239 469 l 161 81 l 584 81 l 568 0 l 54 0 m 514 1053 l 345 1204 l 393 1253 l 533 1122 l 541 1122 l 732 1253 l 773 1204 l 543 1053 l 514 1053 z "},"Ḝ":{"ha":728,"x_min":54,"x_max":776,"o":"m 54 0 l 256 1000 l 770 1000 l 754 919 l 330 919 l 255 550 l 616 550 l 600 469 l 239 469 l 161 81 l 584 81 l 568 0 l 54 0 m 168 -305 l 174 -249 q 286 -233 241 -251 q 337 -176 330 -215 q 319 -136 342 -151 q 244 -119 295 -121 l 305 0 l 361 0 l 302 -109 l 296 -77 q 353 -92 328 -78 q 391 -131 378 -106 q 396 -190 403 -155 q 356 -259 387 -234 q 276 -295 324 -285 q 168 -305 228 -305 m 538 1057 q 434 1081 477 1057 q 371 1147 391 1106 q 362 1234 352 1187 l 422 1225 q 428 1166 414 1190 q 472 1128 442 1141 q 538 1116 501 1116 q 655 1149 606 1116 q 714 1234 705 1182 l 776 1225 q 731 1136 767 1173 q 643 1078 694 1098 q 538 1057 591 1057 z "},"Ê":{"ha":728,"x_min":54,"x_max":770,"o":"m 54 0 l 256 1000 l 770 1000 l 754 919 l 330 919 l 255 550 l 616 550 l 600 469 l 239 469 l 161 81 l 584 81 l 568 0 l 54 0 m 371 1053 l 330 1103 l 559 1253 l 589 1253 l 758 1103 l 709 1053 l 570 1185 l 562 1185 l 371 1053 z "},"Ế":{"ha":728,"x_min":54,"x_max":934,"o":"m 54 0 l 256 1000 l 770 1000 l 754 919 l 330 919 l 255 550 l 616 550 l 600 469 l 239 469 l 161 81 l 584 81 l 568 0 l 54 0 m 709 1190 l 670 1228 l 892 1416 l 934 1358 l 709 1190 m 365 1044 l 325 1092 l 551 1244 l 581 1244 l 752 1092 l 704 1044 l 562 1174 l 555 1174 l 365 1044 z "},"Ệ":{"ha":728,"x_min":54,"x_max":776,"o":"m 54 0 l 256 1000 l 770 1000 l 754 919 l 330 919 l 255 550 l 616 550 l 600 469 l 239 469 l 161 81 l 584 81 l 568 0 l 54 0 m 319 -241 q 266 -219 288 -241 q 244 -166 244 -197 q 266 -113 244 -135 q 319 -91 288 -91 q 373 -113 351 -91 q 395 -166 395 -135 q 373 -219 395 -197 q 319 -241 351 -241 m 389 1054 l 349 1104 l 578 1254 l 607 1254 l 776 1104 l 728 1054 l 589 1185 l 581 1185 l 389 1054 z "},"Ề":{"ha":728,"x_min":54,"x_max":770,"o":"m 54 0 l 256 1000 l 770 1000 l 754 919 l 330 919 l 255 550 l 616 550 l 600 469 l 239 469 l 161 81 l 584 81 l 568 0 l 54 0 m 387 1185 l 241 1376 l 298 1421 l 439 1218 l 387 1185 m 367 1040 l 328 1088 l 553 1240 l 583 1240 l 754 1088 l 706 1040 l 564 1170 l 557 1170 l 367 1040 z "},"Ể":{"ha":728,"x_min":54,"x_max":809,"o":"m 54 0 l 256 1000 l 770 1000 l 754 919 l 330 919 l 255 550 l 616 550 l 600 469 l 239 469 l 161 81 l 584 81 l 568 0 l 54 0 m 705 1182 l 662 1220 q 710 1262 690 1238 q 736 1310 731 1287 q 727 1345 741 1333 q 679 1357 713 1357 q 640 1355 663 1357 q 598 1346 617 1352 l 605 1407 q 644 1416 623 1413 q 683 1418 665 1418 q 780 1388 750 1418 q 800 1310 809 1358 q 764 1238 792 1272 q 705 1182 735 1203 m 366 1044 l 326 1092 l 552 1244 l 582 1244 l 753 1092 l 705 1044 l 562 1174 l 556 1174 l 366 1044 z "},"Ễ":{"ha":728,"x_min":54,"x_max":794,"o":"m 54 0 l 256 1000 l 770 1000 l 754 919 l 330 919 l 255 550 l 616 550 l 600 469 l 239 469 l 161 81 l 584 81 l 568 0 l 54 0 m 410 1279 l 348 1286 q 399 1387 360 1351 q 492 1422 439 1422 q 547 1410 526 1422 q 583 1382 568 1398 q 613 1355 598 1367 q 648 1343 627 1343 q 700 1366 677 1343 q 730 1428 723 1390 l 795 1420 q 767 1347 787 1379 q 716 1298 746 1316 q 650 1280 686 1280 q 597 1293 618 1280 q 561 1321 576 1305 q 528 1350 545 1337 q 490 1362 511 1362 q 442 1341 465 1362 q 410 1279 419 1320 m 366 1044 l 326 1092 l 553 1244 l 583 1244 l 753 1092 l 705 1044 l 563 1174 l 557 1174 l 366 1044 z "},"Ȅ":{"ha":728,"x_min":54,"x_max":770,"o":"m 54 0 l 256 1000 l 770 1000 l 754 919 l 330 919 l 255 550 l 616 550 l 600 469 l 239 469 l 161 81 l 584 81 l 568 0 l 54 0 m 406 1079 l 303 1294 l 376 1331 l 459 1103 l 406 1079 m 616 1079 l 519 1294 l 592 1331 l 672 1103 l 616 1079 z "},"Ë":{"ha":728,"x_min":54,"x_max":770,"o":"m 54 0 l 256 1000 l 770 1000 l 754 919 l 330 919 l 255 550 l 616 550 l 600 469 l 239 469 l 161 81 l 584 81 l 568 0 l 54 0 m 696 1078 q 643 1099 665 1078 q 621 1150 621 1120 q 641 1202 621 1181 q 692 1222 661 1222 q 744 1201 722 1222 q 765 1147 765 1181 q 745 1097 765 1117 q 696 1078 726 1078 m 411 1078 q 360 1099 381 1078 q 338 1150 338 1120 q 358 1202 338 1181 q 407 1222 377 1222 q 461 1200 439 1222 q 482 1147 482 1178 q 462 1098 482 1118 q 411 1078 442 1078 z "},"Ė":{"ha":728,"x_min":54,"x_max":770,"o":"m 54 0 l 256 1000 l 770 1000 l 754 919 l 330 919 l 255 550 l 616 550 l 600 469 l 239 469 l 161 81 l 584 81 l 568 0 l 54 0 m 561 1074 q 507 1096 529 1074 q 486 1149 486 1118 q 507 1203 486 1181 q 561 1225 529 1225 q 614 1203 592 1225 q 636 1149 636 1181 q 614 1096 636 1118 q 561 1074 592 1074 z "},"Ẹ":{"ha":728,"x_min":54,"x_max":770,"o":"m 54 0 l 256 1000 l 770 1000 l 754 919 l 330 919 l 255 550 l 616 550 l 600 469 l 239 469 l 161 81 l 584 81 l 568 0 l 54 0 m 306 -241 q 252 -219 274 -241 q 231 -166 231 -197 q 252 -113 231 -135 q 306 -91 274 -91 q 359 -113 337 -91 q 381 -166 381 -135 q 359 -219 381 -197 q 306 -241 337 -241 z "},"È":{"ha":728,"x_min":54,"x_max":770,"o":"m 54 0 l 256 1000 l 770 1000 l 754 919 l 330 919 l 255 550 l 616 550 l 600 469 l 239 469 l 161 81 l 584 81 l 568 0 l 54 0 m 534 1053 l 366 1236 l 419 1292 l 585 1100 l 534 1053 z "},"Ẻ":{"ha":728,"x_min":54,"x_max":770,"o":"m 54 0 l 256 1000 l 770 1000 l 754 919 l 330 919 l 255 550 l 616 550 l 600 469 l 239 469 l 161 81 l 584 81 l 568 0 l 54 0 m 553 1084 l 521 1128 q 575 1166 553 1143 q 602 1212 597 1189 q 592 1249 607 1236 q 547 1262 577 1262 q 502 1257 526 1262 q 461 1246 479 1253 l 469 1310 q 511 1319 490 1316 q 551 1322 532 1322 q 644 1291 616 1322 q 662 1211 671 1259 q 624 1138 654 1172 q 553 1084 593 1104 z "},"Ȇ":{"ha":728,"x_min":54,"x_max":770,"o":"m 54 0 l 256 1000 l 770 1000 l 754 919 l 330 919 l 255 550 l 616 550 l 600 469 l 239 469 l 161 81 l 584 81 l 568 0 l 54 0 m 741 1050 l 680 1059 q 656 1141 691 1108 q 558 1173 622 1173 q 447 1139 494 1173 q 387 1053 399 1105 l 327 1062 q 373 1151 338 1114 q 457 1209 408 1188 q 562 1230 507 1230 q 668 1205 623 1231 q 732 1138 712 1180 q 741 1050 752 1097 z "},"Ē":{"ha":728,"x_min":54,"x_max":798,"o":"m 54 0 l 256 1000 l 770 1000 l 754 919 l 330 919 l 255 550 l 616 550 l 600 469 l 239 469 l 161 81 l 584 81 l 568 0 l 54 0 m 308 1115 l 319 1181 l 798 1181 l 785 1115 l 308 1115 z "},"Ḗ":{"ha":728,"x_min":54,"x_max":798,"o":"m 54 0 l 256 1000 l 770 1000 l 754 919 l 330 919 l 255 550 l 616 550 l 600 469 l 239 469 l 161 81 l 584 81 l 568 0 l 54 0 m 308 1115 l 319 1181 l 798 1181 l 785 1115 l 308 1115 m 585 1234 l 530 1281 l 686 1473 l 744 1417 l 585 1234 z "},"Ḕ":{"ha":728,"x_min":54,"x_max":798,"o":"m 54 0 l 256 1000 l 770 1000 l 754 919 l 330 919 l 255 550 l 616 550 l 600 469 l 239 469 l 161 81 l 584 81 l 568 0 l 54 0 m 308 1115 l 319 1181 l 798 1181 l 785 1115 l 308 1115 m 570 1234 l 401 1417 l 454 1473 l 621 1281 l 570 1234 z "},"Ę":{"ha":728,"x_min":54,"x_max":770,"o":"m 54 0 l 256 1000 l 770 1000 l 754 919 l 330 919 l 255 550 l 616 550 l 600 469 l 239 469 l 161 81 l 584 81 l 568 0 l 54 0 m 448 -269 q 371 -237 396 -269 q 355 -155 345 -204 q 413 -59 367 -101 q 519 24 459 -17 l 568 0 q 505 -50 538 -24 q 446 -103 471 -76 q 415 -159 421 -130 q 423 -197 410 -184 q 462 -210 436 -210 q 514 -199 488 -210 q 554 -181 541 -189 l 544 -246 q 498 -262 526 -256 q 448 -269 470 -269 z "},"Ẽ":{"ha":728,"x_min":54,"x_max":777,"o":"m 54 0 l 256 1000 l 770 1000 l 754 919 l 330 919 l 255 550 l 616 550 l 600 469 l 239 469 l 161 81 l 584 81 l 568 0 l 54 0 m 391 1074 l 330 1083 q 382 1187 342 1148 q 474 1227 422 1227 q 530 1214 509 1227 q 565 1183 551 1200 q 592 1153 579 1166 q 625 1140 606 1140 q 682 1168 658 1140 q 713 1232 707 1196 l 777 1223 q 724 1119 764 1159 q 631 1079 684 1079 q 577 1092 597 1079 q 542 1122 557 1105 q 511 1152 527 1139 q 473 1165 496 1165 q 423 1139 446 1165 q 391 1074 400 1114 z "},"Ə":{"ha":1000,"x_min":85,"x_max":965,"o":"m 432 -12 q 246 33 323 -12 q 127 161 168 79 q 85 351 85 243 q 91 428 85 384 q 107 528 97 473 l 892 528 l 876 449 l 175 449 q 168 399 170 424 q 165 353 165 375 q 239 144 165 220 q 436 68 313 68 q 617 116 536 68 q 756 243 698 163 q 846 421 814 322 q 878 622 878 519 q 802 851 878 772 q 600 930 726 930 q 418 889 507 930 q 266 771 330 848 l 194 812 q 380 960 271 909 q 604 1010 490 1010 q 791 966 710 1010 q 919 836 873 922 q 965 625 965 750 q 926 389 965 503 q 816 185 887 275 q 648 41 745 94 q 432 -12 550 -12 z "},"F":{"ha":680,"x_min":54,"x_max":756,"o":"m 54 0 l 256 1000 l 756 1000 l 740 919 l 330 919 l 253 543 l 610 543 l 594 461 l 237 461 l 144 0 l 54 0 z "},"G":{"ha":1010,"x_min":98,"x_max":968,"o":"m 493 -11 q 330 21 403 -11 q 206 110 258 52 q 126 248 154 168 q 98 422 98 327 q 139 645 98 539 q 254 833 180 751 q 429 963 329 916 q 647 1010 529 1010 q 823 978 748 1010 q 943 905 899 946 l 894 826 q 793 900 857 870 q 645 930 729 930 q 463 888 547 930 q 318 774 380 846 q 221 612 256 703 q 187 424 187 522 q 224 243 187 323 q 331 116 262 163 q 494 70 399 70 q 666 118 588 70 q 796 258 743 167 q 868 477 849 349 l 905 448 l 519 448 l 534 528 l 968 528 l 954 450 q 868 211 930 315 q 711 48 806 107 q 493 -11 616 -11 z "},"Ğ":{"ha":1010,"x_min":98,"x_max":968,"o":"m 493 -11 q 330 21 403 -11 q 206 110 258 52 q 126 248 154 168 q 98 422 98 327 q 139 645 98 539 q 254 833 180 751 q 429 963 329 916 q 647 1010 529 1010 q 823 978 748 1010 q 943 905 899 946 l 894 826 q 793 900 857 870 q 645 930 729 930 q 463 888 547 930 q 318 774 380 846 q 221 612 256 703 q 187 424 187 522 q 224 243 187 323 q 331 116 262 163 q 494 70 399 70 q 666 118 588 70 q 796 258 743 167 q 868 477 849 349 l 905 448 l 519 448 l 534 528 l 968 528 l 954 450 q 868 211 930 315 q 711 48 806 107 q 493 -11 616 -11 m 660 1057 q 556 1081 600 1057 q 493 1147 513 1106 q 484 1234 474 1187 l 544 1225 q 550 1166 536 1190 q 594 1128 564 1141 q 661 1116 623 1116 q 778 1149 728 1116 q 836 1234 827 1182 l 898 1225 q 853 1136 889 1173 q 765 1078 817 1098 q 660 1057 713 1057 z "},"Ǧ":{"ha":1010,"x_min":98,"x_max":968,"o":"m 493 -11 q 330 21 403 -11 q 206 110 258 52 q 126 248 154 168 q 98 422 98 327 q 139 645 98 539 q 254 833 180 751 q 429 963 329 916 q 647 1010 529 1010 q 823 978 748 1010 q 943 905 899 946 l 894 826 q 793 900 857 870 q 645 930 729 930 q 463 888 547 930 q 318 774 380 846 q 221 612 256 703 q 187 424 187 522 q 224 243 187 323 q 331 116 262 163 q 494 70 399 70 q 666 118 588 70 q 796 258 743 167 q 868 477 849 349 l 905 448 l 519 448 l 534 528 l 968 528 l 954 450 q 868 211 930 315 q 711 48 806 107 q 493 -11 616 -11 m 635 1053 l 467 1204 l 514 1253 l 654 1122 l 662 1122 l 854 1253 l 895 1204 l 665 1053 l 635 1053 z "},"Ĝ":{"ha":1010,"x_min":98,"x_max":968,"o":"m 493 -11 q 330 21 403 -11 q 206 110 258 52 q 126 248 154 168 q 98 422 98 327 q 139 645 98 539 q 254 833 180 751 q 429 963 329 916 q 647 1010 529 1010 q 823 978 748 1010 q 943 905 899 946 l 894 826 q 793 900 857 870 q 645 930 729 930 q 463 888 547 930 q 318 774 380 846 q 221 612 256 703 q 187 424 187 522 q 224 243 187 323 q 331 116 262 163 q 494 70 399 70 q 666 118 588 70 q 796 258 743 167 q 868 477 849 349 l 905 448 l 519 448 l 534 528 l 968 528 l 954 450 q 868 211 930 315 q 711 48 806 107 q 493 -11 616 -11 m 493 1053 l 452 1103 l 682 1253 l 711 1253 l 880 1103 l 831 1053 l 692 1185 l 684 1185 l 493 1053 z "},"Ģ":{"ha":1010,"x_min":98,"x_max":968,"o":"m 493 -11 q 330 21 403 -11 q 206 110 258 52 q 126 248 154 168 q 98 422 98 327 q 139 645 98 539 q 254 833 180 751 q 429 963 329 916 q 647 1010 529 1010 q 823 978 748 1010 q 943 905 899 946 l 894 826 q 793 900 857 870 q 645 930 729 930 q 463 888 547 930 q 318 774 380 846 q 221 612 256 703 q 187 424 187 522 q 224 243 187 323 q 331 116 262 163 q 494 70 399 70 q 666 118 588 70 q 796 258 743 167 q 868 477 849 349 l 905 448 l 519 448 l 534 528 l 968 528 l 954 450 q 868 211 930 315 q 711 48 806 107 q 493 -11 616 -11 m 352 -359 l 327 -326 l 398 -273 q 426 -249 414 -261 q 445 -224 438 -237 q 452 -195 452 -211 l 469 -195 q 456 -217 465 -208 q 432 -227 448 -227 q 393 -210 412 -227 q 375 -168 375 -193 q 391 -129 375 -146 q 433 -111 406 -111 q 476 -129 457 -111 q 496 -182 496 -147 q 473 -253 496 -222 q 427 -301 450 -283 l 352 -359 z "},"Ġ":{"ha":1010,"x_min":98,"x_max":968,"o":"m 493 -11 q 330 21 403 -11 q 206 110 258 52 q 126 248 154 168 q 98 422 98 327 q 139 645 98 539 q 254 833 180 751 q 429 963 329 916 q 647 1010 529 1010 q 823 978 748 1010 q 943 905 899 946 l 894 826 q 793 900 857 870 q 645 930 729 930 q 463 888 547 930 q 318 774 380 846 q 221 612 256 703 q 187 424 187 522 q 224 243 187 323 q 331 116 262 163 q 494 70 399 70 q 666 118 588 70 q 796 258 743 167 q 868 477 849 349 l 905 448 l 519 448 l 534 528 l 968 528 l 954 450 q 868 211 930 315 q 711 48 806 107 q 493 -11 616 -11 m 683 1074 q 629 1096 651 1074 q 608 1149 608 1118 q 629 1203 608 1181 q 683 1225 651 1225 q 736 1203 714 1225 q 758 1149 758 1181 q 736 1096 758 1118 q 683 1074 714 1074 z "},"Ḡ":{"ha":1010,"x_min":98,"x_max":968,"o":"m 493 -11 q 330 21 403 -11 q 206 110 258 52 q 126 248 154 168 q 98 422 98 327 q 139 645 98 539 q 254 833 180 751 q 429 963 329 916 q 647 1010 529 1010 q 823 978 748 1010 q 943 905 899 946 l 894 826 q 793 900 857 870 q 645 930 729 930 q 463 888 547 930 q 318 774 380 846 q 221 612 256 703 q 187 424 187 522 q 224 243 187 323 q 331 116 262 163 q 494 70 399 70 q 666 118 588 70 q 796 258 743 167 q 868 477 849 349 l 905 448 l 519 448 l 534 528 l 968 528 l 954 450 q 868 211 930 315 q 711 48 806 107 q 493 -11 616 -11 m 430 1115 l 441 1181 l 920 1181 l 907 1115 l 430 1115 z "},"H":{"ha":957,"x_min":54,"x_max":958,"o":"m 54 0 l 254 1000 l 344 1000 l 254 551 l 779 551 l 867 1000 l 958 1000 l 760 0 l 671 0 l 763 470 l 238 470 l 144 0 l 54 0 z "},"Ħ":{"ha":1017,"x_min":63,"x_max":1051,"o":"m 78 714 l 92 781 l 1051 781 l 1038 714 l 78 714 m 63 0 l 262 1000 l 353 1000 l 263 551 l 787 551 l 876 1000 l 966 1000 l 769 0 l 679 0 l 771 470 l 247 470 l 153 0 l 63 0 z "},"Ḫ":{"ha":957,"x_min":54,"x_max":958,"o":"m 54 0 l 254 1000 l 344 1000 l 254 551 l 779 551 l 867 1000 l 958 1000 l 760 0 l 671 0 l 763 470 l 238 470 l 144 0 l 54 0 m 363 -281 q 261 -253 304 -281 q 199 -178 218 -224 q 189 -76 179 -132 l 250 -85 q 271 -183 239 -143 q 365 -222 303 -222 q 445 -202 406 -222 q 511 -149 484 -182 q 545 -76 538 -115 l 606 -85 q 560 -185 596 -141 q 473 -255 524 -229 q 363 -281 421 -281 z "},"Ĥ":{"ha":957,"x_min":54,"x_max":958,"o":"m 54 0 l 254 1000 l 344 1000 l 254 551 l 779 551 l 867 1000 l 958 1000 l 760 0 l 671 0 l 763 470 l 238 470 l 144 0 l 54 0 m 454 1053 l 414 1103 l 643 1253 l 672 1253 l 841 1103 l 793 1053 l 654 1185 l 646 1185 l 454 1053 z "},"Ḥ":{"ha":957,"x_min":54,"x_max":958,"o":"m 54 0 l 254 1000 l 344 1000 l 254 551 l 779 551 l 867 1000 l 958 1000 l 760 0 l 671 0 l 763 470 l 238 470 l 144 0 l 54 0 m 373 -241 q 319 -219 341 -241 q 298 -166 298 -197 q 319 -113 298 -135 q 373 -91 341 -91 q 426 -113 404 -91 q 448 -166 448 -135 q 426 -219 448 -197 q 373 -241 404 -241 z "},"I":{"ha":365,"x_min":64,"x_max":356,"o":"m 64 0 l 266 1000 l 356 1000 l 155 0 l 64 0 z "},"Í":{"ha":365,"x_min":64,"x_max":497,"o":"m 64 0 l 266 1000 l 356 1000 l 155 0 l 64 0 m 338 1053 l 283 1100 l 439 1292 l 497 1236 l 338 1053 z "},"Ĭ":{"ha":387,"x_min":75,"x_max":576,"o":"m 75 0 l 277 1000 l 367 1000 l 165 0 l 75 0 m 338 1057 q 234 1081 277 1057 q 171 1147 191 1106 q 162 1234 152 1187 l 222 1225 q 228 1166 214 1190 q 272 1128 242 1141 q 338 1116 301 1116 q 455 1149 406 1116 q 514 1234 505 1182 l 576 1225 q 531 1136 567 1173 q 443 1078 494 1098 q 338 1057 391 1057 z "},"Ǐ":{"ha":387,"x_min":75,"x_max":572,"o":"m 75 0 l 277 1000 l 367 1000 l 165 0 l 75 0 m 313 1053 l 144 1204 l 192 1253 l 332 1122 l 340 1122 l 532 1253 l 572 1204 l 342 1053 l 313 1053 z "},"Î":{"ha":387,"x_min":75,"x_max":557,"o":"m 75 0 l 277 1000 l 367 1000 l 165 0 l 75 0 m 171 1053 l 130 1103 l 359 1253 l 389 1253 l 557 1103 l 509 1053 l 370 1185 l 362 1185 l 171 1053 z "},"Ȉ":{"ha":387,"x_min":75,"x_max":471,"o":"m 75 0 l 277 1000 l 367 1000 l 165 0 l 75 0 m 205 1079 l 102 1294 l 176 1331 l 258 1103 l 205 1079 m 416 1079 l 319 1294 l 391 1331 l 471 1103 l 416 1079 z "},"Ï":{"ha":434,"x_min":99,"x_max":589,"o":"m 99 0 l 300 1000 l 391 1000 l 189 0 l 99 0 m 519 1078 q 466 1099 488 1078 q 444 1150 444 1120 q 464 1202 444 1181 q 515 1222 484 1222 q 567 1201 545 1222 q 588 1147 588 1181 q 568 1097 588 1117 q 519 1078 549 1078 m 234 1078 q 183 1099 204 1078 q 161 1150 161 1120 q 181 1202 161 1181 q 230 1222 200 1222 q 284 1200 262 1222 q 305 1147 305 1178 q 285 1098 305 1118 q 234 1078 265 1078 z "},"Ḯ":{"ha":434,"x_min":99,"x_max":589,"o":"m 99 0 l 300 1000 l 391 1000 l 189 0 l 99 0 m 519 1077 q 466 1098 488 1077 q 444 1149 444 1120 q 465 1201 444 1181 q 516 1221 485 1221 q 567 1201 546 1221 q 589 1147 589 1180 q 569 1097 589 1116 q 519 1077 549 1077 m 235 1077 q 183 1098 205 1077 q 162 1149 162 1120 q 181 1201 162 1181 q 231 1221 201 1221 q 284 1199 263 1221 q 306 1146 306 1177 q 286 1097 306 1118 q 235 1077 266 1077 m 405 1221 l 351 1268 l 507 1460 l 564 1404 l 405 1221 z "},"İ":{"ha":365,"x_min":64,"x_max":425,"o":"m 64 0 l 266 1000 l 356 1000 l 155 0 l 64 0 m 349 1074 q 296 1096 317 1074 q 274 1149 274 1118 q 296 1203 274 1181 q 349 1225 317 1225 q 402 1203 380 1225 q 425 1149 425 1181 q 402 1096 425 1118 q 349 1074 380 1074 z "},"Ị":{"ha":365,"x_min":1,"x_max":356,"o":"m 64 0 l 266 1000 l 356 1000 l 155 0 l 64 0 m 77 -241 q 23 -219 45 -241 q 1 -166 1 -197 q 23 -113 1 -135 q 77 -91 45 -91 q 130 -113 108 -91 q 152 -166 152 -135 q 130 -219 152 -197 q 77 -241 108 -241 z "},"Ì":{"ha":365,"x_min":64,"x_max":374,"o":"m 64 0 l 266 1000 l 356 1000 l 155 0 l 64 0 m 323 1053 l 154 1236 l 208 1292 l 374 1100 l 323 1053 z "},"Ỉ":{"ha":365,"x_min":64,"x_max":460,"o":"m 64 0 l 266 1000 l 356 1000 l 155 0 l 64 0 m 342 1084 l 310 1128 q 364 1166 342 1143 q 391 1212 386 1189 q 381 1249 396 1236 q 336 1262 366 1262 q 291 1257 315 1262 q 250 1246 268 1253 l 258 1310 q 300 1319 279 1316 q 340 1322 321 1322 q 433 1291 406 1322 q 451 1211 460 1259 q 413 1138 443 1172 q 342 1084 382 1104 z "},"Ȋ":{"ha":434,"x_min":99,"x_max":575,"o":"m 99 0 l 300 1000 l 391 1000 l 189 0 l 99 0 m 564 1050 l 503 1059 q 479 1141 514 1108 q 381 1173 445 1173 q 270 1139 317 1173 q 210 1053 222 1105 l 150 1062 q 196 1151 161 1114 q 280 1209 231 1188 q 385 1230 330 1230 q 491 1205 446 1231 q 555 1138 535 1180 q 564 1050 575 1097 z "},"Ī":{"ha":434,"x_min":99,"x_max":621,"o":"m 99 0 l 300 1000 l 391 1000 l 189 0 l 99 0 m 132 1115 l 143 1181 l 621 1181 l 609 1115 l 132 1115 z "},"Į":{"ha":365,"x_min":-68,"x_max":356,"o":"m 64 0 l 266 1000 l 356 1000 l 155 0 l 64 0 m 34 -269 q -43 -237 -18 -269 q -58 -155 -68 -204 q -1 -59 -47 -101 q 105 24 45 -17 l 155 0 q 91 -50 125 -24 q 33 -103 58 -76 q 1 -159 7 -130 q 9 -197 -3 -184 q 48 -210 22 -210 q 101 -199 75 -210 q 140 -181 127 -189 l 130 -246 q 84 -262 113 -256 q 34 -269 56 -269 z "},"Ĩ":{"ha":445,"x_min":104,"x_max":605,"o":"m 104 0 l 306 1000 l 396 1000 l 195 0 l 104 0 m 219 1074 l 158 1083 q 211 1187 171 1148 q 302 1227 250 1227 q 359 1214 338 1227 q 394 1183 380 1200 q 421 1153 408 1166 q 454 1140 434 1140 q 511 1168 486 1140 q 542 1232 535 1196 l 605 1223 q 552 1119 592 1159 q 459 1079 513 1079 q 406 1092 426 1079 q 370 1122 385 1105 q 340 1152 355 1139 q 302 1165 324 1165 q 252 1139 275 1165 q 219 1074 229 1114 z "},"J":{"ha":643,"x_min":-7,"x_max":646,"o":"m 231 -11 q 101 24 157 -11 q 19 121 45 59 q 7 262 -7 182 l 95 254 q 100 157 84 198 q 150 93 115 116 q 231 70 184 70 q 318 98 282 70 q 377 177 354 125 q 415 298 401 228 l 555 1000 l 646 1000 l 504 293 q 405 65 473 141 q 231 -11 337 -11 z "},"Ĵ":{"ha":654,"x_min":-7,"x_max":835,"o":"m 231 -11 q 101 24 157 -11 q 19 121 45 59 q 7 262 -7 182 l 95 254 q 100 157 84 198 q 150 93 115 116 q 231 70 184 70 q 318 98 282 70 q 377 177 354 125 q 415 298 401 228 l 555 1000 l 646 1000 l 504 293 q 405 65 473 141 q 231 -11 337 -11 m 449 1053 l 408 1103 l 637 1253 l 667 1253 l 836 1103 l 787 1053 l 648 1185 l 640 1185 l 449 1053 z "},"K":{"ha":812,"x_min":54,"x_max":888,"o":"m 54 0 l 254 1000 l 344 999 l 250 531 l 281 531 l 239 508 l 772 1000 l 888 1000 l 314 469 l 312 522 l 715 0 l 614 0 l 234 491 l 266 467 l 237 467 l 144 0 l 54 0 z "},"Ķ":{"ha":812,"x_min":54,"x_max":888,"o":"m 54 0 l 254 1000 l 344 999 l 250 531 l 281 531 l 239 508 l 772 1000 l 888 1000 l 314 469 l 312 522 l 715 0 l 614 0 l 234 491 l 266 467 l 237 467 l 144 0 l 54 0 m 244 -359 l 219 -326 l 290 -273 q 318 -249 306 -261 q 337 -224 330 -237 q 345 -195 345 -211 l 361 -195 q 349 -217 357 -208 q 324 -227 340 -227 q 286 -210 304 -227 q 267 -168 267 -193 q 283 -129 267 -146 q 325 -111 298 -111 q 369 -129 349 -111 q 388 -182 388 -147 q 365 -253 388 -222 q 319 -301 342 -283 l 244 -359 z "},"L":{"ha":659,"x_min":54,"x_max":572,"o":"m 54 0 l 254 1000 l 344 1000 l 161 81 l 572 81 l 555 0 l 54 0 z "},"Ǉ":{"ha":1302,"x_min":54,"x_max":1304,"o":"m 54 0 l 254 1000 l 344 1000 l 161 81 l 572 81 l 555 0 l 54 0 m 890 -11 q 759 24 815 -11 q 677 121 703 59 q 666 262 651 182 l 753 254 q 758 157 743 198 q 808 93 774 116 q 889 70 843 70 q 977 98 941 70 q 1036 177 1013 125 q 1074 298 1059 228 l 1213 1000 l 1304 1000 l 1162 293 q 1064 65 1132 141 q 890 -11 996 -11 z "},"Ĺ":{"ha":659,"x_min":54,"x_max":572,"o":"m 54 0 l 254 1000 l 344 1000 l 161 81 l 572 81 l 555 0 l 54 0 m 326 1053 l 272 1100 l 428 1292 l 486 1236 l 326 1053 z "},"Ľ":{"ha":659,"x_min":54,"x_max":776,"o":"m 54 0 l 254 1000 l 344 1000 l 161 81 l 572 81 l 555 0 l 54 0 m 637 707 l 701 1000 l 776 1000 l 703 707 l 637 707 z "},"Ļ":{"ha":659,"x_min":54,"x_max":572,"o":"m 54 0 l 254 1000 l 344 1000 l 161 81 l 572 81 l 555 0 l 54 0 m 201 -359 l 176 -326 l 247 -273 q 275 -249 262 -261 q 294 -224 287 -237 q 301 -195 301 -211 l 317 -195 q 305 -217 313 -208 q 281 -227 297 -227 q 242 -210 260 -227 q 224 -168 224 -193 q 239 -129 224 -146 q 281 -111 255 -111 q 325 -129 306 -111 q 345 -182 345 -147 q 322 -253 345 -222 q 275 -301 299 -283 l 201 -359 z "},"Ŀ":{"ha":685,"x_min":54,"x_max":629,"o":"m 54 0 l 254 1000 l 344 1000 l 161 81 l 572 81 l 555 0 l 54 0 m 555 436 q 502 458 524 436 q 480 511 480 479 q 502 564 480 542 q 555 586 524 586 q 608 564 586 586 q 629 511 629 542 q 608 458 629 479 q 555 436 586 436 z "},"Ḷ":{"ha":659,"x_min":54,"x_max":572,"o":"m 54 0 l 254 1000 l 344 1000 l 161 81 l 572 81 l 555 0 l 54 0 m 282 -241 q 229 -219 250 -241 q 207 -166 207 -197 q 229 -113 207 -135 q 282 -91 250 -91 q 335 -113 313 -91 q 357 -166 357 -135 q 335 -219 357 -197 q 282 -241 313 -241 z "},"ǈ":{"ha":977,"x_min":54,"x_max":1018,"o":"m 54 0 l 254 1000 l 344 1000 l 161 81 l 572 81 l 555 0 l 54 0 m 567 -297 q 526 -293 546 -297 q 496 -287 505 -290 l 512 -209 q 538 -215 525 -213 q 560 -217 551 -217 q 652 -181 616 -217 q 700 -87 688 -144 l 860 715 l 945 715 l 784 -98 q 744 -198 773 -153 q 670 -270 714 -243 q 567 -297 625 -297 m 943 842 q 889 864 911 842 q 867 918 867 886 q 889 971 867 949 q 943 993 911 993 q 996 971 974 993 q 1018 918 1018 949 q 996 864 1018 886 q 943 842 974 842 z "},"Ḻ":{"ha":659,"x_min":32,"x_max":572,"o":"m 54 0 l 254 1000 l 344 1000 l 161 81 l 572 81 l 555 0 l 54 0 m 33 -262 l 44 -201 l 507 -201 l 495 -262 l 33 -262 z "},"Ł":{"ha":693,"x_min":39,"x_max":606,"o":"m 63 378 l 39 435 l 210 532 l 272 554 l 402 628 l 425 570 l 257 477 l 194 452 l 63 378 m 89 0 l 288 1000 l 378 1000 l 195 81 l 606 81 l 590 0 l 89 0 z "},"M":{"ha":1094,"x_min":54,"x_max":1096,"o":"m 54 0 l 254 1000 l 328 1000 l 534 326 l 541 326 l 1005 1000 l 1096 1000 l 896 0 l 806 0 l 931 625 l 976 824 l 970 824 l 534 191 l 497 191 l 310 818 l 304 818 l 269 624 l 144 0 l 54 0 z "},"Ṃ":{"ha":1094,"x_min":54,"x_max":1096,"o":"m 54 0 l 254 1000 l 328 1000 l 534 326 l 541 326 l 1005 1000 l 1096 1000 l 896 0 l 806 0 l 931 625 l 976 824 l 970 824 l 534 191 l 497 191 l 310 818 l 304 818 l 269 624 l 144 0 l 54 0 m 458 -241 q 404 -219 426 -241 q 382 -166 382 -197 q 404 -113 382 -135 q 458 -91 426 -91 q 511 -113 489 -91 q 533 -166 533 -135 q 511 -219 533 -197 q 458 -241 489 -241 z "},"N":{"ha":964,"x_min":54,"x_max":966,"o":"m 54 0 l 254 1000 l 323 1000 l 633 318 l 703 166 l 711 166 l 761 421 l 876 1000 l 966 1000 l 767 0 l 697 0 l 385 677 l 315 831 l 309 831 l 261 584 l 144 0 l 54 0 z "},"Ǌ":{"ha":1607,"x_min":54,"x_max":1610,"o":"m 54 0 l 254 1000 l 323 1000 l 633 318 l 703 166 l 711 166 l 761 421 l 876 1000 l 966 1000 l 767 0 l 697 0 l 385 677 l 315 831 l 309 831 l 261 584 l 144 0 l 54 0 m 1196 -11 q 1065 24 1121 -11 q 983 121 1009 59 q 972 262 957 182 l 1059 254 q 1064 157 1048 198 q 1114 93 1080 116 q 1195 70 1149 70 q 1282 98 1246 70 q 1342 177 1318 125 q 1379 298 1365 228 l 1519 1000 l 1610 1000 l 1468 293 q 1370 65 1438 141 q 1196 -11 1301 -11 z "},"Ń":{"ha":964,"x_min":54,"x_max":966,"o":"m 54 0 l 254 1000 l 323 1000 l 633 318 l 703 166 l 711 166 l 761 421 l 876 1000 l 966 1000 l 767 0 l 697 0 l 385 677 l 315 831 l 309 831 l 261 584 l 144 0 l 54 0 m 637 1053 l 583 1100 l 739 1292 l 796 1236 l 637 1053 z "},"Ň":{"ha":964,"x_min":54,"x_max":966,"o":"m 54 0 l 254 1000 l 323 1000 l 633 318 l 703 166 l 711 166 l 761 421 l 876 1000 l 966 1000 l 767 0 l 697 0 l 385 677 l 315 831 l 309 831 l 261 584 l 144 0 l 54 0 m 602 1053 l 433 1204 l 481 1253 l 621 1122 l 629 1122 l 821 1253 l 861 1204 l 631 1053 l 602 1053 z "},"Ņ":{"ha":964,"x_min":54,"x_max":966,"o":"m 54 0 l 254 1000 l 323 1000 l 633 318 l 703 166 l 711 166 l 761 421 l 876 1000 l 966 1000 l 767 0 l 697 0 l 385 677 l 315 831 l 309 831 l 261 584 l 144 0 l 54 0 m 288 -359 l 263 -326 l 334 -273 q 362 -249 350 -261 q 381 -224 374 -237 q 389 -195 389 -211 l 405 -195 q 393 -217 401 -208 q 368 -227 385 -227 q 330 -210 348 -227 q 311 -168 311 -193 q 327 -129 311 -146 q 369 -111 342 -111 q 413 -129 393 -111 q 432 -182 432 -147 q 409 -253 432 -222 q 363 -301 387 -283 l 288 -359 z "},"Ṅ":{"ha":964,"x_min":54,"x_max":966,"o":"m 54 0 l 254 1000 l 323 1000 l 633 318 l 703 166 l 711 166 l 761 421 l 876 1000 l 966 1000 l 767 0 l 697 0 l 385 677 l 315 831 l 309 831 l 261 584 l 144 0 l 54 0 m 649 1074 q 595 1096 617 1074 q 574 1149 574 1118 q 595 1203 574 1181 q 649 1225 617 1225 q 702 1203 680 1225 q 724 1149 724 1181 q 702 1096 724 1118 q 649 1074 680 1074 z "},"Ṇ":{"ha":964,"x_min":54,"x_max":966,"o":"m 54 0 l 254 1000 l 323 1000 l 633 318 l 703 166 l 711 166 l 761 421 l 876 1000 l 966 1000 l 767 0 l 697 0 l 385 677 l 315 831 l 309 831 l 261 584 l 144 0 l 54 0 m 370 -241 q 316 -219 338 -241 q 294 -166 294 -197 q 316 -113 294 -135 q 370 -91 338 -91 q 423 -113 401 -91 q 445 -166 445 -135 q 423 -219 445 -197 q 370 -241 401 -241 z "},"ǋ":{"ha":1282,"x_min":54,"x_max":1324,"o":"m 54 0 l 254 1000 l 323 1000 l 633 318 l 703 166 l 711 166 l 761 421 l 876 1000 l 966 1000 l 767 0 l 697 0 l 385 677 l 315 831 l 309 831 l 261 584 l 144 0 l 54 0 m 873 -297 q 831 -293 852 -297 q 802 -287 811 -290 l 818 -209 q 844 -215 831 -213 q 866 -217 857 -217 q 958 -181 922 -217 q 1006 -87 994 -144 l 1166 715 l 1251 715 l 1090 -98 q 1049 -198 1079 -153 q 976 -270 1020 -243 q 873 -297 931 -297 m 1249 842 q 1195 864 1217 842 q 1173 918 1173 886 q 1195 971 1173 949 q 1249 993 1217 993 q 1302 971 1280 993 q 1324 918 1324 949 q 1302 864 1324 886 q 1249 842 1280 842 z "},"Ṉ":{"ha":964,"x_min":54,"x_max":966,"o":"m 54 0 l 254 1000 l 323 1000 l 633 318 l 703 166 l 711 166 l 761 421 l 876 1000 l 966 1000 l 767 0 l 697 0 l 385 677 l 315 831 l 309 831 l 261 584 l 144 0 l 54 0 m 120 -262 l 132 -201 l 595 -201 l 583 -262 l 120 -262 z "},"Ñ":{"ha":964,"x_min":54,"x_max":966,"o":"m 54 0 l 254 1000 l 323 1000 l 633 318 l 703 166 l 711 166 l 761 421 l 876 1000 l 966 1000 l 767 0 l 697 0 l 385 677 l 315 831 l 309 831 l 261 584 l 144 0 l 54 0 m 479 1074 l 418 1083 q 470 1187 431 1148 q 562 1227 510 1227 q 618 1214 597 1227 q 653 1183 640 1200 q 681 1153 667 1166 q 713 1140 694 1140 q 770 1168 746 1140 q 802 1232 795 1196 l 865 1223 q 812 1119 852 1159 q 719 1079 772 1079 q 665 1092 686 1079 q 630 1122 645 1105 q 600 1152 615 1139 q 562 1165 584 1165 q 511 1139 534 1165 q 479 1074 488 1114 z "},"Ŋ":{"ha":964,"x_min":54,"x_max":966,"o":"m 509 -297 q 441 -289 475 -297 q 375 -263 407 -281 l 401 -186 q 447 -210 417 -200 q 509 -219 477 -219 q 614 -179 575 -219 q 665 -85 653 -138 l 687 25 l 768 0 l 752 -76 q 672 -237 731 -177 q 509 -297 614 -297 m 54 0 l 254 1000 l 323 1000 l 633 318 l 703 166 l 711 166 l 761 421 l 876 1000 l 966 1000 l 767 0 l 697 0 l 385 677 l 315 831 l 309 831 l 261 584 l 144 0 l 54 0 z "},"O":{"ha":1058,"x_min":101,"x_max":1013,"o":"m 505 -9 q 290 50 380 -9 q 150 211 199 109 q 101 439 101 313 q 139 653 101 551 q 247 836 178 756 q 410 963 316 916 q 614 1009 504 1009 q 785 974 711 1009 q 910 877 859 939 q 987 734 961 815 q 1013 562 1013 654 q 975 347 1013 450 q 869 164 937 244 q 707 37 800 83 q 505 -9 614 -9 m 504 72 q 673 113 596 72 q 807 224 751 154 q 894 383 863 294 q 925 567 925 472 q 890 748 925 666 q 785 879 854 830 q 614 928 715 928 q 442 886 519 928 q 307 774 364 845 q 219 615 250 704 q 189 433 189 527 q 226 249 189 330 q 334 119 264 167 q 504 72 405 72 z "},"Ó":{"ha":1058,"x_min":101,"x_max":1013,"o":"m 505 -9 q 290 50 380 -9 q 150 211 199 109 q 101 439 101 313 q 139 653 101 551 q 247 836 178 756 q 410 963 316 916 q 614 1009 504 1009 q 785 974 711 1009 q 910 877 859 939 q 987 734 961 815 q 1013 562 1013 654 q 975 347 1013 450 q 869 164 937 244 q 707 37 800 83 q 505 -9 614 -9 m 504 72 q 673 113 596 72 q 807 224 751 154 q 894 383 863 294 q 925 567 925 472 q 890 748 925 666 q 785 879 854 830 q 614 928 715 928 q 442 886 519 928 q 307 774 364 845 q 219 615 250 704 q 189 433 189 527 q 226 249 189 330 q 334 119 264 167 q 504 72 405 72 m 674 1053 l 620 1100 l 776 1292 l 833 1236 l 674 1053 z "},"Ŏ":{"ha":1058,"x_min":101,"x_max":1013,"o":"m 505 -9 q 290 50 380 -9 q 150 211 199 109 q 101 439 101 313 q 139 653 101 551 q 247 836 178 756 q 410 963 316 916 q 614 1009 504 1009 q 785 974 711 1009 q 910 877 859 939 q 987 734 961 815 q 1013 562 1013 654 q 975 347 1013 450 q 869 164 937 244 q 707 37 800 83 q 505 -9 614 -9 m 504 72 q 673 113 596 72 q 807 224 751 154 q 894 383 863 294 q 925 567 925 472 q 890 748 925 666 q 785 879 854 830 q 614 928 715 928 q 442 886 519 928 q 307 774 364 845 q 219 615 250 704 q 189 433 189 527 q 226 249 189 330 q 334 119 264 167 q 504 72 405 72 m 664 1057 q 560 1081 604 1057 q 497 1147 517 1106 q 488 1234 478 1187 l 548 1225 q 554 1166 541 1190 q 598 1128 568 1141 q 665 1116 627 1116 q 782 1149 732 1116 q 840 1234 831 1182 l 902 1225 q 857 1136 893 1173 q 769 1078 821 1098 q 664 1057 718 1057 z "},"Ô":{"ha":1058,"x_min":101,"x_max":1013,"o":"m 505 -9 q 290 50 380 -9 q 150 211 199 109 q 101 439 101 313 q 139 653 101 551 q 247 836 178 756 q 410 963 316 916 q 614 1009 504 1009 q 785 974 711 1009 q 910 877 859 939 q 987 734 961 815 q 1013 562 1013 654 q 975 347 1013 450 q 869 164 937 244 q 707 37 800 83 q 505 -9 614 -9 m 504 72 q 673 113 596 72 q 807 224 751 154 q 894 383 863 294 q 925 567 925 472 q 890 748 925 666 q 785 879 854 830 q 614 928 715 928 q 442 886 519 928 q 307 774 364 845 q 219 615 250 704 q 189 433 189 527 q 226 249 189 330 q 334 119 264 167 q 504 72 405 72 m 497 1053 l 456 1103 l 686 1253 l 715 1253 l 884 1103 l 836 1053 l 696 1185 l 688 1185 l 497 1053 z "},"Ố":{"ha":1058,"x_min":101,"x_max":1059,"o":"m 505 -9 q 290 50 380 -9 q 150 211 199 109 q 101 439 101 313 q 139 653 101 551 q 247 836 178 756 q 410 963 316 916 q 614 1009 504 1009 q 785 974 711 1009 q 910 877 859 939 q 987 734 961 815 q 1013 562 1013 654 q 975 347 1013 450 q 869 164 937 244 q 707 37 800 83 q 505 -9 614 -9 m 504 72 q 673 113 596 72 q 807 224 751 154 q 894 383 863 294 q 925 567 925 472 q 890 748 925 666 q 785 879 854 830 q 614 928 715 928 q 442 886 519 928 q 307 774 364 845 q 219 615 250 704 q 189 433 189 527 q 226 249 189 330 q 334 119 264 167 q 504 72 405 72 m 834 1190 l 795 1228 l 1018 1416 l 1059 1358 l 834 1190 m 490 1044 l 450 1092 l 677 1244 l 707 1244 l 878 1092 l 829 1044 l 687 1174 l 681 1174 l 490 1044 z "},"Ộ":{"ha":1058,"x_min":101,"x_max":1013,"o":"m 505 -9 q 290 50 380 -9 q 150 211 199 109 q 101 439 101 313 q 139 653 101 551 q 247 836 178 756 q 410 963 316 916 q 614 1009 504 1009 q 785 974 711 1009 q 910 877 859 939 q 987 734 961 815 q 1013 562 1013 654 q 975 347 1013 450 q 869 164 937 244 q 707 37 800 83 q 505 -9 614 -9 m 504 72 q 673 113 596 72 q 807 224 751 154 q 894 383 863 294 q 925 567 925 472 q 890 748 925 666 q 785 879 854 830 q 614 928 715 928 q 442 886 519 928 q 307 774 364 845 q 219 615 250 704 q 189 433 189 527 q 226 249 189 330 q 334 119 264 167 q 504 72 405 72 m 450 -241 q 396 -219 418 -241 q 374 -166 374 -197 q 396 -113 374 -135 q 450 -91 418 -91 q 503 -113 481 -91 q 525 -166 525 -135 q 503 -219 525 -197 q 450 -241 481 -241 m 519 1054 l 479 1104 l 708 1254 l 737 1254 l 906 1104 l 858 1054 l 719 1185 l 711 1185 l 519 1054 z "},"Ồ":{"ha":1058,"x_min":101,"x_max":1013,"o":"m 505 -9 q 290 50 380 -9 q 150 211 199 109 q 101 439 101 313 q 139 653 101 551 q 247 836 178 756 q 410 963 316 916 q 614 1009 504 1009 q 785 974 711 1009 q 910 877 859 939 q 987 734 961 815 q 1013 562 1013 654 q 975 347 1013 450 q 869 164 937 244 q 707 37 800 83 q 505 -9 614 -9 m 504 72 q 673 113 596 72 q 807 224 751 154 q 894 383 863 294 q 925 567 925 472 q 890 748 925 666 q 785 879 854 830 q 614 928 715 928 q 442 886 519 928 q 307 774 364 845 q 219 615 250 704 q 189 433 189 527 q 226 249 189 330 q 334 119 264 167 q 504 72 405 72 m 513 1185 l 367 1376 l 424 1421 l 564 1218 l 513 1185 m 492 1040 l 453 1088 l 679 1240 l 709 1240 l 880 1088 l 831 1040 l 689 1170 l 683 1170 l 492 1040 z "},"Ổ":{"ha":1058,"x_min":101,"x_max":1013,"o":"m 505 -9 q 290 50 380 -9 q 150 211 199 109 q 101 439 101 313 q 139 653 101 551 q 247 836 178 756 q 410 963 316 916 q 614 1009 504 1009 q 785 974 711 1009 q 910 877 859 939 q 987 734 961 815 q 1013 562 1013 654 q 975 347 1013 450 q 869 164 937 244 q 707 37 800 83 q 505 -9 614 -9 m 504 72 q 673 113 596 72 q 807 224 751 154 q 894 383 863 294 q 925 567 925 472 q 890 748 925 666 q 785 879 854 830 q 614 928 715 928 q 442 886 519 928 q 307 774 364 845 q 219 615 250 704 q 189 433 189 527 q 226 249 189 330 q 334 119 264 167 q 504 72 405 72 m 831 1182 l 787 1220 q 836 1262 815 1238 q 861 1310 857 1287 q 852 1345 867 1333 q 804 1357 838 1357 q 765 1355 788 1357 q 724 1346 743 1352 l 730 1407 q 769 1416 748 1413 q 808 1418 791 1418 q 905 1388 876 1418 q 925 1310 935 1358 q 889 1238 918 1272 q 831 1182 861 1203 m 491 1044 l 451 1092 l 677 1244 l 707 1244 l 878 1092 l 830 1044 l 688 1174 l 682 1174 l 491 1044 z "},"Ỗ":{"ha":1058,"x_min":101,"x_max":1013,"o":"m 505 -9 q 290 50 380 -9 q 150 211 199 109 q 101 439 101 313 q 139 653 101 551 q 247 836 178 756 q 410 963 316 916 q 614 1009 504 1009 q 785 974 711 1009 q 910 877 859 939 q 987 734 961 815 q 1013 562 1013 654 q 975 347 1013 450 q 869 164 937 244 q 707 37 800 83 q 505 -9 614 -9 m 504 72 q 673 113 596 72 q 807 224 751 154 q 894 383 863 294 q 925 567 925 472 q 890 748 925 666 q 785 879 854 830 q 614 928 715 928 q 442 886 519 928 q 307 774 364 845 q 219 615 250 704 q 189 433 189 527 q 226 249 189 330 q 334 119 264 167 q 504 72 405 72 m 535 1279 l 473 1286 q 525 1387 486 1351 q 618 1422 564 1422 q 672 1410 651 1422 q 708 1382 693 1398 q 738 1355 724 1367 q 773 1343 753 1343 q 826 1366 803 1343 q 855 1428 848 1390 l 920 1420 q 892 1347 913 1379 q 841 1298 871 1316 q 775 1280 811 1280 q 723 1293 743 1280 q 686 1321 702 1305 q 653 1350 670 1337 q 615 1362 637 1362 q 567 1341 590 1362 q 535 1279 545 1320 m 492 1044 l 452 1092 l 678 1244 l 708 1244 l 879 1092 l 831 1044 l 688 1174 l 682 1174 l 492 1044 z "},"Ȍ":{"ha":1058,"x_min":101,"x_max":1013,"o":"m 505 -9 q 290 50 380 -9 q 150 211 199 109 q 101 439 101 313 q 139 653 101 551 q 247 836 178 756 q 410 963 316 916 q 614 1009 504 1009 q 785 974 711 1009 q 910 877 859 939 q 987 734 961 815 q 1013 562 1013 654 q 975 347 1013 450 q 869 164 937 244 q 707 37 800 83 q 505 -9 614 -9 m 504 72 q 673 113 596 72 q 807 224 751 154 q 894 383 863 294 q 925 567 925 472 q 890 748 925 666 q 785 879 854 830 q 614 928 715 928 q 442 886 519 928 q 307 774 364 845 q 219 615 250 704 q 189 433 189 527 q 226 249 189 330 q 334 119 264 167 q 504 72 405 72 m 532 1079 l 429 1294 l 502 1331 l 585 1103 l 532 1079 m 742 1079 l 645 1294 l 718 1331 l 798 1103 l 742 1079 z "},"Ö":{"ha":1058,"x_min":101,"x_max":1013,"o":"m 505 -9 q 290 50 380 -9 q 150 211 199 109 q 101 439 101 313 q 139 653 101 551 q 247 836 178 756 q 410 963 316 916 q 614 1009 504 1009 q 785 974 711 1009 q 910 877 859 939 q 987 734 961 815 q 1013 562 1013 654 q 975 347 1013 450 q 869 164 937 244 q 707 37 800 83 q 505 -9 614 -9 m 504 72 q 673 113 596 72 q 807 224 751 154 q 894 383 863 294 q 925 567 925 472 q 890 748 925 666 q 785 879 854 830 q 614 928 715 928 q 442 886 519 928 q 307 774 364 845 q 219 615 250 704 q 189 433 189 527 q 226 249 189 330 q 334 119 264 167 q 504 72 405 72 m 821 1078 q 768 1099 790 1078 q 746 1150 746 1120 q 766 1202 746 1181 q 818 1222 787 1222 q 869 1201 848 1222 q 890 1147 890 1181 q 871 1097 890 1117 q 821 1078 851 1078 m 536 1078 q 485 1099 507 1078 q 464 1150 464 1120 q 483 1202 464 1181 q 532 1222 503 1222 q 586 1200 565 1222 q 608 1147 608 1178 q 588 1098 608 1118 q 536 1078 568 1078 z "},"Ȫ":{"ha":1058,"x_min":101,"x_max":1013,"o":"m 505 -9 q 290 50 380 -9 q 150 211 199 109 q 101 439 101 313 q 139 653 101 551 q 247 836 178 756 q 410 963 316 916 q 614 1009 504 1009 q 785 974 711 1009 q 910 877 859 939 q 987 734 961 815 q 1013 562 1013 654 q 975 347 1013 450 q 869 164 937 244 q 707 37 800 83 q 505 -9 614 -9 m 504 72 q 673 113 596 72 q 807 224 751 154 q 894 383 863 294 q 925 567 925 472 q 890 748 925 666 q 785 879 854 830 q 614 928 715 928 q 442 886 519 928 q 307 774 364 845 q 219 615 250 704 q 189 433 189 527 q 226 249 189 330 q 334 119 264 167 q 504 72 405 72 m 821 1078 q 768 1099 790 1078 q 746 1150 746 1120 q 766 1202 746 1181 q 818 1222 787 1222 q 869 1201 848 1222 q 890 1147 890 1181 q 871 1097 890 1117 q 821 1078 851 1078 m 536 1078 q 485 1099 507 1078 q 464 1150 464 1120 q 483 1202 464 1181 q 532 1222 503 1222 q 586 1200 565 1222 q 608 1147 608 1178 q 588 1098 608 1118 q 536 1078 568 1078 m 467 1287 l 479 1354 l 957 1354 l 945 1287 l 467 1287 z "},"Ȱ":{"ha":1058,"x_min":101,"x_max":1013,"o":"m 505 -9 q 290 50 380 -9 q 150 211 199 109 q 101 439 101 313 q 139 653 101 551 q 247 836 178 756 q 410 963 316 916 q 614 1009 504 1009 q 785 974 711 1009 q 910 877 859 939 q 987 734 961 815 q 1013 562 1013 654 q 975 347 1013 450 q 869 164 937 244 q 707 37 800 83 q 505 -9 614 -9 m 504 72 q 673 113 596 72 q 807 224 751 154 q 894 383 863 294 q 925 567 925 472 q 890 748 925 666 q 785 879 854 830 q 614 928 715 928 q 442 886 519 928 q 307 774 364 845 q 219 615 250 704 q 189 433 189 527 q 226 249 189 330 q 334 119 264 167 q 504 72 405 72 m 686 1074 q 633 1096 654 1074 q 611 1149 611 1118 q 633 1203 611 1181 q 686 1225 654 1225 q 740 1203 718 1225 q 762 1149 762 1181 q 740 1096 762 1118 q 686 1074 718 1074 m 477 1287 l 488 1354 l 966 1354 l 954 1287 l 477 1287 z "},"Ọ":{"ha":1058,"x_min":101,"x_max":1013,"o":"m 505 -9 q 290 50 380 -9 q 150 211 199 109 q 101 439 101 313 q 139 653 101 551 q 247 836 178 756 q 410 963 316 916 q 614 1009 504 1009 q 785 974 711 1009 q 910 877 859 939 q 987 734 961 815 q 1013 562 1013 654 q 975 347 1013 450 q 869 164 937 244 q 707 37 800 83 q 505 -9 614 -9 m 504 72 q 673 113 596 72 q 807 224 751 154 q 894 383 863 294 q 925 567 925 472 q 890 748 925 666 q 785 879 854 830 q 614 928 715 928 q 442 886 519 928 q 307 774 364 845 q 219 615 250 704 q 189 433 189 527 q 226 249 189 330 q 334 119 264 167 q 504 72 405 72 m 436 -241 q 382 -219 404 -241 q 361 -166 361 -197 q 382 -113 361 -135 q 436 -91 404 -91 q 489 -113 467 -91 q 511 -166 511 -135 q 489 -219 511 -197 q 436 -241 467 -241 z "},"Ò":{"ha":1058,"x_min":101,"x_max":1013,"o":"m 505 -9 q 290 50 380 -9 q 150 211 199 109 q 101 439 101 313 q 139 653 101 551 q 247 836 178 756 q 410 963 316 916 q 614 1009 504 1009 q 785 974 711 1009 q 910 877 859 939 q 987 734 961 815 q 1013 562 1013 654 q 975 347 1013 450 q 869 164 937 244 q 707 37 800 83 q 505 -9 614 -9 m 504 72 q 673 113 596 72 q 807 224 751 154 q 894 383 863 294 q 925 567 925 472 q 890 748 925 666 q 785 879 854 830 q 614 928 715 928 q 442 886 519 928 q 307 774 364 845 q 219 615 250 704 q 189 433 189 527 q 226 249 189 330 q 334 119 264 167 q 504 72 405 72 m 660 1053 l 491 1236 l 545 1292 l 711 1100 l 660 1053 z "},"Ỏ":{"ha":1058,"x_min":101,"x_max":1013,"o":"m 505 -9 q 290 50 380 -9 q 150 211 199 109 q 101 439 101 313 q 139 653 101 551 q 247 836 178 756 q 410 963 316 916 q 614 1009 504 1009 q 785 974 711 1009 q 910 877 859 939 q 987 734 961 815 q 1013 562 1013 654 q 975 347 1013 450 q 869 164 937 244 q 707 37 800 83 q 505 -9 614 -9 m 504 72 q 673 113 596 72 q 807 224 751 154 q 894 383 863 294 q 925 567 925 472 q 890 748 925 666 q 785 879 854 830 q 614 928 715 928 q 442 886 519 928 q 307 774 364 845 q 219 615 250 704 q 189 433 189 527 q 226 249 189 330 q 334 119 264 167 q 504 72 405 72 m 679 1084 l 646 1128 q 701 1166 679 1143 q 727 1212 722 1189 q 718 1249 732 1236 q 672 1262 703 1262 q 628 1257 651 1262 q 587 1246 604 1253 l 594 1310 q 637 1319 616 1316 q 677 1322 658 1322 q 769 1291 742 1322 q 787 1211 797 1259 q 749 1138 779 1172 q 679 1084 719 1104 z "},"Ơ":{"ha":1058,"x_min":101,"x_max":1082,"o":"m 505 -9 q 290 50 380 -9 q 150 211 199 109 q 101 439 101 313 q 139 653 101 551 q 247 836 178 756 q 410 963 316 916 q 614 1009 504 1009 q 785 974 711 1009 q 910 877 859 939 q 987 734 961 815 q 1013 562 1013 654 q 975 347 1013 450 q 869 164 937 244 q 707 37 800 83 q 505 -9 614 -9 m 504 72 q 673 113 596 72 q 807 224 751 154 q 894 383 863 294 q 925 567 925 472 q 890 748 925 666 q 785 879 854 830 q 614 928 715 928 q 442 886 519 928 q 307 774 364 845 q 219 615 250 704 q 189 433 189 527 q 226 249 189 330 q 334 119 264 167 q 504 72 405 72 m 804 895 l 810 958 q 934 998 882 958 q 1002 1109 987 1038 q 1006 1144 1005 1126 q 1007 1174 1007 1163 l 1078 1177 q 1079 1135 1082 1160 q 1072 1087 1077 1110 q 1038 1006 1063 1042 q 977 944 1013 970 q 896 906 940 919 q 804 895 852 893 z "},"Ớ":{"ha":1058,"x_min":101,"x_max":1082,"o":"m 505 -9 q 290 50 380 -9 q 150 211 199 109 q 101 439 101 313 q 139 653 101 551 q 247 836 178 756 q 410 963 316 916 q 614 1009 504 1009 q 785 974 711 1009 q 910 877 859 939 q 987 734 961 815 q 1013 562 1013 654 q 975 347 1013 450 q 869 164 937 244 q 707 37 800 83 q 505 -9 614 -9 m 504 72 q 673 113 596 72 q 807 224 751 154 q 894 383 863 294 q 925 567 925 472 q 890 748 925 666 q 785 879 854 830 q 614 928 715 928 q 442 886 519 928 q 307 774 364 845 q 219 615 250 704 q 189 433 189 527 q 226 249 189 330 q 334 119 264 167 q 504 72 405 72 m 804 895 l 810 958 q 934 998 882 958 q 1002 1109 987 1038 q 1006 1144 1005 1126 q 1007 1174 1007 1163 l 1078 1177 q 1079 1135 1082 1160 q 1072 1087 1077 1110 q 1038 1006 1063 1042 q 977 944 1013 970 q 896 906 940 919 q 804 895 852 893 m 674 1053 l 620 1100 l 776 1292 l 833 1236 l 674 1053 z "},"Ợ":{"ha":1058,"x_min":101,"x_max":1082,"o":"m 505 -9 q 290 50 380 -9 q 150 211 199 109 q 101 439 101 313 q 139 653 101 551 q 247 836 178 756 q 410 963 316 916 q 614 1009 504 1009 q 785 974 711 1009 q 910 877 859 939 q 987 734 961 815 q 1013 562 1013 654 q 975 347 1013 450 q 869 164 937 244 q 707 37 800 83 q 505 -9 614 -9 m 504 72 q 673 113 596 72 q 807 224 751 154 q 894 383 863 294 q 925 567 925 472 q 890 748 925 666 q 785 879 854 830 q 614 928 715 928 q 442 886 519 928 q 307 774 364 845 q 219 615 250 704 q 189 433 189 527 q 226 249 189 330 q 334 119 264 167 q 504 72 405 72 m 804 895 l 810 958 q 934 998 882 958 q 1002 1109 987 1038 q 1006 1144 1005 1126 q 1007 1174 1007 1163 l 1078 1177 q 1079 1135 1082 1160 q 1072 1087 1077 1110 q 1038 1006 1063 1042 q 977 944 1013 970 q 896 906 940 919 q 804 895 852 893 m 450 -241 q 396 -219 418 -241 q 374 -166 374 -197 q 396 -113 374 -135 q 450 -91 418 -91 q 503 -113 481 -91 q 525 -166 525 -135 q 503 -219 525 -197 q 450 -241 481 -241 z "},"Ờ":{"ha":1058,"x_min":101,"x_max":1082,"o":"m 505 -9 q 290 50 380 -9 q 150 211 199 109 q 101 439 101 313 q 139 653 101 551 q 247 836 178 756 q 410 963 316 916 q 614 1009 504 1009 q 785 974 711 1009 q 910 877 859 939 q 987 734 961 815 q 1013 562 1013 654 q 975 347 1013 450 q 869 164 937 244 q 707 37 800 83 q 505 -9 614 -9 m 504 72 q 673 113 596 72 q 807 224 751 154 q 894 383 863 294 q 925 567 925 472 q 890 748 925 666 q 785 879 854 830 q 614 928 715 928 q 442 886 519 928 q 307 774 364 845 q 219 615 250 704 q 189 433 189 527 q 226 249 189 330 q 334 119 264 167 q 504 72 405 72 m 804 895 l 810 958 q 934 998 882 958 q 1002 1109 987 1038 q 1006 1144 1005 1126 q 1007 1174 1007 1163 l 1078 1177 q 1079 1135 1082 1160 q 1072 1087 1077 1110 q 1038 1006 1063 1042 q 977 944 1013 970 q 896 906 940 919 q 804 895 852 893 m 660 1053 l 491 1236 l 545 1292 l 711 1100 l 660 1053 z "},"Ở":{"ha":1058,"x_min":101,"x_max":1082,"o":"m 505 -9 q 290 50 380 -9 q 150 211 199 109 q 101 439 101 313 q 139 653 101 551 q 247 836 178 756 q 410 963 316 916 q 614 1009 504 1009 q 785 974 711 1009 q 910 877 859 939 q 987 734 961 815 q 1013 562 1013 654 q 975 347 1013 450 q 869 164 937 244 q 707 37 800 83 q 505 -9 614 -9 m 504 72 q 673 113 596 72 q 807 224 751 154 q 894 383 863 294 q 925 567 925 472 q 890 748 925 666 q 785 879 854 830 q 614 928 715 928 q 442 886 519 928 q 307 774 364 845 q 219 615 250 704 q 189 433 189 527 q 226 249 189 330 q 334 119 264 167 q 504 72 405 72 m 804 895 l 810 958 q 934 998 882 958 q 1002 1109 987 1038 q 1006 1144 1005 1126 q 1007 1174 1007 1163 l 1078 1177 q 1079 1135 1082 1160 q 1072 1087 1077 1110 q 1038 1006 1063 1042 q 977 944 1013 970 q 896 906 940 919 q 804 895 852 893 m 679 1084 l 646 1128 q 701 1166 679 1143 q 727 1212 722 1189 q 718 1249 732 1236 q 672 1262 703 1262 q 628 1257 651 1262 q 587 1246 604 1253 l 594 1310 q 637 1319 616 1316 q 677 1322 658 1322 q 769 1291 742 1322 q 787 1211 797 1259 q 749 1138 779 1172 q 679 1084 719 1104 z "},"Ỡ":{"ha":1058,"x_min":101,"x_max":1082,"o":"m 505 -9 q 290 50 380 -9 q 150 211 199 109 q 101 439 101 313 q 139 653 101 551 q 247 836 178 756 q 410 963 316 916 q 614 1009 504 1009 q 785 974 711 1009 q 910 877 859 939 q 987 734 961 815 q 1013 562 1013 654 q 975 347 1013 450 q 869 164 937 244 q 707 37 800 83 q 505 -9 614 -9 m 504 72 q 673 113 596 72 q 807 224 751 154 q 894 383 863 294 q 925 567 925 472 q 890 748 925 666 q 785 879 854 830 q 614 928 715 928 q 442 886 519 928 q 307 774 364 845 q 219 615 250 704 q 189 433 189 527 q 226 249 189 330 q 334 119 264 167 q 504 72 405 72 m 804 895 l 810 958 q 934 998 882 958 q 1002 1109 987 1038 q 1006 1144 1005 1126 q 1007 1174 1007 1163 l 1078 1177 q 1079 1135 1082 1160 q 1072 1087 1077 1110 q 1038 1006 1063 1042 q 977 944 1013 970 q 896 906 940 919 q 804 895 852 893 m 516 1074 l 455 1083 q 508 1187 468 1148 q 600 1227 547 1227 q 656 1214 635 1227 q 691 1183 677 1200 q 718 1153 705 1166 q 751 1140 731 1140 q 808 1168 783 1140 q 839 1232 832 1196 l 902 1223 q 849 1119 889 1159 q 756 1079 810 1079 q 703 1092 723 1079 q 667 1122 682 1105 q 637 1152 652 1139 q 599 1165 621 1165 q 549 1139 572 1165 q 516 1074 526 1114 z "},"Ő":{"ha":1058,"x_min":101,"x_max":1013,"o":"m 505 -9 q 290 50 380 -9 q 150 211 199 109 q 101 439 101 313 q 139 653 101 551 q 247 836 178 756 q 410 963 316 916 q 614 1009 504 1009 q 785 974 711 1009 q 910 877 859 939 q 987 734 961 815 q 1013 562 1013 654 q 975 347 1013 450 q 869 164 937 244 q 707 37 800 83 q 505 -9 614 -9 m 504 72 q 673 113 596 72 q 807 224 751 154 q 894 383 863 294 q 925 567 925 472 q 890 748 925 666 q 785 879 854 830 q 614 928 715 928 q 442 886 519 928 q 307 774 364 845 q 219 615 250 704 q 189 433 189 527 q 226 249 189 330 q 334 119 264 167 q 504 72 405 72 m 584 1079 l 538 1102 l 711 1330 l 767 1294 l 584 1079 m 797 1079 l 753 1102 l 924 1330 l 980 1294 l 797 1079 z "},"Ȏ":{"ha":1058,"x_min":101,"x_max":1013,"o":"m 505 -9 q 290 50 380 -9 q 150 211 199 109 q 101 439 101 313 q 139 653 101 551 q 247 836 178 756 q 410 963 316 916 q 614 1009 504 1009 q 785 974 711 1009 q 910 877 859 939 q 987 734 961 815 q 1013 562 1013 654 q 975 347 1013 450 q 869 164 937 244 q 707 37 800 83 q 505 -9 614 -9 m 504 72 q 673 113 596 72 q 807 224 751 154 q 894 383 863 294 q 925 567 925 472 q 890 748 925 666 q 785 879 854 830 q 614 928 715 928 q 442 886 519 928 q 307 774 364 845 q 219 615 250 704 q 189 433 189 527 q 226 249 189 330 q 334 119 264 167 q 504 72 405 72 m 866 1050 l 806 1059 q 782 1141 817 1108 q 684 1173 747 1173 q 572 1139 620 1173 q 513 1053 524 1105 l 452 1062 q 498 1151 463 1114 q 583 1209 533 1188 q 687 1230 633 1230 q 793 1205 749 1231 q 858 1138 838 1180 q 866 1050 878 1097 z "},"Ō":{"ha":1058,"x_min":101,"x_max":1013,"o":"m 505 -9 q 290 50 380 -9 q 150 211 199 109 q 101 439 101 313 q 139 653 101 551 q 247 836 178 756 q 410 963 316 916 q 614 1009 504 1009 q 785 974 711 1009 q 910 877 859 939 q 987 734 961 815 q 1013 562 1013 654 q 975 347 1013 450 q 869 164 937 244 q 707 37 800 83 q 505 -9 614 -9 m 504 72 q 673 113 596 72 q 807 224 751 154 q 894 383 863 294 q 925 567 925 472 q 890 748 925 666 q 785 879 854 830 q 614 928 715 928 q 442 886 519 928 q 307 774 364 845 q 219 615 250 704 q 189 433 189 527 q 226 249 189 330 q 334 119 264 167 q 504 72 405 72 m 434 1115 l 446 1181 l 924 1181 l 911 1115 l 434 1115 z "},"Ṓ":{"ha":1058,"x_min":101,"x_max":1013,"o":"m 458 1115 l 470 1181 l 947 1181 l 936 1115 l 458 1115 m 735 1234 l 680 1281 l 837 1473 l 894 1417 l 735 1234 m 505 -9 q 290 50 380 -9 q 150 211 199 109 q 101 439 101 313 q 139 653 101 551 q 247 836 178 756 q 410 963 316 916 q 614 1009 504 1009 q 785 974 711 1009 q 910 877 859 939 q 987 734 961 815 q 1013 562 1013 654 q 975 347 1013 450 q 869 164 937 244 q 707 37 800 83 q 505 -9 614 -9 m 504 72 q 673 113 596 72 q 807 224 751 154 q 894 383 863 294 q 925 567 925 472 q 890 748 925 666 q 785 879 854 830 q 614 928 715 928 q 442 886 519 928 q 307 774 364 845 q 219 615 250 704 q 189 433 189 527 q 226 249 189 330 q 334 119 264 167 q 504 72 405 72 z "},"Ṑ":{"ha":1058,"x_min":101,"x_max":1013,"o":"m 505 -9 q 290 50 380 -9 q 150 211 199 109 q 101 439 101 313 q 139 653 101 551 q 247 836 178 756 q 410 963 316 916 q 614 1009 504 1009 q 785 974 711 1009 q 910 877 859 939 q 987 734 961 815 q 1013 562 1013 654 q 975 347 1013 450 q 869 164 937 244 q 707 37 800 83 q 505 -9 614 -9 m 504 72 q 673 113 596 72 q 807 224 751 154 q 894 383 863 294 q 925 567 925 472 q 890 748 925 666 q 785 879 854 830 q 614 928 715 928 q 442 886 519 928 q 307 774 364 845 q 219 615 250 704 q 189 433 189 527 q 226 249 189 330 q 334 119 264 167 q 504 72 405 72 m 434 1115 l 446 1181 l 924 1181 l 911 1115 l 434 1115 m 696 1234 l 527 1417 l 581 1473 l 747 1281 l 696 1234 z "},"Ǫ":{"ha":1058,"x_min":101,"x_max":1013,"o":"m 505 -9 q 290 50 380 -9 q 150 211 199 109 q 101 439 101 313 q 139 653 101 551 q 247 836 178 756 q 410 963 316 916 q 614 1009 504 1009 q 785 974 711 1009 q 910 877 859 939 q 987 734 961 815 q 1013 562 1013 654 q 975 347 1013 450 q 869 164 937 244 q 707 37 800 83 q 505 -9 614 -9 m 504 72 q 673 113 596 72 q 807 224 751 154 q 894 383 863 294 q 925 567 925 472 q 890 748 925 666 q 785 879 854 830 q 614 928 715 928 q 442 886 519 928 q 307 774 364 845 q 219 615 250 704 q 189 433 189 527 q 226 249 189 330 q 334 119 264 167 q 504 72 405 72 m 473 -269 q 396 -237 421 -269 q 380 -155 370 -204 q 438 -59 392 -101 q 544 24 484 -17 l 593 0 q 530 -50 564 -24 q 471 -103 496 -76 q 440 -159 446 -130 q 448 -197 435 -184 q 487 -210 461 -210 q 539 -199 513 -210 q 579 -181 566 -189 l 569 -246 q 523 -262 551 -256 q 473 -269 495 -269 z "},"Ø":{"ha":1058,"x_min":1,"x_max":1113,"o":"m 505 -9 q 290 50 380 -9 q 150 211 199 109 q 101 439 101 313 q 139 653 101 551 q 247 836 178 756 q 410 963 316 916 q 614 1009 504 1009 q 785 974 711 1009 q 910 877 859 939 q 987 734 961 815 q 1013 562 1013 654 q 975 347 1013 450 q 869 164 937 244 q 707 37 800 83 q 505 -9 614 -9 m 504 72 q 673 113 596 72 q 807 224 751 154 q 894 383 863 294 q 925 567 925 472 q 890 748 925 666 q 785 879 854 830 q 614 928 715 928 q 442 886 519 928 q 307 774 364 845 q 219 615 250 704 q 189 433 189 527 q 226 249 189 330 q 334 119 264 167 q 504 72 405 72 m 48 -7 l 1 41 l 1066 1006 l 1113 959 l 48 -7 z "},"Ǿ":{"ha":1058,"x_min":1,"x_max":1113,"o":"m 505 -9 q 290 50 380 -9 q 150 211 199 109 q 101 439 101 313 q 139 653 101 551 q 247 836 178 756 q 410 963 316 916 q 614 1009 504 1009 q 785 974 711 1009 q 910 877 859 939 q 987 734 961 815 q 1013 562 1013 654 q 975 347 1013 450 q 869 164 937 244 q 707 37 800 83 q 505 -9 614 -9 m 504 72 q 673 113 596 72 q 807 224 751 154 q 894 383 863 294 q 925 567 925 472 q 890 748 925 666 q 785 879 854 830 q 614 928 715 928 q 442 886 519 928 q 307 774 364 845 q 219 615 250 704 q 189 433 189 527 q 226 249 189 330 q 334 119 264 167 q 504 72 405 72 m 48 -7 l 1 41 l 1066 1006 l 1113 959 l 48 -7 m 674 1053 l 620 1100 l 776 1292 l 833 1236 l 674 1053 z "},"Õ":{"ha":1058,"x_min":101,"x_max":1013,"o":"m 505 -9 q 290 50 380 -9 q 150 211 199 109 q 101 439 101 313 q 139 653 101 551 q 247 836 178 756 q 410 963 316 916 q 614 1009 504 1009 q 785 974 711 1009 q 910 877 859 939 q 987 734 961 815 q 1013 562 1013 654 q 975 347 1013 450 q 869 164 937 244 q 707 37 800 83 q 505 -9 614 -9 m 504 72 q 673 113 596 72 q 807 224 751 154 q 894 383 863 294 q 925 567 925 472 q 890 748 925 666 q 785 879 854 830 q 614 928 715 928 q 442 886 519 928 q 307 774 364 845 q 219 615 250 704 q 189 433 189 527 q 226 249 189 330 q 334 119 264 167 q 504 72 405 72 m 516 1074 l 455 1083 q 508 1187 468 1148 q 600 1227 547 1227 q 656 1214 635 1227 q 691 1183 677 1200 q 718 1153 705 1166 q 751 1140 731 1140 q 808 1168 783 1140 q 839 1232 832 1196 l 902 1223 q 849 1119 889 1159 q 756 1079 810 1079 q 703 1092 723 1079 q 667 1122 682 1105 q 637 1152 652 1139 q 599 1165 621 1165 q 549 1139 572 1165 q 516 1074 526 1114 z "},"Ṍ":{"ha":1058,"x_min":101,"x_max":1013,"o":"m 505 -9 q 290 50 380 -9 q 150 211 199 109 q 101 439 101 313 q 139 653 101 551 q 247 836 178 756 q 410 963 316 916 q 614 1009 504 1009 q 785 974 711 1009 q 910 877 859 939 q 987 734 961 815 q 1013 562 1013 654 q 975 347 1013 450 q 869 164 937 244 q 707 37 800 83 q 505 -9 614 -9 m 504 72 q 673 113 596 72 q 807 224 751 154 q 894 383 863 294 q 925 567 925 472 q 890 748 925 666 q 785 879 854 830 q 614 928 715 928 q 442 886 519 928 q 307 774 364 845 q 219 615 250 704 q 189 433 189 527 q 226 249 189 330 q 334 119 264 167 q 504 72 405 72 m 516 1074 l 455 1083 q 508 1187 468 1148 q 600 1227 547 1227 q 656 1214 635 1227 q 691 1183 677 1200 q 718 1153 705 1166 q 751 1140 731 1140 q 808 1168 783 1140 q 839 1232 832 1196 l 902 1223 q 849 1119 889 1159 q 756 1079 810 1079 q 703 1092 723 1079 q 667 1122 682 1105 q 637 1152 652 1139 q 599 1165 621 1165 q 549 1139 572 1165 q 516 1074 526 1114 m 715 1260 l 661 1308 l 817 1499 l 875 1443 l 715 1260 z "},"Ṏ":{"ha":1058,"x_min":101,"x_max":1013,"o":"m 505 -9 q 290 50 380 -9 q 150 211 199 109 q 101 439 101 313 q 139 653 101 551 q 247 836 178 756 q 410 963 316 916 q 614 1009 504 1009 q 785 974 711 1009 q 910 877 859 939 q 987 734 961 815 q 1013 562 1013 654 q 975 347 1013 450 q 869 164 937 244 q 707 37 800 83 q 505 -9 614 -9 m 504 72 q 673 113 596 72 q 807 224 751 154 q 894 383 863 294 q 925 567 925 472 q 890 748 925 666 q 785 879 854 830 q 614 928 715 928 q 442 886 519 928 q 307 774 364 845 q 219 615 250 704 q 189 433 189 527 q 226 249 189 330 q 334 119 264 167 q 504 72 405 72 m 516 1074 l 455 1083 q 508 1187 468 1148 q 600 1227 547 1227 q 656 1214 635 1227 q 691 1183 677 1200 q 718 1153 705 1166 q 751 1140 731 1140 q 808 1168 783 1140 q 839 1232 832 1196 l 902 1223 q 849 1119 889 1159 q 756 1079 810 1079 q 703 1092 723 1079 q 667 1122 682 1105 q 637 1152 652 1139 q 599 1165 621 1165 q 549 1139 572 1165 q 516 1074 526 1114 m 863 1284 q 809 1306 831 1284 q 787 1357 787 1327 q 808 1409 787 1388 q 859 1429 828 1429 q 910 1408 889 1429 q 932 1354 932 1388 q 912 1304 932 1324 q 863 1284 892 1284 m 578 1284 q 527 1306 548 1284 q 505 1357 505 1327 q 525 1409 505 1388 q 574 1429 544 1429 q 628 1407 606 1429 q 649 1354 649 1385 q 629 1305 649 1325 q 578 1284 609 1284 z "},"Ȭ":{"ha":1058,"x_min":101,"x_max":1013,"o":"m 505 -9 q 290 50 380 -9 q 150 211 199 109 q 101 439 101 313 q 139 653 101 551 q 247 836 178 756 q 410 963 316 916 q 614 1009 504 1009 q 785 974 711 1009 q 910 877 859 939 q 987 734 961 815 q 1013 562 1013 654 q 975 347 1013 450 q 869 164 937 244 q 707 37 800 83 q 505 -9 614 -9 m 504 72 q 673 113 596 72 q 807 224 751 154 q 894 383 863 294 q 925 567 925 472 q 890 748 925 666 q 785 879 854 830 q 614 928 715 928 q 442 886 519 928 q 307 774 364 845 q 219 615 250 704 q 189 433 189 527 q 226 249 189 330 q 334 119 264 167 q 504 72 405 72 m 516 1074 l 455 1083 q 508 1187 468 1148 q 600 1227 547 1227 q 656 1214 635 1227 q 691 1183 677 1200 q 718 1153 705 1166 q 751 1140 731 1140 q 808 1168 783 1140 q 839 1232 832 1196 l 902 1223 q 849 1119 889 1159 q 756 1079 810 1079 q 703 1092 723 1079 q 667 1122 682 1105 q 637 1152 652 1139 q 599 1165 621 1165 q 549 1139 572 1165 q 516 1074 526 1114 m 475 1322 l 486 1389 l 964 1389 l 952 1322 l 475 1322 z "},"Œ":{"ha":1507,"x_min":93,"x_max":1550,"o":"m 480 -11 q 321 20 392 -11 q 199 106 250 51 q 120 238 148 162 q 93 402 93 313 q 137 628 93 519 q 259 823 181 736 q 438 960 336 909 q 656 1010 541 1010 q 828 974 753 1010 q 949 870 903 938 q 1002 708 995 802 l 974 712 l 1030 1000 l 1550 1000 l 1533 919 l 1099 919 l 1025 549 l 1398 549 l 1382 470 l 1008 470 l 930 81 l 1365 81 l 1350 0 l 831 0 l 888 288 l 924 283 q 734 65 852 140 q 480 -11 616 -11 m 489 70 q 674 116 590 70 q 821 239 759 161 q 917 411 883 316 q 951 607 951 507 q 918 776 951 704 q 821 889 885 848 q 662 930 756 930 q 474 885 562 930 q 320 765 387 841 q 217 595 254 690 q 180 401 180 501 q 217 230 180 304 q 324 112 255 155 q 489 70 393 70 z "},"P":{"ha":773,"x_min":54,"x_max":781,"o":"m 204 420 l 219 501 l 455 501 q 580 532 526 501 q 664 616 633 563 q 694 736 694 669 q 667 837 694 797 q 597 898 640 878 q 503 919 553 919 l 299 919 l 317 1000 l 507 1000 q 648 968 586 1000 q 745 879 709 937 q 781 741 781 821 q 739 574 781 646 q 620 461 696 502 q 446 420 545 420 l 204 420 m 54 0 l 253 1000 l 343 1000 l 144 0 l 54 0 z "},"Þ":{"ha":795,"x_min":54,"x_max":764,"o":"m 165 209 l 180 290 l 436 290 q 560 326 506 290 q 646 421 614 362 q 677 549 677 481 q 625 670 677 632 q 490 708 572 708 l 263 708 l 280 789 l 499 789 q 690 729 616 789 q 764 557 764 670 q 720 381 764 460 q 598 256 675 302 q 424 209 522 209 l 165 209 m 54 0 l 253 1000 l 343 1000 l 144 0 l 54 0 z "},"Q":{"ha":1072,"x_min":101,"x_max":1013,"o":"m 846 0 l 770 115 l 742 136 l 575 384 l 669 384 l 806 177 l 838 151 l 938 0 l 846 0 m 505 -9 q 290 50 380 -9 q 150 211 199 109 q 101 439 101 313 q 139 653 101 551 q 247 836 178 756 q 410 963 316 916 q 614 1009 504 1009 q 785 974 711 1009 q 910 877 859 939 q 987 734 961 815 q 1013 562 1013 654 q 975 347 1013 450 q 869 164 937 244 q 707 37 800 83 q 505 -9 614 -9 m 504 72 q 673 113 596 72 q 807 224 751 154 q 894 383 863 294 q 925 567 925 472 q 890 748 925 666 q 785 879 854 830 q 614 928 715 928 q 442 886 519 928 q 307 774 364 845 q 219 615 250 704 q 189 433 189 527 q 226 249 189 330 q 334 119 264 167 q 504 72 405 72 z "},"R":{"ha":836,"x_min":54,"x_max":778,"o":"m 203 425 l 216 501 l 441 501 q 572 531 516 501 q 660 614 629 561 q 690 736 690 667 q 635 872 690 825 q 500 919 580 919 l 297 919 l 315 1000 l 505 1000 q 645 968 583 1000 q 742 879 707 937 q 778 739 778 821 q 733 573 778 644 q 610 464 689 503 q 430 425 532 425 l 203 425 m 54 0 l 254 1000 l 344 1000 l 144 0 l 54 0 m 605 0 l 396 437 l 467 490 l 701 0 l 605 0 z "},"Ŕ":{"ha":836,"x_min":54,"x_max":778,"o":"m 203 425 l 216 501 l 441 501 q 572 531 516 501 q 660 614 629 561 q 690 736 690 667 q 635 872 690 825 q 500 919 580 919 l 297 919 l 315 1000 l 505 1000 q 645 968 583 1000 q 742 879 707 937 q 778 739 778 821 q 733 573 778 644 q 610 464 689 503 q 430 425 532 425 l 203 425 m 54 0 l 254 1000 l 344 1000 l 144 0 l 54 0 m 605 0 l 396 437 l 467 490 l 701 0 l 605 0 m 538 1053 l 484 1100 l 640 1292 l 697 1236 l 538 1053 z "},"Ř":{"ha":836,"x_min":54,"x_max":778,"o":"m 203 425 l 216 501 l 441 501 q 572 531 516 501 q 660 614 629 561 q 690 736 690 667 q 635 872 690 825 q 500 919 580 919 l 297 919 l 315 1000 l 505 1000 q 645 968 583 1000 q 742 879 707 937 q 778 739 778 821 q 733 573 778 644 q 610 464 689 503 q 430 425 532 425 l 203 425 m 54 0 l 254 1000 l 344 1000 l 144 0 l 54 0 m 605 0 l 396 437 l 467 490 l 701 0 l 605 0 m 503 1053 l 334 1204 l 381 1253 l 522 1122 l 529 1122 l 721 1253 l 762 1204 l 532 1053 l 503 1053 z "},"Ŗ":{"ha":836,"x_min":54,"x_max":778,"o":"m 203 425 l 216 501 l 441 501 q 572 531 516 501 q 660 614 629 561 q 690 736 690 667 q 635 872 690 825 q 500 919 580 919 l 297 919 l 315 1000 l 505 1000 q 645 968 583 1000 q 742 879 707 937 q 778 739 778 821 q 733 573 778 644 q 610 464 689 503 q 430 425 532 425 l 203 425 m 54 0 l 254 1000 l 344 1000 l 144 0 l 54 0 m 605 0 l 396 437 l 467 490 l 701 0 l 605 0 m 246 -359 l 221 -326 l 292 -273 q 320 -249 308 -261 q 339 -224 332 -237 q 347 -195 347 -211 l 363 -195 q 351 -217 359 -208 q 326 -227 342 -227 q 288 -210 306 -227 q 269 -168 269 -193 q 285 -129 269 -146 q 327 -111 300 -111 q 371 -129 351 -111 q 390 -182 390 -147 q 367 -253 390 -222 q 321 -301 345 -283 l 246 -359 z "},"Ȑ":{"ha":836,"x_min":54,"x_max":778,"o":"m 203 425 l 216 501 l 441 501 q 572 531 516 501 q 660 614 629 561 q 690 736 690 667 q 635 872 690 825 q 500 919 580 919 l 297 919 l 315 1000 l 505 1000 q 645 968 583 1000 q 742 879 707 937 q 778 739 778 821 q 733 573 778 644 q 610 464 689 503 q 430 425 532 425 l 203 425 m 54 0 l 254 1000 l 344 1000 l 144 0 l 54 0 m 605 0 l 396 437 l 467 490 l 701 0 l 605 0 m 395 1079 l 292 1294 l 365 1331 l 448 1103 l 395 1079 m 605 1079 l 508 1294 l 581 1331 l 661 1103 l 605 1079 z "},"Ṛ":{"ha":836,"x_min":54,"x_max":778,"o":"m 203 425 l 216 501 l 441 501 q 572 531 516 501 q 660 614 629 561 q 690 736 690 667 q 635 872 690 825 q 500 919 580 919 l 297 919 l 315 1000 l 505 1000 q 645 968 583 1000 q 742 879 707 937 q 778 739 778 821 q 733 573 778 644 q 610 464 689 503 q 430 425 532 425 l 203 425 m 54 0 l 254 1000 l 344 1000 l 144 0 l 54 0 m 605 0 l 396 437 l 467 490 l 701 0 l 605 0 m 328 -241 q 274 -219 296 -241 q 252 -166 252 -197 q 274 -113 252 -135 q 328 -91 296 -91 q 381 -113 359 -91 q 403 -166 403 -135 q 381 -219 403 -197 q 328 -241 359 -241 z "},"Ȓ":{"ha":836,"x_min":54,"x_max":778,"o":"m 203 425 l 216 501 l 441 501 q 572 531 516 501 q 660 614 629 561 q 690 736 690 667 q 635 872 690 825 q 500 919 580 919 l 297 919 l 315 1000 l 505 1000 q 645 968 583 1000 q 742 879 707 937 q 778 739 778 821 q 733 573 778 644 q 610 464 689 503 q 430 425 532 425 l 203 425 m 54 0 l 254 1000 l 344 1000 l 144 0 l 54 0 m 605 0 l 396 437 l 467 490 l 701 0 l 605 0 m 729 1050 l 669 1059 q 645 1141 680 1108 q 547 1173 610 1173 q 435 1139 483 1173 q 376 1053 387 1105 l 315 1062 q 361 1151 326 1114 q 446 1209 396 1188 q 550 1230 496 1230 q 656 1205 612 1231 q 721 1138 701 1180 q 729 1050 741 1097 z "},"Ṟ":{"ha":836,"x_min":54,"x_max":778,"o":"m 203 425 l 216 501 l 441 501 q 572 531 516 501 q 660 614 629 561 q 690 736 690 667 q 635 872 690 825 q 500 919 580 919 l 297 919 l 315 1000 l 505 1000 q 645 968 583 1000 q 742 879 707 937 q 778 739 778 821 q 733 573 778 644 q 610 464 689 503 q 430 425 532 425 l 203 425 m 54 0 l 254 1000 l 344 1000 l 144 0 l 54 0 m 605 0 l 396 437 l 467 490 l 701 0 l 605 0 m 78 -262 l 90 -201 l 553 -201 l 541 -262 l 78 -262 z "},"S":{"ha":738,"x_min":43,"x_max":720,"o":"m 332 -11 q 191 20 253 -11 q 91 101 129 52 q 43 202 52 150 l 131 234 q 165 153 136 190 q 240 93 195 115 q 337 71 285 71 q 448 100 399 71 q 526 179 497 130 q 555 282 555 227 q 527 374 555 336 q 457 439 500 411 q 367 493 415 467 q 276 552 319 520 q 206 630 233 585 q 179 743 179 676 q 217 881 179 821 q 320 976 255 941 q 468 1010 385 1010 q 591 987 538 1010 q 676 924 644 963 q 720 840 709 886 l 638 810 q 610 864 631 836 q 553 910 589 892 q 466 929 517 929 q 362 904 408 929 q 292 836 317 878 q 266 742 266 793 q 293 652 266 688 q 363 590 320 616 q 454 537 406 563 q 545 480 503 512 q 615 403 588 449 q 642 288 642 357 q 602 138 642 206 q 491 30 561 70 q 332 -11 420 -11 z "},"Ś":{"ha":737,"x_min":43,"x_max":720,"o":"m 332 -11 q 191 20 253 -11 q 91 101 129 52 q 43 202 52 150 l 131 234 q 165 153 136 190 q 240 93 195 115 q 337 71 285 71 q 448 100 399 71 q 526 179 497 130 q 555 282 555 227 q 527 374 555 336 q 457 439 500 411 q 367 493 415 467 q 276 552 319 520 q 206 630 233 585 q 179 743 179 676 q 217 881 179 821 q 320 976 255 941 q 468 1010 385 1010 q 591 987 538 1010 q 676 924 644 963 q 720 840 709 886 l 638 810 q 610 864 631 836 q 553 910 589 892 q 466 929 517 929 q 362 904 408 929 q 292 836 317 878 q 266 742 266 793 q 293 652 266 688 q 363 590 320 616 q 454 537 406 563 q 545 480 503 512 q 615 403 588 449 q 642 288 642 357 q 602 138 642 206 q 491 30 561 70 q 332 -11 420 -11 m 524 1053 l 470 1100 l 626 1292 l 684 1236 l 524 1053 z "},"Ṥ":{"ha":737,"x_min":43,"x_max":792,"o":"m 332 -11 q 191 20 253 -11 q 91 101 129 52 q 43 202 52 150 l 131 234 q 165 153 136 190 q 240 93 195 115 q 337 71 285 71 q 448 100 399 71 q 526 179 497 130 q 555 282 555 227 q 527 374 555 336 q 457 439 500 411 q 367 493 415 467 q 276 552 319 520 q 206 630 233 585 q 179 743 179 676 q 217 881 179 821 q 320 976 255 941 q 468 1010 385 1010 q 591 987 538 1010 q 676 924 644 963 q 720 840 709 886 l 638 810 q 610 864 631 836 q 553 910 589 892 q 466 929 517 929 q 362 904 408 929 q 292 836 317 878 q 266 742 266 793 q 293 652 266 688 q 363 590 320 616 q 454 537 406 563 q 545 480 503 512 q 615 403 588 449 q 642 288 642 357 q 602 138 642 206 q 491 30 561 70 q 332 -11 420 -11 m 610 1086 l 558 1127 l 735 1353 l 792 1301 l 610 1086 m 429 1126 q 375 1148 397 1126 q 353 1202 353 1171 q 375 1255 353 1233 q 429 1277 397 1277 q 482 1255 460 1277 q 504 1202 504 1233 q 482 1148 504 1171 q 429 1126 460 1126 z "},"Š":{"ha":737,"x_min":43,"x_max":749,"o":"m 332 -11 q 191 20 253 -11 q 91 101 129 52 q 43 202 52 150 l 131 234 q 165 153 136 190 q 240 93 195 115 q 337 71 285 71 q 448 100 399 71 q 526 179 497 130 q 555 282 555 227 q 527 374 555 336 q 457 439 500 411 q 367 493 415 467 q 276 552 319 520 q 206 630 233 585 q 179 743 179 676 q 217 881 179 821 q 320 976 255 941 q 468 1010 385 1010 q 591 987 538 1010 q 676 924 644 963 q 720 840 709 886 l 638 810 q 610 864 631 836 q 553 910 589 892 q 466 929 517 929 q 362 904 408 929 q 292 836 317 878 q 266 742 266 793 q 293 652 266 688 q 363 590 320 616 q 454 537 406 563 q 545 480 503 512 q 615 403 588 449 q 642 288 642 357 q 602 138 642 206 q 491 30 561 70 q 332 -11 420 -11 m 490 1053 l 321 1204 l 368 1253 l 509 1122 l 516 1122 l 708 1253 l 749 1204 l 519 1053 l 490 1053 z "},"Ṧ":{"ha":737,"x_min":43,"x_max":749,"o":"m 332 -11 q 191 20 253 -11 q 91 101 129 52 q 43 202 52 150 l 131 234 q 165 153 136 190 q 240 93 195 115 q 337 71 285 71 q 448 100 399 71 q 526 179 497 130 q 555 282 555 227 q 527 374 555 336 q 457 439 500 411 q 367 493 415 467 q 276 552 319 520 q 206 630 233 585 q 179 743 179 676 q 217 881 179 821 q 320 976 255 941 q 468 1010 385 1010 q 591 987 538 1010 q 676 924 644 963 q 720 840 709 886 l 638 810 q 610 864 631 836 q 553 910 589 892 q 466 929 517 929 q 362 904 408 929 q 292 836 317 878 q 266 742 266 793 q 293 652 266 688 q 363 590 320 616 q 454 537 406 563 q 545 480 503 512 q 615 403 588 449 q 642 288 642 357 q 602 138 642 206 q 491 30 561 70 q 332 -11 420 -11 m 490 1053 l 321 1204 l 368 1253 l 509 1122 l 516 1122 l 708 1253 l 749 1204 l 519 1053 l 490 1053 m 557 1236 q 504 1258 526 1236 q 482 1312 482 1280 q 504 1365 482 1343 q 557 1387 526 1387 q 611 1365 589 1387 q 633 1312 633 1343 q 611 1258 633 1280 q 557 1236 589 1236 z "},"Ş":{"ha":737,"x_min":43,"x_max":720,"o":"m 332 -11 q 191 20 253 -11 q 91 101 129 52 q 43 202 52 150 l 131 234 q 165 153 136 190 q 240 93 195 115 q 337 71 285 71 q 448 100 399 71 q 526 179 497 130 q 555 282 555 227 q 527 374 555 336 q 457 439 500 411 q 367 493 415 467 q 276 552 319 520 q 206 630 233 585 q 179 743 179 676 q 217 881 179 821 q 320 976 255 941 q 468 1010 385 1010 q 591 987 538 1010 q 676 924 644 963 q 720 840 709 886 l 638 810 q 610 864 631 836 q 553 910 589 892 q 466 929 517 929 q 362 904 408 929 q 292 836 317 878 q 266 742 266 793 q 293 652 266 688 q 363 590 320 616 q 454 537 406 563 q 545 480 503 512 q 615 403 588 449 q 642 288 642 357 q 602 138 642 206 q 491 30 561 70 q 332 -11 420 -11 m 189 -305 l 195 -249 q 307 -233 262 -251 q 358 -176 351 -215 q 340 -136 363 -151 q 265 -119 316 -121 l 326 0 l 382 0 l 323 -109 l 317 -77 q 374 -92 349 -78 q 412 -131 399 -106 q 417 -190 424 -155 q 377 -259 408 -234 q 297 -295 345 -285 q 189 -305 249 -305 z "},"Ŝ":{"ha":737,"x_min":43,"x_max":733,"o":"m 332 -11 q 191 20 253 -11 q 91 101 129 52 q 43 202 52 150 l 131 234 q 165 153 136 190 q 240 93 195 115 q 337 71 285 71 q 448 100 399 71 q 526 179 497 130 q 555 282 555 227 q 527 374 555 336 q 457 439 500 411 q 367 493 415 467 q 276 552 319 520 q 206 630 233 585 q 179 743 179 676 q 217 881 179 821 q 320 976 255 941 q 468 1010 385 1010 q 591 987 538 1010 q 676 924 644 963 q 720 840 709 886 l 638 810 q 610 864 631 836 q 553 910 589 892 q 466 929 517 929 q 362 904 408 929 q 292 836 317 878 q 266 742 266 793 q 293 652 266 688 q 363 590 320 616 q 454 537 406 563 q 545 480 503 512 q 615 403 588 449 q 642 288 642 357 q 602 138 642 206 q 491 30 561 70 q 332 -11 420 -11 m 347 1053 l 306 1103 l 535 1253 l 564 1253 l 733 1103 l 685 1053 l 546 1185 l 538 1185 l 347 1053 z "},"Ș":{"ha":737,"x_min":43,"x_max":720,"o":"m 332 -11 q 191 20 253 -11 q 91 101 129 52 q 43 202 52 150 l 131 234 q 165 153 136 190 q 240 93 195 115 q 337 71 285 71 q 448 100 399 71 q 526 179 497 130 q 555 282 555 227 q 527 374 555 336 q 457 439 500 411 q 367 493 415 467 q 276 552 319 520 q 206 630 233 585 q 179 743 179 676 q 217 881 179 821 q 320 976 255 941 q 468 1010 385 1010 q 591 987 538 1010 q 676 924 644 963 q 720 840 709 886 l 638 810 q 610 864 631 836 q 553 910 589 892 q 466 929 517 929 q 362 904 408 929 q 292 836 317 878 q 266 742 266 793 q 293 652 266 688 q 363 590 320 616 q 454 537 406 563 q 545 480 503 512 q 615 403 588 449 q 642 288 642 357 q 602 138 642 206 q 491 30 561 70 q 332 -11 420 -11 m 193 -359 l 168 -326 l 239 -273 q 267 -249 254 -261 q 286 -224 279 -237 q 293 -195 293 -211 l 309 -195 q 297 -217 305 -208 q 273 -227 289 -227 q 234 -210 252 -227 q 216 -168 216 -193 q 231 -129 216 -146 q 273 -111 247 -111 q 317 -129 298 -111 q 336 -182 336 -147 q 314 -253 336 -222 q 267 -301 291 -283 l 193 -359 z "},"Ṡ":{"ha":737,"x_min":43,"x_max":720,"o":"m 332 -11 q 191 20 253 -11 q 91 101 129 52 q 43 202 52 150 l 131 234 q 165 153 136 190 q 240 93 195 115 q 337 71 285 71 q 448 100 399 71 q 526 179 497 130 q 555 282 555 227 q 527 374 555 336 q 457 439 500 411 q 367 493 415 467 q 276 552 319 520 q 206 630 233 585 q 179 743 179 676 q 217 881 179 821 q 320 976 255 941 q 468 1010 385 1010 q 591 987 538 1010 q 676 924 644 963 q 720 840 709 886 l 638 810 q 610 864 631 836 q 553 910 589 892 q 466 929 517 929 q 362 904 408 929 q 292 836 317 878 q 266 742 266 793 q 293 652 266 688 q 363 590 320 616 q 454 537 406 563 q 545 480 503 512 q 615 403 588 449 q 642 288 642 357 q 602 138 642 206 q 491 30 561 70 q 332 -11 420 -11 m 536 1074 q 483 1096 505 1074 q 461 1149 461 1118 q 483 1203 461 1181 q 536 1225 505 1225 q 590 1203 568 1225 q 612 1149 612 1181 q 590 1096 612 1118 q 536 1074 568 1074 z "},"Ṣ":{"ha":737,"x_min":43,"x_max":720,"o":"m 332 -11 q 191 20 253 -11 q 91 101 129 52 q 43 202 52 150 l 131 234 q 165 153 136 190 q 240 93 195 115 q 337 71 285 71 q 448 100 399 71 q 526 179 497 130 q 555 282 555 227 q 527 374 555 336 q 457 439 500 411 q 367 493 415 467 q 276 552 319 520 q 206 630 233 585 q 179 743 179 676 q 217 881 179 821 q 320 976 255 941 q 468 1010 385 1010 q 591 987 538 1010 q 676 924 644 963 q 720 840 709 886 l 638 810 q 610 864 631 836 q 553 910 589 892 q 466 929 517 929 q 362 904 408 929 q 292 836 317 878 q 266 742 266 793 q 293 652 266 688 q 363 590 320 616 q 454 537 406 563 q 545 480 503 512 q 615 403 588 449 q 642 288 642 357 q 602 138 642 206 q 491 30 561 70 q 332 -11 420 -11 m 274 -241 q 220 -219 242 -241 q 199 -166 199 -197 q 220 -113 199 -135 q 274 -91 242 -91 q 327 -113 305 -91 q 349 -166 349 -135 q 327 -219 349 -197 q 274 -241 305 -241 z "},"Ṩ":{"ha":737,"x_min":43,"x_max":720,"o":"m 332 -11 q 191 20 253 -11 q 91 101 129 52 q 43 202 52 150 l 131 234 q 165 153 136 190 q 240 93 195 115 q 337 71 285 71 q 448 100 399 71 q 526 179 497 130 q 555 282 555 227 q 527 374 555 336 q 457 439 500 411 q 367 493 415 467 q 276 552 319 520 q 206 630 233 585 q 179 743 179 676 q 217 881 179 821 q 320 976 255 941 q 468 1010 385 1010 q 591 987 538 1010 q 676 924 644 963 q 720 840 709 886 l 638 810 q 610 864 631 836 q 553 910 589 892 q 466 929 517 929 q 362 904 408 929 q 292 836 317 878 q 266 742 266 793 q 293 652 266 688 q 363 590 320 616 q 454 537 406 563 q 545 480 503 512 q 615 403 588 449 q 642 288 642 357 q 602 138 642 206 q 491 30 561 70 q 332 -11 420 -11 m 288 -241 q 234 -219 256 -241 q 212 -166 212 -197 q 234 -113 212 -135 q 288 -91 256 -91 q 341 -113 319 -91 q 363 -166 363 -135 q 341 -219 363 -197 q 288 -241 319 -241 m 547 1075 q 494 1097 515 1075 q 472 1150 472 1119 q 494 1203 472 1181 q 547 1225 515 1225 q 601 1203 578 1225 q 623 1150 623 1181 q 601 1097 623 1119 q 547 1075 578 1075 z "},"ẞ":{"ha":897,"x_min":46,"x_max":819,"o":"m 423 -10 q 362 -6 395 -10 q 294 7 329 -2 l 309 90 q 379 76 347 81 q 437 71 410 71 q 548 94 495 71 q 643 156 601 117 q 708 247 684 196 q 732 352 732 297 q 714 434 732 399 q 665 491 696 469 q 592 525 634 514 q 503 536 551 536 l 472 536 l 477 563 l 695 934 l 697 902 q 631 922 667 915 q 547 930 594 930 q 435 916 481 930 q 358 876 389 901 q 310 815 327 850 q 283 739 292 780 l 136 0 l 46 0 l 197 753 q 223 838 205 793 q 280 922 242 883 q 380 986 317 962 q 540 1010 444 1010 q 673 998 604 1010 q 796 960 742 985 l 796 947 l 565 560 l 534 598 q 686 572 623 602 q 784 486 750 542 q 819 353 819 429 q 787 214 819 279 q 702 98 756 148 q 575 19 647 47 q 423 -10 504 -10 z "},"T":{"ha":698,"x_min":155,"x_max":781,"o":"m 233 0 l 418 935 l 509 935 l 322 0 l 233 0 m 155 919 l 172 1000 l 781 1000 l 766 919 l 155 919 z "},"Ŧ":{"ha":698,"x_min":155,"x_max":781,"o":"m 233 0 l 418 935 l 509 935 l 322 0 l 233 0 m 155 919 l 172 1000 l 781 1000 l 766 919 l 155 919 m 197 455 l 212 524 l 551 524 l 534 455 l 197 455 z "},"Ť":{"ha":698,"x_min":155,"x_max":781,"o":"m 233 0 l 418 935 l 509 935 l 322 0 l 233 0 m 155 919 l 172 1000 l 781 1000 l 766 919 l 155 919 m 469 1053 l 300 1204 l 347 1253 l 488 1122 l 495 1122 l 687 1253 l 728 1204 l 498 1053 l 469 1053 z "},"Ţ":{"ha":698,"x_min":113,"x_max":781,"o":"m 233 0 l 418 935 l 509 935 l 322 0 l 233 0 m 155 919 l 172 1000 l 781 1000 l 766 919 l 155 919 m 113 -305 l 119 -249 q 230 -233 186 -251 q 281 -176 274 -215 q 263 -136 287 -151 q 189 -119 239 -121 l 250 0 l 305 0 l 247 -109 l 240 -77 q 298 -92 273 -78 q 335 -131 323 -106 q 340 -190 347 -155 q 300 -259 332 -234 q 220 -295 269 -285 q 113 -305 172 -305 z "},"Ț":{"ha":698,"x_min":136,"x_max":781,"o":"m 233 0 l 418 935 l 509 935 l 322 0 l 233 0 m 155 919 l 172 1000 l 781 1000 l 766 919 l 155 919 m 162 -359 l 137 -326 l 208 -273 q 236 -249 224 -261 q 255 -224 248 -237 q 262 -195 262 -211 l 279 -195 q 267 -217 275 -208 q 242 -227 258 -227 q 203 -210 222 -227 q 185 -168 185 -193 q 201 -129 185 -146 q 243 -111 216 -111 q 287 -129 267 -111 q 306 -182 306 -147 q 283 -253 306 -222 q 237 -301 260 -283 l 162 -359 z "},"Ṭ":{"ha":698,"x_min":155,"x_max":781,"o":"m 233 0 l 418 935 l 509 935 l 322 0 l 233 0 m 155 919 l 172 1000 l 781 1000 l 766 919 l 155 919 m 243 -241 q 190 -219 212 -241 q 168 -166 168 -197 q 190 -113 168 -135 q 243 -91 212 -91 q 297 -113 275 -91 q 319 -166 319 -135 q 297 -219 319 -197 q 243 -241 275 -241 z "},"Ṯ":{"ha":698,"x_min":-7,"x_max":781,"o":"m 233 0 l 418 935 l 509 935 l 322 0 l 233 0 m 155 919 l 172 1000 l 781 1000 l 766 919 l 155 919 m -6 -262 l 5 -201 l 469 -201 l 456 -262 l -6 -262 z "},"U":{"ha":920,"x_min":102,"x_max":922,"o":"m 420 -11 q 241 34 315 -11 q 135 161 167 79 q 123 349 102 242 l 253 1000 l 343 1000 l 212 345 q 218 195 195 256 q 295 102 241 134 q 418 70 348 70 q 602 143 528 70 q 702 347 675 216 l 832 1000 l 922 1000 l 789 333 q 664 81 757 172 q 420 -11 571 -11 z "},"Ú":{"ha":920,"x_min":102,"x_max":922,"o":"m 420 -11 q 241 34 315 -11 q 135 161 167 79 q 123 349 102 242 l 253 1000 l 343 1000 l 212 345 q 218 195 195 256 q 295 102 241 134 q 418 70 348 70 q 602 143 528 70 q 702 347 675 216 l 832 1000 l 922 1000 l 789 333 q 664 81 757 172 q 420 -11 571 -11 m 614 1053 l 559 1100 l 715 1292 l 773 1236 l 614 1053 z "},"Ŭ":{"ha":920,"x_min":102,"x_max":922,"o":"m 420 -11 q 241 34 315 -11 q 135 161 167 79 q 123 349 102 242 l 253 1000 l 343 1000 l 212 345 q 218 195 195 256 q 295 102 241 134 q 418 70 348 70 q 602 143 528 70 q 702 347 675 216 l 832 1000 l 922 1000 l 789 333 q 664 81 757 172 q 420 -11 571 -11 m 603 1057 q 499 1081 543 1057 q 436 1147 456 1106 q 427 1234 417 1187 l 487 1225 q 493 1166 479 1190 q 537 1128 507 1141 q 604 1116 566 1116 q 721 1149 671 1116 q 779 1234 770 1182 l 841 1225 q 796 1136 832 1173 q 708 1078 760 1098 q 603 1057 656 1057 z "},"Û":{"ha":920,"x_min":102,"x_max":922,"o":"m 420 -11 q 241 34 315 -11 q 135 161 167 79 q 123 349 102 242 l 253 1000 l 343 1000 l 212 345 q 218 195 195 256 q 295 102 241 134 q 418 70 348 70 q 602 143 528 70 q 702 347 675 216 l 832 1000 l 922 1000 l 789 333 q 664 81 757 172 q 420 -11 571 -11 m 436 1053 l 395 1103 l 625 1253 l 654 1253 l 823 1103 l 774 1053 l 635 1185 l 627 1185 l 436 1053 z "},"Ȕ":{"ha":920,"x_min":102,"x_max":922,"o":"m 420 -11 q 241 34 315 -11 q 135 161 167 79 q 123 349 102 242 l 253 1000 l 343 1000 l 212 345 q 218 195 195 256 q 295 102 241 134 q 418 70 348 70 q 602 143 528 70 q 702 347 675 216 l 832 1000 l 922 1000 l 789 333 q 664 81 757 172 q 420 -11 571 -11 m 471 1079 l 368 1294 l 441 1331 l 524 1103 l 471 1079 m 682 1079 l 585 1294 l 657 1331 l 737 1103 l 682 1079 z "},"Ü":{"ha":920,"x_min":102,"x_max":922,"o":"m 420 -11 q 241 34 315 -11 q 135 161 167 79 q 123 349 102 242 l 253 1000 l 343 1000 l 212 345 q 218 195 195 256 q 295 102 241 134 q 418 70 348 70 q 602 143 528 70 q 702 347 675 216 l 832 1000 l 922 1000 l 789 333 q 664 81 757 172 q 420 -11 571 -11 m 761 1078 q 708 1099 730 1078 q 686 1150 686 1120 q 706 1202 686 1181 q 758 1222 726 1222 q 809 1201 787 1222 q 830 1147 830 1181 q 810 1097 830 1117 q 761 1078 791 1078 m 476 1078 q 425 1099 446 1078 q 404 1150 404 1120 q 423 1202 404 1181 q 472 1222 442 1222 q 526 1200 505 1222 q 547 1147 547 1178 q 527 1098 547 1118 q 476 1078 507 1078 z "},"Ụ":{"ha":920,"x_min":102,"x_max":922,"o":"m 420 -11 q 241 34 315 -11 q 135 161 167 79 q 123 349 102 242 l 253 1000 l 343 1000 l 212 345 q 218 195 195 256 q 295 102 241 134 q 418 70 348 70 q 602 143 528 70 q 702 347 675 216 l 832 1000 l 922 1000 l 789 333 q 664 81 757 172 q 420 -11 571 -11 m 387 -241 q 333 -219 355 -241 q 311 -166 311 -197 q 333 -113 311 -135 q 387 -91 355 -91 q 440 -113 418 -91 q 462 -166 462 -135 q 440 -219 462 -197 q 387 -241 418 -241 z "},"Ù":{"ha":920,"x_min":102,"x_max":922,"o":"m 420 -11 q 241 34 315 -11 q 135 161 167 79 q 123 349 102 242 l 253 1000 l 343 1000 l 212 345 q 218 195 195 256 q 295 102 241 134 q 418 70 348 70 q 602 143 528 70 q 702 347 675 216 l 832 1000 l 922 1000 l 789 333 q 664 81 757 172 q 420 -11 571 -11 m 600 1053 l 431 1236 l 484 1292 l 650 1100 l 600 1053 z "},"Ủ":{"ha":920,"x_min":102,"x_max":922,"o":"m 420 -11 q 241 34 315 -11 q 135 161 167 79 q 123 349 102 242 l 253 1000 l 343 1000 l 212 345 q 218 195 195 256 q 295 102 241 134 q 418 70 348 70 q 602 143 528 70 q 702 347 675 216 l 832 1000 l 922 1000 l 789 333 q 664 81 757 172 q 420 -11 571 -11 m 618 1084 l 586 1128 q 640 1166 618 1143 q 667 1212 662 1189 q 657 1249 672 1236 q 612 1262 642 1262 q 567 1257 591 1262 q 526 1246 544 1253 l 534 1310 q 576 1319 555 1316 q 616 1322 597 1322 q 709 1291 682 1322 q 727 1211 736 1259 q 689 1138 719 1172 q 618 1084 659 1104 z "},"Ư":{"ha":938,"x_min":102,"x_max":1156,"o":"m 420 -11 q 241 34 315 -11 q 135 161 167 79 q 123 349 102 242 l 253 1000 l 343 1000 l 212 345 q 218 195 195 256 q 295 102 241 134 q 418 70 348 70 q 602 143 528 70 q 702 347 675 216 l 832 1000 l 922 1000 l 789 333 q 664 81 757 172 q 420 -11 571 -11 m 880 937 l 885 1000 q 1009 1040 957 1000 q 1077 1152 1062 1080 q 1081 1186 1080 1168 q 1082 1216 1082 1205 l 1154 1219 q 1155 1177 1157 1202 q 1147 1129 1152 1152 q 1113 1048 1138 1084 q 1052 986 1088 1012 q 971 948 1015 961 q 880 937 927 935 z "},"Ứ":{"ha":938,"x_min":102,"x_max":1156,"o":"m 420 -11 q 241 34 315 -11 q 135 161 167 79 q 123 349 102 242 l 253 1000 l 343 1000 l 212 345 q 218 195 195 256 q 295 102 241 134 q 418 70 348 70 q 602 143 528 70 q 702 347 675 216 l 832 1000 l 922 1000 l 789 333 q 664 81 757 172 q 420 -11 571 -11 m 880 937 l 885 1000 q 1009 1040 957 1000 q 1077 1152 1062 1080 q 1081 1186 1080 1168 q 1082 1216 1082 1205 l 1154 1219 q 1155 1177 1157 1202 q 1147 1129 1152 1152 q 1113 1048 1138 1084 q 1052 986 1088 1012 q 971 948 1015 961 q 880 937 927 935 m 614 1053 l 559 1100 l 715 1292 l 773 1236 l 614 1053 z "},"Ự":{"ha":938,"x_min":102,"x_max":1156,"o":"m 420 -11 q 241 34 315 -11 q 135 161 167 79 q 123 349 102 242 l 253 1000 l 343 1000 l 212 345 q 218 195 195 256 q 295 102 241 134 q 418 70 348 70 q 602 143 528 70 q 702 347 675 216 l 832 1000 l 922 1000 l 789 333 q 664 81 757 172 q 420 -11 571 -11 m 880 937 l 885 1000 q 1009 1040 957 1000 q 1077 1152 1062 1080 q 1081 1186 1080 1168 q 1082 1216 1082 1205 l 1154 1219 q 1155 1177 1157 1202 q 1147 1129 1152 1152 q 1113 1048 1138 1084 q 1052 986 1088 1012 q 971 948 1015 961 q 880 937 927 935 m 387 -241 q 333 -219 355 -241 q 311 -166 311 -197 q 333 -113 311 -135 q 387 -91 355 -91 q 440 -113 418 -91 q 462 -166 462 -135 q 440 -219 462 -197 q 387 -241 418 -241 z "},"Ừ":{"ha":938,"x_min":102,"x_max":1156,"o":"m 420 -11 q 241 34 315 -11 q 135 161 167 79 q 123 349 102 242 l 253 1000 l 343 1000 l 212 345 q 218 195 195 256 q 295 102 241 134 q 418 70 348 70 q 602 143 528 70 q 702 347 675 216 l 832 1000 l 922 1000 l 789 333 q 664 81 757 172 q 420 -11 571 -11 m 880 937 l 885 1000 q 1009 1040 957 1000 q 1077 1152 1062 1080 q 1081 1186 1080 1168 q 1082 1216 1082 1205 l 1154 1219 q 1155 1177 1157 1202 q 1147 1129 1152 1152 q 1113 1048 1138 1084 q 1052 986 1088 1012 q 971 948 1015 961 q 880 937 927 935 m 600 1053 l 431 1236 l 484 1292 l 650 1100 l 600 1053 z "},"Ử":{"ha":938,"x_min":102,"x_max":1156,"o":"m 420 -11 q 241 34 315 -11 q 135 161 167 79 q 123 349 102 242 l 253 1000 l 343 1000 l 212 345 q 218 195 195 256 q 295 102 241 134 q 418 70 348 70 q 602 143 528 70 q 702 347 675 216 l 832 1000 l 922 1000 l 789 333 q 664 81 757 172 q 420 -11 571 -11 m 880 937 l 885 1000 q 1009 1040 957 1000 q 1077 1152 1062 1080 q 1081 1186 1080 1168 q 1082 1216 1082 1205 l 1154 1219 q 1155 1177 1157 1202 q 1147 1129 1152 1152 q 1113 1048 1138 1084 q 1052 986 1088 1012 q 971 948 1015 961 q 880 937 927 935 m 618 1084 l 586 1128 q 640 1166 618 1143 q 667 1212 662 1189 q 657 1249 672 1236 q 612 1262 642 1262 q 567 1257 591 1262 q 526 1246 544 1253 l 534 1310 q 576 1319 555 1316 q 616 1322 597 1322 q 709 1291 682 1322 q 727 1211 736 1259 q 689 1138 719 1172 q 618 1084 659 1104 z "},"Ữ":{"ha":938,"x_min":102,"x_max":1156,"o":"m 420 -11 q 241 34 315 -11 q 135 161 167 79 q 123 349 102 242 l 253 1000 l 343 1000 l 212 345 q 218 195 195 256 q 295 102 241 134 q 418 70 348 70 q 602 143 528 70 q 702 347 675 216 l 832 1000 l 922 1000 l 789 333 q 664 81 757 172 q 420 -11 571 -11 m 880 937 l 885 1000 q 1009 1040 957 1000 q 1077 1152 1062 1080 q 1081 1186 1080 1168 q 1082 1216 1082 1205 l 1154 1219 q 1155 1177 1157 1202 q 1147 1129 1152 1152 q 1113 1048 1138 1084 q 1052 986 1088 1012 q 971 948 1015 961 q 880 937 927 935 m 456 1074 l 395 1083 q 447 1187 408 1148 q 539 1227 487 1227 q 595 1214 574 1227 q 630 1183 616 1200 q 657 1153 644 1166 q 690 1140 671 1140 q 747 1168 723 1140 q 779 1232 772 1196 l 842 1223 q 789 1119 829 1159 q 696 1079 749 1079 q 642 1092 663 1079 q 607 1122 622 1105 q 576 1152 592 1139 q 538 1165 561 1165 q 488 1139 511 1165 q 456 1074 465 1114 z "},"Ű":{"ha":920,"x_min":102,"x_max":922,"o":"m 420 -11 q 241 34 315 -11 q 135 161 167 79 q 123 349 102 242 l 253 1000 l 343 1000 l 212 345 q 218 195 195 256 q 295 102 241 134 q 418 70 348 70 q 602 143 528 70 q 702 347 675 216 l 832 1000 l 922 1000 l 789 333 q 664 81 757 172 q 420 -11 571 -11 m 523 1079 l 477 1102 l 650 1330 l 706 1294 l 523 1079 m 736 1079 l 692 1102 l 863 1330 l 919 1294 l 736 1079 z "},"Ȗ":{"ha":920,"x_min":102,"x_max":922,"o":"m 420 -11 q 241 34 315 -11 q 135 161 167 79 q 123 349 102 242 l 253 1000 l 343 1000 l 212 345 q 218 195 195 256 q 295 102 241 134 q 418 70 348 70 q 602 143 528 70 q 702 347 675 216 l 832 1000 l 922 1000 l 789 333 q 664 81 757 172 q 420 -11 571 -11 m 806 1050 l 745 1059 q 722 1141 756 1108 q 623 1173 687 1173 q 512 1139 559 1173 q 452 1053 464 1105 l 392 1062 q 438 1151 403 1114 q 523 1209 473 1188 q 627 1230 572 1230 q 733 1205 688 1231 q 797 1138 777 1180 q 806 1050 817 1097 z "},"Ū":{"ha":920,"x_min":102,"x_max":922,"o":"m 420 -11 q 241 34 315 -11 q 135 161 167 79 q 123 349 102 242 l 253 1000 l 343 1000 l 212 345 q 218 195 195 256 q 295 102 241 134 q 418 70 348 70 q 602 143 528 70 q 702 347 675 216 l 832 1000 l 922 1000 l 789 333 q 664 81 757 172 q 420 -11 571 -11 m 373 1115 l 385 1181 l 863 1181 l 850 1115 l 373 1115 z "},"Ṻ":{"ha":920,"x_min":102,"x_max":922,"o":"m 420 -11 q 241 34 315 -11 q 135 161 167 79 q 123 349 102 242 l 253 1000 l 343 1000 l 212 345 q 218 195 195 256 q 295 102 241 134 q 418 70 348 70 q 602 143 528 70 q 702 347 675 216 l 832 1000 l 922 1000 l 789 333 q 664 81 757 172 q 420 -11 571 -11 m 373 1115 l 385 1181 l 863 1181 l 850 1115 l 373 1115 m 796 1259 q 743 1280 765 1259 q 721 1331 721 1301 q 741 1383 721 1362 q 793 1403 762 1403 q 844 1382 823 1403 q 865 1329 865 1362 q 846 1278 865 1298 q 796 1259 826 1259 m 511 1259 q 460 1280 481 1259 q 439 1331 439 1301 q 458 1383 439 1362 q 507 1403 477 1403 q 561 1381 540 1403 q 583 1328 583 1359 q 563 1279 583 1299 q 511 1259 543 1259 z "},"Ų":{"ha":920,"x_min":102,"x_max":922,"o":"m 420 -11 q 241 34 315 -11 q 135 161 167 79 q 123 349 102 242 l 253 1000 l 343 1000 l 212 345 q 218 195 195 256 q 295 102 241 134 q 418 70 348 70 q 602 143 528 70 q 702 347 675 216 l 832 1000 l 922 1000 l 789 333 q 664 81 757 172 q 420 -11 571 -11 m 377 -269 q 300 -237 326 -269 q 285 -155 275 -204 q 342 -59 296 -101 q 448 24 389 -17 l 498 0 q 434 -50 468 -24 q 376 -103 401 -76 q 345 -159 351 -130 q 353 -197 340 -184 q 391 -210 366 -210 q 444 -199 418 -210 q 484 -181 470 -189 l 473 -246 q 428 -262 456 -256 q 377 -269 399 -269 z "},"Ů":{"ha":920,"x_min":102,"x_max":922,"o":"m 420 -11 q 241 34 315 -11 q 135 161 167 79 q 123 349 102 242 l 253 1000 l 343 1000 l 212 345 q 218 195 195 256 q 295 102 241 134 q 418 70 348 70 q 602 143 528 70 q 702 347 675 216 l 832 1000 l 922 1000 l 789 333 q 664 81 757 172 q 420 -11 571 -11 m 603 1044 q 533 1062 563 1044 q 488 1115 503 1081 q 483 1192 474 1148 q 542 1292 494 1253 q 648 1330 589 1330 q 721 1310 691 1330 q 764 1256 751 1289 q 769 1180 777 1222 q 737 1110 761 1141 q 678 1061 713 1079 q 603 1044 643 1044 m 602 1103 q 673 1131 643 1103 q 711 1194 704 1158 q 700 1249 718 1229 q 646 1270 682 1270 q 579 1244 610 1270 q 538 1178 547 1218 q 551 1124 532 1145 q 602 1103 570 1103 z "},"Ũ":{"ha":920,"x_min":102,"x_max":922,"o":"m 420 -11 q 241 34 315 -11 q 135 161 167 79 q 123 349 102 242 l 253 1000 l 343 1000 l 212 345 q 218 195 195 256 q 295 102 241 134 q 418 70 348 70 q 602 143 528 70 q 702 347 675 216 l 832 1000 l 922 1000 l 789 333 q 664 81 757 172 q 420 -11 571 -11 m 456 1074 l 395 1083 q 447 1187 408 1148 q 539 1227 487 1227 q 595 1214 574 1227 q 630 1183 616 1200 q 657 1153 644 1166 q 690 1140 671 1140 q 747 1168 723 1140 q 779 1232 772 1196 l 842 1223 q 789 1119 829 1159 q 696 1079 749 1079 q 642 1092 663 1079 q 607 1122 622 1105 q 576 1152 592 1139 q 538 1165 561 1165 q 488 1139 511 1165 q 456 1074 465 1114 z "},"Ṹ":{"ha":920,"x_min":102,"x_max":922,"o":"m 420 -11 q 241 34 315 -11 q 135 161 167 79 q 123 349 102 242 l 253 1000 l 343 1000 l 212 345 q 218 195 195 256 q 295 102 241 134 q 418 70 348 70 q 602 143 528 70 q 702 347 675 216 l 832 1000 l 922 1000 l 789 333 q 664 81 757 172 q 420 -11 571 -11 m 456 1074 l 395 1083 q 447 1187 408 1148 q 539 1227 487 1227 q 595 1214 574 1227 q 630 1183 616 1200 q 657 1153 644 1166 q 690 1140 671 1140 q 747 1168 723 1140 q 779 1232 772 1196 l 842 1223 q 789 1119 829 1159 q 696 1079 749 1079 q 642 1092 663 1079 q 607 1122 622 1105 q 576 1152 592 1139 q 538 1165 561 1165 q 488 1139 511 1165 q 456 1074 465 1114 m 655 1260 l 601 1308 l 757 1499 l 814 1443 l 655 1260 z "},"V":{"ha":933,"x_min":156,"x_max":1031,"o":"m 358 0 l 156 1000 l 248 1000 l 351 451 l 414 125 l 419 125 l 611 451 l 930 1000 l 1031 1000 l 429 0 l 358 0 z "},"W":{"ha":1263,"x_min":159,"x_max":1360,"o":"m 254 0 l 159 1000 l 247 1000 l 300 315 l 316 117 l 321 117 l 709 912 l 752 912 l 861 117 l 866 117 l 952 315 l 1266 1000 l 1360 1000 l 890 0 l 804 0 l 702 715 l 696 715 l 340 0 l 254 0 z "},"Ẃ":{"ha":1263,"x_min":159,"x_max":1360,"o":"m 254 0 l 159 1000 l 247 1000 l 300 315 l 316 117 l 321 117 l 709 912 l 752 912 l 861 117 l 866 117 l 952 315 l 1266 1000 l 1360 1000 l 890 0 l 804 0 l 702 715 l 696 715 l 340 0 l 254 0 m 776 1053 l 722 1100 l 878 1292 l 935 1236 l 776 1053 z "},"Ŵ":{"ha":1263,"x_min":159,"x_max":1360,"o":"m 254 0 l 159 1000 l 247 1000 l 300 315 l 316 117 l 321 117 l 709 912 l 752 912 l 861 117 l 866 117 l 952 315 l 1266 1000 l 1360 1000 l 890 0 l 804 0 l 702 715 l 696 715 l 340 0 l 254 0 m 598 1053 l 557 1103 l 787 1253 l 816 1253 l 985 1103 l 937 1053 l 798 1185 l 789 1185 l 598 1053 z "},"Ẅ":{"ha":1263,"x_min":159,"x_max":1360,"o":"m 254 0 l 159 1000 l 247 1000 l 300 315 l 316 117 l 321 117 l 709 912 l 752 912 l 861 117 l 866 117 l 952 315 l 1266 1000 l 1360 1000 l 890 0 l 804 0 l 702 715 l 696 715 l 340 0 l 254 0 m 923 1078 q 870 1099 892 1078 q 848 1150 848 1120 q 868 1202 848 1181 q 920 1222 888 1222 q 971 1201 949 1222 q 992 1147 992 1181 q 972 1097 992 1117 q 923 1078 953 1078 m 638 1078 q 587 1099 608 1078 q 566 1150 566 1120 q 585 1202 566 1181 q 634 1222 604 1222 q 688 1200 667 1222 q 709 1147 709 1178 q 689 1098 709 1118 q 638 1078 669 1078 z "},"Ẁ":{"ha":1263,"x_min":159,"x_max":1360,"o":"m 254 0 l 159 1000 l 247 1000 l 300 315 l 316 117 l 321 117 l 709 912 l 752 912 l 861 117 l 866 117 l 952 315 l 1266 1000 l 1360 1000 l 890 0 l 804 0 l 702 715 l 696 715 l 340 0 l 254 0 m 762 1053 l 593 1236 l 646 1292 l 812 1100 l 762 1053 z "},"X":{"ha":880,"x_min":-16,"x_max":945,"o":"m 659 0 l 466 438 l 460 438 l 414 507 l 414 511 l 180 1000 l 275 1000 l 481 563 l 486 563 l 532 497 l 532 492 l 754 0 l 659 0 m -16 0 l 414 508 l 414 513 l 477 563 l 483 563 l 838 1000 l 945 1000 l 532 496 l 532 493 l 468 438 l 463 438 l 99 0 l -16 0 z "},"Y":{"ha":824,"x_min":160,"x_max":920,"o":"m 295 0 l 385 446 l 160 1000 l 252 1000 l 362 730 l 440 532 l 446 532 l 600 730 l 809 1000 l 920 1000 l 474 438 l 385 0 l 295 0 z "},"Ý":{"ha":824,"x_min":160,"x_max":920,"o":"m 295 0 l 385 446 l 160 1000 l 252 1000 l 362 730 l 440 532 l 446 532 l 600 730 l 809 1000 l 920 1000 l 474 438 l 385 0 l 295 0 m 562 1053 l 507 1100 l 663 1292 l 721 1236 l 562 1053 z "},"Ŷ":{"ha":824,"x_min":160,"x_max":920,"o":"m 295 0 l 385 446 l 160 1000 l 252 1000 l 362 730 l 440 532 l 446 532 l 600 730 l 809 1000 l 920 1000 l 474 438 l 385 0 l 295 0 m 384 1053 l 343 1103 l 572 1253 l 602 1253 l 770 1103 l 722 1053 l 583 1185 l 575 1185 l 384 1053 z "},"Ÿ":{"ha":824,"x_min":160,"x_max":920,"o":"m 295 0 l 385 446 l 160 1000 l 252 1000 l 362 730 l 440 532 l 446 532 l 600 730 l 809 1000 l 920 1000 l 474 438 l 385 0 l 295 0 m 709 1078 q 655 1099 677 1078 q 633 1150 633 1120 q 654 1202 633 1181 q 705 1222 674 1222 q 756 1201 735 1222 q 778 1147 778 1181 q 758 1097 778 1117 q 709 1078 739 1078 m 424 1078 q 373 1099 394 1078 q 351 1150 351 1120 q 371 1202 351 1181 q 420 1222 390 1222 q 474 1200 452 1222 q 495 1147 495 1178 q 475 1098 495 1118 q 424 1078 455 1078 z "},"Ẏ":{"ha":824,"x_min":160,"x_max":920,"o":"m 295 0 l 385 446 l 160 1000 l 252 1000 l 362 730 l 440 532 l 446 532 l 600 730 l 809 1000 l 920 1000 l 474 438 l 385 0 l 295 0 m 574 1074 q 520 1096 542 1074 q 498 1149 498 1118 q 520 1203 498 1181 q 574 1225 542 1225 q 627 1203 605 1225 q 649 1149 649 1181 q 627 1096 649 1118 q 574 1074 605 1074 z "},"Ỵ":{"ha":824,"x_min":160,"x_max":920,"o":"m 295 0 l 385 446 l 160 1000 l 252 1000 l 362 730 l 440 532 l 446 532 l 600 730 l 809 1000 l 920 1000 l 474 438 l 385 0 l 295 0 m 321 -241 q 267 -219 289 -241 q 245 -166 245 -197 q 267 -113 245 -135 q 321 -91 289 -91 q 374 -113 352 -91 q 396 -166 396 -135 q 374 -219 396 -197 q 321 -241 352 -241 z "},"Ỳ":{"ha":824,"x_min":160,"x_max":920,"o":"m 295 0 l 385 446 l 160 1000 l 252 1000 l 362 730 l 440 532 l 446 532 l 600 730 l 809 1000 l 920 1000 l 474 438 l 385 0 l 295 0 m 547 1053 l 378 1236 l 432 1292 l 598 1100 l 547 1053 z "},"Ỷ":{"ha":824,"x_min":160,"x_max":920,"o":"m 295 0 l 385 446 l 160 1000 l 252 1000 l 362 730 l 440 532 l 446 532 l 600 730 l 809 1000 l 920 1000 l 474 438 l 385 0 l 295 0 m 566 1084 l 534 1128 q 588 1166 566 1143 q 614 1212 610 1189 q 605 1249 620 1236 q 559 1262 590 1262 q 515 1257 538 1262 q 474 1246 492 1253 l 481 1310 q 524 1319 503 1316 q 564 1322 545 1322 q 657 1291 629 1322 q 675 1211 684 1259 q 636 1138 667 1172 q 566 1084 606 1104 z "},"Ȳ":{"ha":824,"x_min":160,"x_max":920,"o":"m 295 0 l 385 446 l 160 1000 l 252 1000 l 362 730 l 440 532 l 446 532 l 600 730 l 809 1000 l 920 1000 l 474 438 l 385 0 l 295 0 m 321 1115 l 332 1181 l 810 1181 l 798 1115 l 321 1115 z "},"Ỹ":{"ha":824,"x_min":160,"x_max":920,"o":"m 295 0 l 385 446 l 160 1000 l 252 1000 l 362 730 l 440 532 l 446 532 l 600 730 l 809 1000 l 920 1000 l 474 438 l 385 0 l 295 0 m 404 1074 l 342 1083 q 395 1187 355 1148 q 487 1227 435 1227 q 543 1214 522 1227 q 578 1183 564 1200 q 605 1153 592 1166 q 638 1140 618 1140 q 695 1168 671 1140 q 726 1232 720 1196 l 789 1223 q 737 1119 777 1159 q 644 1079 697 1079 q 590 1092 610 1079 q 555 1122 570 1105 q 524 1152 540 1139 q 486 1165 509 1165 q 436 1139 459 1165 q 404 1074 413 1114 z "},"Z":{"ha":821,"x_min":10,"x_max":851,"o":"m 10 0 l 15 28 l 701 918 l 701 920 l 215 920 l 231 1000 l 851 1000 l 846 973 l 157 82 l 157 79 l 684 79 l 668 0 l 10 0 z "},"Ź":{"ha":821,"x_min":10,"x_max":851,"o":"m 10 0 l 15 28 l 701 918 l 701 920 l 215 920 l 231 1000 l 851 1000 l 846 973 l 157 82 l 157 79 l 684 79 l 668 0 l 10 0 m 578 1053 l 524 1100 l 680 1292 l 737 1236 l 578 1053 z "},"Ž":{"ha":821,"x_min":10,"x_max":851,"o":"m 10 0 l 15 28 l 701 918 l 701 920 l 215 920 l 231 1000 l 851 1000 l 846 973 l 157 82 l 157 79 l 684 79 l 668 0 l 10 0 m 543 1053 l 374 1204 l 422 1253 l 562 1122 l 570 1122 l 762 1253 l 802 1204 l 572 1053 l 543 1053 z "},"Ż":{"ha":821,"x_min":10,"x_max":851,"o":"m 10 0 l 15 28 l 701 918 l 701 920 l 215 920 l 231 1000 l 851 1000 l 846 973 l 157 82 l 157 79 l 684 79 l 668 0 l 10 0 m 590 1074 q 536 1096 558 1074 q 515 1149 515 1118 q 536 1203 515 1181 q 590 1225 558 1225 q 643 1203 621 1225 q 665 1149 665 1181 q 643 1096 665 1118 q 590 1074 621 1074 z "},"Ẓ":{"ha":821,"x_min":10,"x_max":851,"o":"m 10 0 l 15 28 l 701 918 l 701 920 l 215 920 l 231 1000 l 851 1000 l 846 973 l 157 82 l 157 79 l 684 79 l 668 0 l 10 0 m 321 -241 q 268 -219 290 -241 q 246 -166 246 -197 q 268 -113 246 -135 q 321 -91 290 -91 q 375 -113 353 -91 q 397 -166 397 -135 q 375 -219 397 -197 q 321 -241 353 -241 z "},"a":{"ha":778,"x_min":62,"x_max":736,"o":"m 313 -11 q 180 26 236 -11 q 93 130 123 64 q 62 285 62 197 q 87 447 62 368 q 158 588 113 525 q 268 689 204 652 q 410 726 332 726 q 551 682 494 726 q 625 567 608 638 l 595 578 l 661 578 l 621 555 l 653 715 l 736 715 l 629 182 q 623 109 621 138 q 656 66 625 79 l 625 -11 q 575 22 595 1 q 548 68 556 42 q 546 125 541 94 l 574 109 l 513 109 l 565 144 q 453 27 518 66 q 313 -11 387 -11 m 323 67 q 436 100 386 67 q 521 187 486 133 q 574 307 556 241 q 593 438 593 373 q 548 593 593 538 q 422 648 503 648 q 308 617 359 648 q 222 534 258 586 q 168 417 186 481 q 149 286 149 353 q 194 126 149 186 q 323 67 240 67 z "},"á":{"ha":778,"x_min":62,"x_max":736,"o":"m 313 -11 q 180 26 236 -11 q 93 130 123 64 q 62 285 62 197 q 87 447 62 368 q 158 588 113 525 q 268 689 204 652 q 410 726 332 726 q 551 682 494 726 q 625 567 608 638 l 595 578 l 661 578 l 621 555 l 653 715 l 736 715 l 629 182 q 623 109 621 138 q 656 66 625 79 l 625 -11 q 575 22 595 1 q 548 68 556 42 q 546 125 541 94 l 574 109 l 513 109 l 565 144 q 453 27 518 66 q 313 -11 387 -11 m 323 67 q 436 100 386 67 q 521 187 486 133 q 574 307 556 241 q 593 438 593 373 q 548 593 593 538 q 422 648 503 648 q 308 617 359 648 q 222 534 258 586 q 168 417 186 481 q 149 286 149 353 q 194 126 149 186 q 323 67 240 67 m 480 802 l 429 843 l 606 1069 l 663 1017 l 480 802 z "},"ă":{"ha":778,"x_min":62,"x_max":736,"o":"m 313 -11 q 180 26 236 -11 q 93 130 123 64 q 62 285 62 197 q 87 447 62 368 q 158 588 113 525 q 268 689 204 652 q 410 726 332 726 q 551 682 494 726 q 625 567 608 638 l 595 578 l 661 578 l 621 555 l 653 715 l 736 715 l 629 182 q 623 109 621 138 q 656 66 625 79 l 625 -11 q 575 22 595 1 q 548 68 556 42 q 546 125 541 94 l 574 109 l 513 109 l 565 144 q 453 27 518 66 q 313 -11 387 -11 m 323 67 q 436 100 386 67 q 521 187 486 133 q 574 307 556 241 q 593 438 593 373 q 548 593 593 538 q 422 648 503 648 q 308 617 359 648 q 222 534 258 586 q 168 417 186 481 q 149 286 149 353 q 194 126 149 186 q 323 67 240 67 m 491 825 q 389 853 432 825 q 326 927 346 881 q 317 1029 307 974 l 378 1021 q 398 923 366 962 q 492 883 431 883 q 573 903 534 883 q 639 957 612 923 q 673 1029 666 990 l 734 1021 q 688 920 724 964 q 600 850 652 876 q 491 825 549 825 z "},"ắ":{"ha":778,"x_min":62,"x_max":736,"o":"m 313 -11 q 180 26 236 -11 q 93 130 123 64 q 62 285 62 197 q 87 447 62 368 q 158 588 113 525 q 268 689 204 652 q 410 726 332 726 q 551 682 494 726 q 625 567 608 638 l 595 578 l 661 578 l 621 555 l 653 715 l 736 715 l 629 182 q 623 109 621 138 q 656 66 625 79 l 625 -11 q 575 22 595 1 q 548 68 556 42 q 546 125 541 94 l 574 109 l 513 109 l 565 144 q 453 27 518 66 q 313 -11 387 -11 m 323 67 q 436 100 386 67 q 521 187 486 133 q 574 307 556 241 q 593 438 593 373 q 548 593 593 538 q 422 648 503 648 q 308 617 359 648 q 222 534 258 586 q 168 417 186 481 q 149 286 149 353 q 194 126 149 186 q 323 67 240 67 m 488 941 l 433 979 l 564 1196 l 622 1149 l 488 941 m 475 825 q 373 850 418 825 q 307 917 328 875 q 294 1009 285 958 l 353 1003 q 362 942 347 969 q 410 898 378 914 q 480 882 441 882 q 588 920 542 882 q 646 1010 635 958 l 707 1004 q 665 912 698 953 q 584 848 633 872 q 475 825 534 825 z "},"ặ":{"ha":778,"x_min":62,"x_max":736,"o":"m 313 -11 q 180 26 236 -11 q 93 130 123 64 q 62 285 62 197 q 87 447 62 368 q 158 588 113 525 q 268 689 204 652 q 410 726 332 726 q 551 682 494 726 q 625 567 608 638 l 595 578 l 661 578 l 621 555 l 653 715 l 736 715 l 629 182 q 623 109 621 138 q 656 66 625 79 l 625 -11 q 575 22 595 1 q 548 68 556 42 q 546 125 541 94 l 574 109 l 513 109 l 565 144 q 453 27 518 66 q 313 -11 387 -11 m 323 67 q 436 100 386 67 q 521 187 486 133 q 574 307 556 241 q 593 438 593 373 q 548 593 593 538 q 422 648 503 648 q 308 617 359 648 q 222 534 258 586 q 168 417 186 481 q 149 286 149 353 q 194 126 149 186 q 323 67 240 67 m 288 -241 q 235 -219 256 -241 q 213 -166 213 -197 q 235 -113 213 -135 q 288 -91 256 -91 q 341 -113 319 -91 q 363 -166 363 -135 q 341 -219 363 -197 q 288 -241 319 -241 m 491 825 q 389 853 432 825 q 326 927 346 881 q 317 1029 307 974 l 378 1021 q 398 923 366 962 q 492 883 431 883 q 573 903 534 883 q 639 957 612 923 q 673 1029 666 990 l 734 1021 q 688 920 724 964 q 600 850 652 876 q 491 825 549 825 z "},"ằ":{"ha":778,"x_min":62,"x_max":736,"o":"m 313 -11 q 180 26 236 -11 q 93 130 123 64 q 62 285 62 197 q 87 447 62 368 q 158 588 113 525 q 268 689 204 652 q 410 726 332 726 q 551 682 494 726 q 625 567 608 638 l 595 578 l 661 578 l 621 555 l 653 715 l 736 715 l 629 182 q 623 109 621 138 q 656 66 625 79 l 625 -11 q 575 22 595 1 q 548 68 556 42 q 546 125 541 94 l 574 109 l 513 109 l 565 144 q 453 27 518 66 q 313 -11 387 -11 m 323 67 q 436 100 386 67 q 521 187 486 133 q 574 307 556 241 q 593 438 593 373 q 548 593 593 538 q 422 648 503 648 q 308 617 359 648 q 222 534 258 586 q 168 417 186 481 q 149 286 149 353 q 194 126 149 186 q 323 67 240 67 m 498 948 l 326 1131 l 379 1186 l 545 996 l 498 948 m 471 825 q 368 850 413 825 q 301 917 323 875 q 290 1009 279 958 l 349 1003 q 358 942 342 969 q 405 898 374 914 q 475 882 437 882 q 584 920 537 882 q 641 1010 630 958 l 703 1004 q 660 912 693 953 q 578 848 627 872 q 471 825 530 825 z "},"ẳ":{"ha":778,"x_min":62,"x_max":736,"o":"m 313 -11 q 180 26 236 -11 q 93 130 123 64 q 62 285 62 197 q 87 447 62 368 q 158 588 113 525 q 268 689 204 652 q 410 726 332 726 q 551 682 494 726 q 625 567 608 638 l 595 578 l 661 578 l 621 555 l 653 715 l 736 715 l 629 182 q 623 109 621 138 q 656 66 625 79 l 625 -11 q 575 22 595 1 q 548 68 556 42 q 546 125 541 94 l 574 109 l 513 109 l 565 144 q 453 27 518 66 q 313 -11 387 -11 m 323 67 q 436 100 386 67 q 521 187 486 133 q 574 307 556 241 q 593 438 593 373 q 548 593 593 538 q 422 648 503 648 q 308 617 359 648 q 222 534 258 586 q 168 417 186 481 q 149 286 149 353 q 194 126 149 186 q 323 67 240 67 m 494 825 q 392 850 437 825 q 325 917 347 875 q 313 1009 303 958 l 372 1003 q 381 942 365 969 q 428 898 397 914 q 498 882 459 882 q 607 920 560 882 q 664 1010 654 958 l 726 1004 q 684 912 716 953 q 602 848 651 872 q 494 825 553 825 m 500 947 l 467 990 q 522 1029 500 1006 q 548 1074 543 1052 q 538 1112 553 1099 q 493 1124 524 1124 q 449 1120 472 1124 q 408 1109 425 1115 l 415 1173 q 458 1182 437 1179 q 498 1185 479 1185 q 590 1154 563 1185 q 608 1074 618 1122 q 570 1001 600 1035 q 500 947 540 966 z "},"ẵ":{"ha":778,"x_min":62,"x_max":762,"o":"m 313 -11 q 180 26 236 -11 q 93 130 123 64 q 62 285 62 197 q 87 447 62 368 q 158 588 113 525 q 268 689 204 652 q 410 726 332 726 q 551 682 494 726 q 625 567 608 638 l 595 578 l 661 578 l 621 555 l 653 715 l 736 715 l 629 182 q 623 109 621 138 q 656 66 625 79 l 625 -11 q 575 22 595 1 q 548 68 556 42 q 546 125 541 94 l 574 109 l 513 109 l 565 144 q 453 27 518 66 q 313 -11 387 -11 m 323 67 q 436 100 386 67 q 521 187 486 133 q 574 307 556 241 q 593 438 593 373 q 548 593 593 538 q 422 648 503 648 q 308 617 359 648 q 222 534 258 586 q 168 417 186 481 q 149 286 149 353 q 194 126 149 186 q 323 67 240 67 m 378 1048 l 316 1056 q 367 1156 328 1120 q 460 1192 406 1192 q 514 1180 493 1192 q 550 1152 535 1168 q 580 1124 566 1136 q 615 1112 595 1112 q 668 1136 645 1112 q 697 1197 690 1159 l 762 1190 q 734 1117 755 1148 q 683 1067 713 1085 q 617 1050 653 1050 q 565 1062 585 1050 q 528 1091 544 1075 q 495 1119 512 1107 q 457 1131 479 1131 q 409 1111 431 1131 q 378 1048 387 1090 m 479 825 q 378 850 422 825 q 311 917 333 875 q 298 1009 289 958 l 358 1003 q 367 942 351 969 q 414 898 382 914 q 484 882 446 882 q 593 920 547 882 q 650 1010 640 958 l 712 1004 q 670 912 703 953 q 588 848 637 872 q 479 825 539 825 z "},"ǎ":{"ha":778,"x_min":62,"x_max":736,"o":"m 313 -11 q 180 26 236 -11 q 93 130 123 64 q 62 285 62 197 q 87 447 62 368 q 158 588 113 525 q 268 689 204 652 q 410 726 332 726 q 551 682 494 726 q 625 567 608 638 l 595 578 l 661 578 l 621 555 l 653 715 l 736 715 l 629 182 q 623 109 621 138 q 656 66 625 79 l 625 -11 q 575 22 595 1 q 548 68 556 42 q 546 125 541 94 l 574 109 l 513 109 l 565 144 q 453 27 518 66 q 313 -11 387 -11 m 323 67 q 436 100 386 67 q 521 187 486 133 q 574 307 556 241 q 593 438 593 373 q 548 593 593 538 q 422 648 503 648 q 308 617 359 648 q 222 534 258 586 q 168 417 186 481 q 149 286 149 353 q 194 126 149 186 q 323 67 240 67 m 462 811 l 302 996 l 347 1041 l 480 882 l 486 882 l 675 1041 l 713 996 l 488 811 l 462 811 z "},"â":{"ha":778,"x_min":62,"x_max":736,"o":"m 313 -11 q 180 26 236 -11 q 93 130 123 64 q 62 285 62 197 q 87 447 62 368 q 158 588 113 525 q 268 689 204 652 q 410 726 332 726 q 551 682 494 726 q 625 567 608 638 l 595 578 l 661 578 l 621 555 l 653 715 l 736 715 l 629 182 q 623 109 621 138 q 656 66 625 79 l 625 -11 q 575 22 595 1 q 548 68 556 42 q 546 125 541 94 l 574 109 l 513 109 l 565 144 q 453 27 518 66 q 313 -11 387 -11 m 323 67 q 436 100 386 67 q 521 187 486 133 q 574 307 556 241 q 593 438 593 373 q 548 593 593 538 q 422 648 503 648 q 308 617 359 648 q 222 534 258 586 q 168 417 186 481 q 149 286 149 353 q 194 126 149 186 q 323 67 240 67 m 321 811 l 283 857 l 507 1041 l 534 1041 l 693 857 l 649 811 l 517 971 l 511 971 l 321 811 z "},"ấ":{"ha":778,"x_min":62,"x_max":886,"o":"m 313 -11 q 180 26 236 -11 q 93 130 123 64 q 62 285 62 197 q 87 447 62 368 q 158 588 113 525 q 268 689 204 652 q 410 726 332 726 q 551 682 494 726 q 625 567 608 638 l 595 578 l 661 578 l 621 555 l 653 715 l 736 715 l 629 182 q 623 109 621 138 q 656 66 625 79 l 625 -11 q 575 22 595 1 q 548 68 556 42 q 546 125 541 94 l 574 109 l 513 109 l 565 144 q 453 27 518 66 q 313 -11 387 -11 m 323 67 q 436 100 386 67 q 521 187 486 133 q 574 307 556 241 q 593 438 593 373 q 548 593 593 538 q 422 648 503 648 q 308 617 359 648 q 222 534 258 586 q 168 417 186 481 q 149 286 149 353 q 194 126 149 186 q 323 67 240 67 m 660 959 l 621 998 l 844 1185 l 885 1127 l 660 959 m 316 813 l 276 861 l 503 1013 l 532 1013 l 703 861 l 655 813 l 513 943 l 507 943 l 316 813 z "},"ậ":{"ha":778,"x_min":62,"x_max":736,"o":"m 313 -11 q 180 26 236 -11 q 93 130 123 64 q 62 285 62 197 q 87 447 62 368 q 158 588 113 525 q 268 689 204 652 q 410 726 332 726 q 551 682 494 726 q 625 567 608 638 l 595 578 l 661 578 l 621 555 l 653 715 l 736 715 l 629 182 q 623 109 621 138 q 656 66 625 79 l 625 -11 q 575 22 595 1 q 548 68 556 42 q 546 125 541 94 l 574 109 l 513 109 l 565 144 q 453 27 518 66 q 313 -11 387 -11 m 323 67 q 436 100 386 67 q 521 187 486 133 q 574 307 556 241 q 593 438 593 373 q 548 593 593 538 q 422 648 503 648 q 308 617 359 648 q 222 534 258 586 q 168 417 186 481 q 149 286 149 353 q 194 126 149 186 q 323 67 240 67 m 288 -241 q 235 -219 256 -241 q 213 -166 213 -197 q 235 -113 213 -135 q 288 -91 256 -91 q 341 -113 319 -91 q 363 -166 363 -135 q 341 -219 363 -197 q 288 -241 319 -241 m 321 811 l 283 857 l 507 1041 l 534 1041 l 693 857 l 649 811 l 517 971 l 511 971 l 321 811 z "},"ầ":{"ha":778,"x_min":62,"x_max":736,"o":"m 313 -11 q 180 26 236 -11 q 93 130 123 64 q 62 285 62 197 q 87 447 62 368 q 158 588 113 525 q 268 689 204 652 q 410 726 332 726 q 551 682 494 726 q 625 567 608 638 l 595 578 l 661 578 l 621 555 l 653 715 l 736 715 l 629 182 q 623 109 621 138 q 656 66 625 79 l 625 -11 q 575 22 595 1 q 548 68 556 42 q 546 125 541 94 l 574 109 l 513 109 l 565 144 q 453 27 518 66 q 313 -11 387 -11 m 323 67 q 436 100 386 67 q 521 187 486 133 q 574 307 556 241 q 593 438 593 373 q 548 593 593 538 q 422 648 503 648 q 308 617 359 648 q 222 534 258 586 q 168 417 186 481 q 149 286 149 353 q 194 126 149 186 q 323 67 240 67 m 334 958 l 189 1149 l 245 1194 l 386 991 l 334 958 m 314 813 l 275 861 l 500 1013 l 530 1013 l 701 861 l 653 813 l 511 943 l 505 943 l 314 813 z "},"ẩ":{"ha":778,"x_min":62,"x_max":760,"o":"m 313 -11 q 180 26 236 -11 q 93 130 123 64 q 62 285 62 197 q 87 447 62 368 q 158 588 113 525 q 268 689 204 652 q 410 726 332 726 q 551 682 494 726 q 625 567 608 638 l 595 578 l 661 578 l 621 555 l 653 715 l 736 715 l 629 182 q 623 109 621 138 q 656 66 625 79 l 625 -11 q 575 22 595 1 q 548 68 556 42 q 546 125 541 94 l 574 109 l 513 109 l 565 144 q 453 27 518 66 q 313 -11 387 -11 m 323 67 q 436 100 386 67 q 521 187 486 133 q 574 307 556 241 q 593 438 593 373 q 548 593 593 538 q 422 648 503 648 q 308 617 359 648 q 222 534 258 586 q 168 417 186 481 q 149 286 149 353 q 194 126 149 186 q 323 67 240 67 m 656 951 l 612 989 q 661 1032 640 1007 q 686 1079 682 1057 q 677 1114 692 1102 q 629 1126 663 1126 q 590 1124 613 1126 q 549 1116 568 1122 l 555 1176 q 594 1185 573 1183 q 633 1187 616 1187 q 730 1157 701 1187 q 750 1079 760 1127 q 714 1007 743 1042 q 656 951 686 972 m 316 813 l 276 861 l 503 1013 l 532 1013 l 703 861 l 655 813 l 513 943 l 507 943 l 316 813 z "},"ẫ":{"ha":778,"x_min":62,"x_max":747,"o":"m 313 -11 q 180 26 236 -11 q 93 130 123 64 q 62 285 62 197 q 87 447 62 368 q 158 588 113 525 q 268 689 204 652 q 410 726 332 726 q 551 682 494 726 q 625 567 608 638 l 595 578 l 661 578 l 621 555 l 653 715 l 736 715 l 629 182 q 623 109 621 138 q 656 66 625 79 l 625 -11 q 575 22 595 1 q 548 68 556 42 q 546 125 541 94 l 574 109 l 513 109 l 565 144 q 453 27 518 66 q 313 -11 387 -11 m 323 67 q 436 100 386 67 q 521 187 486 133 q 574 307 556 241 q 593 438 593 373 q 548 593 593 538 q 422 648 503 648 q 308 617 359 648 q 222 534 258 586 q 168 417 186 481 q 149 286 149 353 q 194 126 149 186 q 323 67 240 67 m 361 1048 l 300 1056 q 351 1156 312 1120 q 444 1192 391 1192 q 498 1180 477 1192 q 535 1152 519 1168 q 565 1124 550 1136 q 600 1112 579 1112 q 652 1136 629 1112 q 682 1197 675 1159 l 747 1190 q 719 1117 739 1148 q 668 1067 698 1085 q 602 1050 637 1050 q 549 1062 570 1050 q 512 1091 528 1075 q 480 1119 496 1107 q 441 1131 463 1131 q 394 1111 416 1131 q 361 1048 371 1090 m 318 813 l 278 861 l 505 1013 l 534 1013 l 705 861 l 657 813 l 515 943 l 509 943 l 318 813 z "},"ȁ":{"ha":778,"x_min":62,"x_max":736,"o":"m 313 -11 q 180 26 236 -11 q 93 130 123 64 q 62 285 62 197 q 87 447 62 368 q 158 588 113 525 q 268 689 204 652 q 410 726 332 726 q 551 682 494 726 q 625 567 608 638 l 595 578 l 661 578 l 621 555 l 653 715 l 736 715 l 629 182 q 623 109 621 138 q 656 66 625 79 l 625 -11 q 575 22 595 1 q 548 68 556 42 q 546 125 541 94 l 574 109 l 513 109 l 565 144 q 453 27 518 66 q 313 -11 387 -11 m 323 67 q 436 100 386 67 q 521 187 486 133 q 574 307 556 241 q 593 438 593 373 q 548 593 593 538 q 422 648 503 648 q 308 617 359 648 q 222 534 258 586 q 168 417 186 481 q 149 286 149 353 q 194 126 149 186 q 323 67 240 67 m 390 804 l 279 1044 l 347 1080 l 439 821 l 390 804 m 589 804 l 478 1044 l 548 1080 l 637 821 l 589 804 z "},"ä":{"ha":778,"x_min":62,"x_max":736,"o":"m 313 -11 q 180 26 236 -11 q 93 130 123 64 q 62 285 62 197 q 87 447 62 368 q 158 588 113 525 q 268 689 204 652 q 410 726 332 726 q 551 682 494 726 q 625 567 608 638 l 595 578 l 661 578 l 621 555 l 653 715 l 736 715 l 629 182 q 623 109 621 138 q 656 66 625 79 l 625 -11 q 575 22 595 1 q 548 68 556 42 q 546 125 541 94 l 574 109 l 513 109 l 565 144 q 453 27 518 66 q 313 -11 387 -11 m 323 67 q 436 100 386 67 q 521 187 486 133 q 574 307 556 241 q 593 438 593 373 q 548 593 593 538 q 422 648 503 648 q 308 617 359 648 q 222 534 258 586 q 168 417 186 481 q 149 286 149 353 q 194 126 149 186 q 323 67 240 67 m 627 847 q 575 868 596 847 q 553 921 553 890 q 575 974 553 952 q 627 995 596 995 q 680 974 659 995 q 701 921 701 952 q 680 868 701 890 q 627 847 659 847 m 377 847 q 324 868 345 847 q 303 921 303 890 q 324 974 303 952 q 377 995 345 995 q 429 974 408 995 q 450 921 450 952 q 429 868 450 890 q 377 847 408 847 z "},"ȧ":{"ha":778,"x_min":62,"x_max":736,"o":"m 313 -11 q 180 26 236 -11 q 93 130 123 64 q 62 285 62 197 q 87 447 62 368 q 158 588 113 525 q 268 689 204 652 q 410 726 332 726 q 551 682 494 726 q 625 567 608 638 l 595 578 l 661 578 l 621 555 l 653 715 l 736 715 l 629 182 q 623 109 621 138 q 656 66 625 79 l 625 -11 q 575 22 595 1 q 548 68 556 42 q 546 125 541 94 l 574 109 l 513 109 l 565 144 q 453 27 518 66 q 313 -11 387 -11 m 323 67 q 436 100 386 67 q 521 187 486 133 q 574 307 556 241 q 593 438 593 373 q 548 593 593 538 q 422 648 503 648 q 308 617 359 648 q 222 534 258 586 q 168 417 186 481 q 149 286 149 353 q 194 126 149 186 q 323 67 240 67 m 502 842 q 448 864 470 842 q 427 918 427 886 q 448 971 427 949 q 502 993 470 993 q 555 971 533 993 q 577 918 577 949 q 555 864 577 886 q 502 842 533 842 z "},"ạ":{"ha":778,"x_min":62,"x_max":736,"o":"m 313 -11 q 180 26 236 -11 q 93 130 123 64 q 62 285 62 197 q 87 447 62 368 q 158 588 113 525 q 268 689 204 652 q 410 726 332 726 q 551 682 494 726 q 625 567 608 638 l 595 578 l 661 578 l 621 555 l 653 715 l 736 715 l 629 182 q 623 109 621 138 q 656 66 625 79 l 625 -11 q 575 22 595 1 q 548 68 556 42 q 546 125 541 94 l 574 109 l 513 109 l 565 144 q 453 27 518 66 q 313 -11 387 -11 m 323 67 q 436 100 386 67 q 521 187 486 133 q 574 307 556 241 q 593 438 593 373 q 548 593 593 538 q 422 648 503 648 q 308 617 359 648 q 222 534 258 586 q 168 417 186 481 q 149 286 149 353 q 194 126 149 186 q 323 67 240 67 m 288 -241 q 235 -219 256 -241 q 213 -166 213 -197 q 235 -113 213 -135 q 288 -91 256 -91 q 341 -113 319 -91 q 363 -166 363 -135 q 341 -219 363 -197 q 288 -241 319 -241 z "},"à":{"ha":778,"x_min":62,"x_max":736,"o":"m 313 -11 q 180 26 236 -11 q 93 130 123 64 q 62 285 62 197 q 87 447 62 368 q 158 588 113 525 q 268 689 204 652 q 410 726 332 726 q 551 682 494 726 q 625 567 608 638 l 595 578 l 661 578 l 621 555 l 653 715 l 736 715 l 629 182 q 623 109 621 138 q 656 66 625 79 l 625 -11 q 575 22 595 1 q 548 68 556 42 q 546 125 541 94 l 574 109 l 513 109 l 565 144 q 453 27 518 66 q 313 -11 387 -11 m 323 67 q 436 100 386 67 q 521 187 486 133 q 574 307 556 241 q 593 438 593 373 q 548 593 593 538 q 422 648 503 648 q 308 617 359 648 q 222 534 258 586 q 168 417 186 481 q 149 286 149 353 q 194 126 149 186 q 323 67 240 67 m 481 804 l 333 1013 l 408 1067 l 533 840 l 481 804 z "},"ả":{"ha":778,"x_min":62,"x_max":736,"o":"m 313 -11 q 180 26 236 -11 q 93 130 123 64 q 62 285 62 197 q 87 447 62 368 q 158 588 113 525 q 268 689 204 652 q 410 726 332 726 q 551 682 494 726 q 625 567 608 638 l 595 578 l 661 578 l 621 555 l 653 715 l 736 715 l 629 182 q 623 109 621 138 q 656 66 625 79 l 625 -11 q 575 22 595 1 q 548 68 556 42 q 546 125 541 94 l 574 109 l 513 109 l 565 144 q 453 27 518 66 q 313 -11 387 -11 m 323 67 q 436 100 386 67 q 521 187 486 133 q 574 307 556 241 q 593 438 593 373 q 548 593 593 538 q 422 648 503 648 q 308 617 359 648 q 222 534 258 586 q 168 417 186 481 q 149 286 149 353 q 194 126 149 186 q 323 67 240 67 m 492 800 l 460 844 q 514 882 492 859 q 541 928 536 905 q 531 965 546 951 q 486 978 516 978 q 441 973 465 978 q 400 962 418 968 l 408 1025 q 450 1035 429 1032 q 490 1038 471 1038 q 583 1007 555 1038 q 601 927 610 975 q 563 854 593 888 q 492 800 532 820 z "},"ȃ":{"ha":778,"x_min":62,"x_max":736,"o":"m 313 -11 q 180 26 236 -11 q 93 130 123 64 q 62 285 62 197 q 87 447 62 368 q 158 588 113 525 q 268 689 204 652 q 410 726 332 726 q 551 682 494 726 q 625 567 608 638 l 595 578 l 661 578 l 621 555 l 653 715 l 736 715 l 629 182 q 623 109 621 138 q 656 66 625 79 l 625 -11 q 575 22 595 1 q 548 68 556 42 q 546 125 541 94 l 574 109 l 513 109 l 565 144 q 453 27 518 66 q 313 -11 387 -11 m 323 67 q 436 100 386 67 q 521 187 486 133 q 574 307 556 241 q 593 438 593 373 q 548 593 593 538 q 422 648 503 648 q 308 617 359 648 q 222 534 258 586 q 168 417 186 481 q 149 286 149 353 q 194 126 149 186 q 323 67 240 67 m 697 827 l 637 836 q 618 934 650 894 q 517 974 585 974 q 402 930 448 974 q 345 828 357 887 l 283 838 q 330 941 296 898 q 414 1008 364 985 q 524 1031 465 1031 q 628 1004 584 1031 q 691 931 671 977 q 697 827 711 884 z "},"ā":{"ha":778,"x_min":62,"x_max":738,"o":"m 313 -11 q 180 26 236 -11 q 93 130 123 64 q 62 285 62 197 q 87 447 62 368 q 158 588 113 525 q 268 689 204 652 q 410 726 332 726 q 551 682 494 726 q 625 567 608 638 l 595 578 l 661 578 l 621 555 l 653 715 l 736 715 l 629 182 q 623 109 621 138 q 656 66 625 79 l 625 -11 q 575 22 595 1 q 548 68 556 42 q 546 125 541 94 l 574 109 l 513 109 l 565 144 q 453 27 518 66 q 313 -11 387 -11 m 323 67 q 436 100 386 67 q 521 187 486 133 q 574 307 556 241 q 593 438 593 373 q 548 593 593 538 q 422 648 503 648 q 308 617 359 648 q 222 534 258 586 q 168 417 186 481 q 149 286 149 353 q 194 126 149 186 q 323 67 240 67 m 263 884 l 275 944 l 738 944 l 726 884 l 263 884 z "},"ą":{"ha":778,"x_min":62,"x_max":736,"o":"m 313 -11 q 180 26 236 -11 q 93 130 123 64 q 62 285 62 197 q 87 447 62 368 q 158 588 113 525 q 268 689 204 652 q 410 726 332 726 q 551 682 494 726 q 625 567 608 638 l 595 578 l 661 578 l 621 555 l 653 715 l 736 715 l 629 182 q 623 109 621 138 q 656 66 625 79 l 625 -11 q 575 22 595 1 q 548 68 556 42 q 546 125 541 94 l 574 109 l 513 109 l 565 144 q 453 27 518 66 q 313 -11 387 -11 m 323 67 q 436 100 386 67 q 521 187 486 133 q 574 307 556 241 q 593 438 593 373 q 548 593 593 538 q 422 648 503 648 q 308 617 359 648 q 222 534 258 586 q 168 417 186 481 q 149 286 149 353 q 194 126 149 186 q 323 67 240 67 m 532 -271 q 454 -239 479 -271 q 438 -158 429 -207 q 470 -87 446 -119 q 524 -27 493 -56 q 584 33 555 1 l 623 -11 q 573 -62 600 -37 q 528 -113 547 -87 q 503 -163 508 -138 q 510 -196 499 -184 q 544 -209 520 -209 q 575 -204 556 -209 q 618 -186 594 -199 l 608 -254 q 572 -266 591 -261 q 532 -271 552 -271 z "},"å":{"ha":778,"x_min":62,"x_max":736,"o":"m 313 -11 q 180 26 236 -11 q 93 130 123 64 q 62 285 62 197 q 87 447 62 368 q 158 588 113 525 q 268 689 204 652 q 410 726 332 726 q 551 682 494 726 q 625 567 608 638 l 595 578 l 661 578 l 621 555 l 653 715 l 736 715 l 629 182 q 623 109 621 138 q 656 66 625 79 l 625 -11 q 575 22 595 1 q 548 68 556 42 q 546 125 541 94 l 574 109 l 513 109 l 565 144 q 453 27 518 66 q 313 -11 387 -11 m 323 67 q 436 100 386 67 q 521 187 486 133 q 574 307 556 241 q 593 438 593 373 q 548 593 593 538 q 422 648 503 648 q 308 617 359 648 q 222 534 258 586 q 168 417 186 481 q 149 286 149 353 q 194 126 149 186 q 323 67 240 67 m 492 812 q 424 831 453 812 q 381 882 395 850 q 375 952 368 914 q 427 1040 385 1005 q 524 1076 470 1076 q 592 1056 564 1076 q 634 1005 621 1037 q 640 935 647 973 q 588 848 629 884 q 492 812 547 812 m 494 865 q 552 887 524 865 q 585 941 579 908 q 573 999 592 974 q 520 1023 554 1023 q 463 1002 490 1023 q 429 947 435 980 q 441 891 422 917 q 494 865 460 865 z "},"ǻ":{"ha":778,"x_min":62,"x_max":748,"o":"m 493 812 q 424 831 454 812 q 381 882 395 850 q 375 952 368 914 q 428 1040 385 1005 q 524 1076 471 1076 q 592 1056 564 1076 q 634 1005 621 1037 q 640 935 648 973 q 589 848 630 884 q 493 812 547 812 m 494 865 q 552 887 524 865 q 585 941 579 908 q 573 999 592 974 q 521 1023 555 1023 q 463 1002 490 1023 q 429 947 435 980 q 442 891 423 917 q 494 865 460 865 m 589 1105 l 534 1152 l 690 1343 l 748 1288 l 589 1105 m 313 -11 q 180 26 236 -11 q 93 130 123 64 q 62 285 62 197 q 87 447 62 368 q 158 588 113 525 q 268 689 204 652 q 410 726 332 726 q 551 682 494 726 q 625 567 608 638 l 595 578 l 661 578 l 621 555 l 653 715 l 736 715 l 629 182 q 623 109 621 138 q 656 66 625 79 l 625 -11 q 575 22 595 1 q 548 68 556 42 q 546 125 541 94 l 574 109 l 513 109 l 565 144 q 453 27 518 66 q 313 -11 387 -11 m 323 67 q 436 100 386 67 q 521 187 486 133 q 574 307 556 241 q 593 438 593 373 q 548 593 593 538 q 422 648 503 648 q 308 617 359 648 q 222 534 258 586 q 168 417 186 481 q 149 286 149 353 q 194 126 149 186 q 323 67 240 67 z "},"ã":{"ha":778,"x_min":62,"x_max":736,"o":"m 313 -11 q 180 26 236 -11 q 93 130 123 64 q 62 285 62 197 q 87 447 62 368 q 158 588 113 525 q 268 689 204 652 q 410 726 332 726 q 551 682 494 726 q 625 567 608 638 l 595 578 l 661 578 l 621 555 l 653 715 l 736 715 l 629 182 q 623 109 621 138 q 656 66 625 79 l 625 -11 q 575 22 595 1 q 548 68 556 42 q 546 125 541 94 l 574 109 l 513 109 l 565 144 q 453 27 518 66 q 313 -11 387 -11 m 323 67 q 436 100 386 67 q 521 187 486 133 q 574 307 556 241 q 593 438 593 373 q 548 593 593 538 q 422 648 503 648 q 308 617 359 648 q 222 534 258 586 q 168 417 186 481 q 149 286 149 353 q 194 126 149 186 q 323 67 240 67 m 337 830 l 273 836 q 305 919 283 886 q 358 969 328 953 q 423 986 389 986 q 481 972 460 986 q 516 941 502 959 q 545 910 531 924 q 581 897 559 897 q 635 923 612 897 q 667 989 658 950 l 729 983 q 696 901 719 935 q 643 850 673 868 q 578 833 612 833 q 523 847 544 833 q 488 879 503 861 q 457 910 473 897 q 420 924 442 924 q 368 898 391 924 q 337 830 345 872 z "},"æ":{"ha":1226,"x_min":63,"x_max":1173,"o":"m 298 -11 q 125 70 187 -11 q 63 282 63 151 q 86 446 63 366 q 154 588 110 525 q 259 689 197 652 q 397 726 320 726 q 543 677 481 726 q 620 545 604 627 l 560 591 l 640 591 l 593 536 l 627 715 l 711 715 l 619 236 q 607 122 608 182 q 610 0 605 62 l 527 0 q 525 67 524 32 q 528 143 525 103 l 536 113 l 512 113 l 542 142 q 429 24 495 58 q 298 -11 363 -11 m 321 63 q 421 90 376 63 q 499 163 466 117 q 552 270 532 210 q 577 395 572 329 q 567 528 583 470 q 512 619 551 586 q 412 652 474 652 q 302 621 351 652 q 218 536 253 589 q 165 418 184 483 q 147 286 147 353 q 192 125 147 187 q 321 63 237 63 m 844 -11 q 695 29 753 -11 q 609 140 636 69 q 587 302 583 211 q 620 466 592 389 q 696 601 648 542 q 805 693 743 659 q 937 726 866 726 q 1057 694 1004 726 q 1142 603 1111 663 q 1173 459 1173 543 q 1168 391 1173 429 q 1155 327 1163 353 l 647 327 l 659 397 l 1088 397 q 1092 430 1090 414 q 1094 462 1094 446 q 1047 601 1094 552 q 929 650 1001 650 q 818 615 868 650 q 731 525 767 581 q 674 403 694 469 q 654 271 654 336 q 677 158 654 203 q 743 89 701 112 q 845 66 786 66 q 954 86 901 66 q 1043 138 1007 106 l 1068 62 q 971 12 1029 34 q 844 -11 913 -11 z "},"ǽ":{"ha":1226,"x_min":63,"x_max":1173,"o":"m 298 -11 q 125 70 187 -11 q 63 282 63 151 q 86 446 63 366 q 154 588 110 525 q 259 689 197 652 q 397 726 320 726 q 543 677 481 726 q 620 545 604 627 l 560 591 l 640 591 l 593 536 l 627 715 l 711 715 l 619 236 q 607 122 608 182 q 610 0 605 62 l 527 0 q 525 67 524 32 q 528 143 525 103 l 536 113 l 512 113 l 542 142 q 429 24 495 58 q 298 -11 363 -11 m 321 63 q 421 90 376 63 q 499 163 466 117 q 552 270 532 210 q 577 395 572 329 q 567 528 583 470 q 512 619 551 586 q 412 652 474 652 q 302 621 351 652 q 218 536 253 589 q 165 418 184 483 q 147 286 147 353 q 192 125 147 187 q 321 63 237 63 m 844 -11 q 695 29 753 -11 q 609 140 636 69 q 587 302 583 211 q 620 466 592 389 q 696 601 648 542 q 805 693 743 659 q 937 726 866 726 q 1057 694 1004 726 q 1142 603 1111 663 q 1173 459 1173 543 q 1168 391 1173 429 q 1155 327 1163 353 l 647 327 l 659 397 l 1088 397 q 1092 430 1090 414 q 1094 462 1094 446 q 1047 601 1094 552 q 929 650 1001 650 q 818 615 868 650 q 731 525 767 581 q 674 403 694 469 q 654 271 654 336 q 677 158 654 203 q 743 89 701 112 q 845 66 786 66 q 954 86 901 66 q 1043 138 1007 106 l 1068 62 q 971 12 1029 34 q 844 -11 913 -11 m 652 802 l 600 843 l 777 1069 l 834 1017 l 652 802 z "},"b":{"ha":797,"x_min":31,"x_max":734,"o":"m 31 0 l 241 1044 l 327 1044 l 240 613 l 256 613 l 216 547 l 148 210 l 167 143 l 142 143 l 114 0 l 31 0 m 375 -11 q 245 21 302 -11 q 156 118 189 54 q 123 277 123 182 q 148 440 123 360 q 221 585 174 520 q 336 688 269 649 q 484 726 402 726 q 612 694 555 726 q 702 596 669 661 q 734 433 734 530 q 709 270 734 349 q 637 128 684 191 q 524 27 590 64 q 375 -11 457 -11 m 370 67 q 487 99 435 67 q 575 183 539 130 q 631 300 612 236 q 650 431 650 365 q 602 592 650 536 q 469 648 554 648 q 350 617 403 648 q 259 534 297 586 q 200 418 220 482 q 180 288 180 354 q 233 124 180 180 q 370 67 286 67 z "},"c":{"ha":672,"x_min":64,"x_max":659,"o":"m 348 -9 q 200 30 264 -9 q 100 138 136 68 q 64 300 64 208 q 93 462 64 385 q 172 598 121 538 q 293 692 222 657 q 448 726 363 726 q 570 706 513 726 q 659 654 628 685 l 615 583 q 545 630 593 612 q 446 648 498 648 q 326 619 380 648 q 232 541 271 590 q 172 429 193 491 q 151 300 151 366 q 174 181 151 233 q 242 99 198 129 q 347 69 286 69 q 456 93 403 69 q 542 146 510 117 l 566 67 q 462 11 517 31 q 348 -9 407 -9 z "},"ć":{"ha":672,"x_min":64,"x_max":661,"o":"m 348 -9 q 200 30 264 -9 q 100 138 136 68 q 64 300 64 208 q 93 462 64 385 q 172 598 121 538 q 293 692 222 657 q 448 726 363 726 q 570 706 513 726 q 659 654 628 685 l 615 583 q 545 630 593 612 q 446 648 498 648 q 326 619 380 648 q 232 541 271 590 q 172 429 193 491 q 151 300 151 366 q 174 181 151 233 q 242 99 198 129 q 347 69 286 69 q 456 93 403 69 q 542 146 510 117 l 566 67 q 462 11 517 31 q 348 -9 407 -9 m 479 802 l 427 843 l 604 1069 l 661 1017 l 479 802 z "},"č":{"ha":672,"x_min":64,"x_max":712,"o":"m 348 -9 q 200 30 264 -9 q 100 138 136 68 q 64 300 64 208 q 93 462 64 385 q 172 598 121 538 q 293 692 222 657 q 448 726 363 726 q 570 706 513 726 q 659 654 628 685 l 615 583 q 545 630 593 612 q 446 648 498 648 q 326 619 380 648 q 232 541 271 590 q 172 429 193 491 q 151 300 151 366 q 174 181 151 233 q 242 99 198 129 q 347 69 286 69 q 456 93 403 69 q 542 146 510 117 l 566 67 q 462 11 517 31 q 348 -9 407 -9 m 460 811 l 300 996 l 345 1041 l 479 882 l 484 882 l 674 1041 l 712 996 l 487 811 l 460 811 z "},"ç":{"ha":672,"x_min":64,"x_max":659,"o":"m 348 -9 q 200 30 264 -9 q 100 138 136 68 q 64 300 64 208 q 93 462 64 385 q 172 598 121 538 q 293 692 222 657 q 448 726 363 726 q 570 706 513 726 q 659 654 628 685 l 615 583 q 545 630 593 612 q 446 648 498 648 q 326 619 380 648 q 232 541 271 590 q 172 429 193 491 q 151 300 151 366 q 174 181 151 233 q 242 99 198 129 q 347 69 286 69 q 456 93 403 69 q 542 146 510 117 l 566 67 q 462 11 517 31 q 348 -9 407 -9 m 165 -305 l 171 -249 q 282 -233 238 -251 q 334 -176 326 -215 q 315 -136 339 -151 q 241 -119 292 -121 l 302 0 l 357 0 l 299 -109 l 292 -77 q 350 -92 325 -78 q 387 -131 375 -106 q 393 -190 399 -155 q 352 -259 384 -234 q 273 -295 321 -285 q 165 -305 224 -305 z "},"ḉ":{"ha":672,"x_min":64,"x_max":661,"o":"m 348 -9 q 200 30 264 -9 q 100 138 136 68 q 64 300 64 208 q 93 462 64 385 q 172 598 121 538 q 293 692 222 657 q 448 726 363 726 q 570 706 513 726 q 659 654 628 685 l 615 583 q 545 630 593 612 q 446 648 498 648 q 326 619 380 648 q 232 541 271 590 q 172 429 193 491 q 151 300 151 366 q 174 181 151 233 q 242 99 198 129 q 347 69 286 69 q 456 93 403 69 q 542 146 510 117 l 566 67 q 462 11 517 31 q 348 -9 407 -9 m 165 -305 l 171 -249 q 282 -233 238 -251 q 334 -176 326 -215 q 315 -136 339 -151 q 241 -119 292 -121 l 302 0 l 357 0 l 299 -109 l 292 -77 q 350 -92 325 -78 q 387 -131 375 -106 q 393 -190 399 -155 q 352 -259 384 -234 q 273 -295 321 -285 q 165 -305 224 -305 m 479 802 l 427 843 l 604 1069 l 661 1017 l 479 802 z "},"ĉ":{"ha":672,"x_min":64,"x_max":692,"o":"m 348 -9 q 200 30 264 -9 q 100 138 136 68 q 64 300 64 208 q 93 462 64 385 q 172 598 121 538 q 293 692 222 657 q 448 726 363 726 q 570 706 513 726 q 659 654 628 685 l 615 583 q 545 630 593 612 q 446 648 498 648 q 326 619 380 648 q 232 541 271 590 q 172 429 193 491 q 151 300 151 366 q 174 181 151 233 q 242 99 198 129 q 347 69 286 69 q 456 93 403 69 q 542 146 510 117 l 566 67 q 462 11 517 31 q 348 -9 407 -9 m 319 811 l 281 857 l 505 1041 l 533 1041 l 692 857 l 648 811 l 515 971 l 509 971 l 319 811 z "},"ċ":{"ha":672,"x_min":64,"x_max":659,"o":"m 348 -9 q 200 30 264 -9 q 100 138 136 68 q 64 300 64 208 q 93 462 64 385 q 172 598 121 538 q 293 692 222 657 q 448 726 363 726 q 570 706 513 726 q 659 654 628 685 l 615 583 q 545 630 593 612 q 446 648 498 648 q 326 619 380 648 q 232 541 271 590 q 172 429 193 491 q 151 300 151 366 q 174 181 151 233 q 242 99 198 129 q 347 69 286 69 q 456 93 403 69 q 542 146 510 117 l 566 67 q 462 11 517 31 q 348 -9 407 -9 m 500 842 q 447 864 469 842 q 425 918 425 886 q 447 971 425 949 q 500 993 469 993 q 554 971 532 993 q 576 918 576 949 q 554 864 576 886 q 500 842 532 842 z "},"d":{"ha":815,"x_min":64,"x_max":827,"o":"m 640 -11 q 592 26 610 8 q 568 70 574 44 q 570 138 562 96 l 588 113 l 543 113 l 584 178 l 650 511 l 635 580 l 648 580 l 741 1044 l 827 1044 l 655 183 q 649 113 646 141 q 686 65 651 84 l 640 -11 m 326 -11 q 187 29 246 -11 q 96 139 128 69 q 64 298 64 210 q 91 456 64 380 q 166 594 117 533 q 282 690 215 654 q 429 726 349 726 q 566 689 512 726 q 647 585 620 651 q 674 436 674 519 q 650 275 674 355 q 580 131 625 196 q 470 28 534 66 q 326 -11 406 -11 m 333 67 q 449 98 397 67 q 539 180 502 129 q 598 295 577 232 q 618 423 618 358 q 569 586 618 524 q 430 648 519 648 q 314 617 366 648 q 225 534 262 586 q 169 419 189 482 q 149 290 149 355 q 196 129 149 191 q 333 67 243 67 z "},"ď":{"ha":815,"x_min":64,"x_max":996,"o":"m 640 -11 q 592 26 610 8 q 568 70 574 44 q 570 138 562 96 l 588 113 l 543 113 l 584 178 l 650 511 l 635 580 l 648 580 l 741 1044 l 827 1044 l 655 183 q 649 113 646 141 q 686 65 651 84 l 640 -11 m 326 -11 q 187 29 246 -11 q 96 139 128 69 q 64 298 64 210 q 91 456 64 380 q 166 594 117 533 q 282 690 215 654 q 429 726 349 726 q 566 689 512 726 q 647 585 620 651 q 674 436 674 519 q 650 275 674 355 q 580 131 625 196 q 470 28 534 66 q 326 -11 406 -11 m 333 67 q 449 98 397 67 q 539 180 502 129 q 598 295 577 232 q 618 423 618 358 q 569 586 618 524 q 430 648 519 648 q 314 617 366 648 q 225 534 262 586 q 169 419 189 482 q 149 290 149 355 q 196 129 149 191 q 333 67 243 67 m 857 751 l 921 1044 l 996 1044 l 924 751 l 857 751 z "},"đ":{"ha":815,"x_min":64,"x_max":932,"o":"m 640 -11 q 592 26 610 8 q 568 70 574 44 q 570 138 562 96 l 588 113 l 543 113 l 584 178 l 650 511 l 635 580 l 648 580 l 741 1044 l 827 1044 l 655 183 q 649 113 646 141 q 686 65 651 84 l 640 -11 m 326 -11 q 187 29 246 -11 q 96 139 128 69 q 64 298 64 210 q 91 456 64 380 q 166 594 117 533 q 282 690 215 654 q 429 726 349 726 q 566 689 512 726 q 647 585 620 651 q 674 436 674 519 q 650 275 674 355 q 580 131 625 196 q 470 28 534 66 q 326 -11 406 -11 m 333 67 q 449 98 397 67 q 539 180 502 129 q 598 295 577 232 q 618 423 618 358 q 569 586 618 524 q 430 648 519 648 q 314 617 366 648 q 225 534 262 586 q 169 419 189 482 q 149 290 149 355 q 196 129 149 191 q 333 67 243 67 m 578 826 l 593 895 l 932 895 l 916 826 l 578 826 z "},"ḍ":{"ha":815,"x_min":64,"x_max":827,"o":"m 640 -11 q 592 26 610 8 q 568 70 574 44 q 570 138 562 96 l 588 113 l 543 113 l 584 178 l 650 511 l 635 580 l 648 580 l 741 1044 l 827 1044 l 655 183 q 649 113 646 141 q 686 65 651 84 l 640 -11 m 326 -11 q 187 29 246 -11 q 96 139 128 69 q 64 298 64 210 q 91 456 64 380 q 166 594 117 533 q 282 690 215 654 q 429 726 349 726 q 566 689 512 726 q 647 585 620 651 q 674 436 674 519 q 650 275 674 355 q 580 131 625 196 q 470 28 534 66 q 326 -11 406 -11 m 333 67 q 449 98 397 67 q 539 180 502 129 q 598 295 577 232 q 618 423 618 358 q 569 586 618 524 q 430 648 519 648 q 314 617 366 648 q 225 534 262 586 q 169 419 189 482 q 149 290 149 355 q 196 129 149 191 q 333 67 243 67 m 305 -241 q 252 -219 273 -241 q 230 -166 230 -197 q 252 -113 230 -135 q 305 -91 273 -91 q 358 -113 336 -91 q 380 -166 380 -135 q 358 -219 380 -197 q 305 -241 336 -241 z "},"ḏ":{"ha":815,"x_min":56,"x_max":827,"o":"m 640 -11 q 592 26 610 8 q 568 70 574 44 q 570 138 562 96 l 588 113 l 543 113 l 584 178 l 650 511 l 635 580 l 648 580 l 741 1044 l 827 1044 l 655 183 q 649 113 646 141 q 686 65 651 84 l 640 -11 m 326 -11 q 187 29 246 -11 q 96 139 128 69 q 64 298 64 210 q 91 456 64 380 q 166 594 117 533 q 282 690 215 654 q 429 726 349 726 q 566 689 512 726 q 647 585 620 651 q 674 436 674 519 q 650 275 674 355 q 580 131 625 196 q 470 28 534 66 q 326 -11 406 -11 m 333 67 q 449 98 397 67 q 539 180 502 129 q 598 295 577 232 q 618 423 618 358 q 569 586 618 524 q 430 648 519 648 q 314 617 366 648 q 225 534 262 586 q 169 419 189 482 q 149 290 149 355 q 196 129 149 191 q 333 67 243 67 m 56 -262 l 67 -201 l 530 -201 l 518 -262 l 56 -262 z "},"ǆ":{"ha":1459,"x_min":64,"x_max":1461,"o":"m 640 -11 q 592 26 610 8 q 568 70 574 44 q 570 138 562 96 l 588 113 l 543 113 l 584 178 l 650 511 l 635 580 l 648 580 l 741 1044 l 827 1044 l 655 183 q 649 113 646 141 q 686 65 651 84 l 640 -11 m 326 -11 q 187 29 246 -11 q 96 139 128 69 q 64 298 64 210 q 91 456 64 380 q 166 594 117 533 q 282 690 215 654 q 429 726 349 726 q 566 689 512 726 q 647 585 620 651 q 674 436 674 519 q 650 275 674 355 q 580 131 625 196 q 470 28 534 66 q 326 -11 406 -11 m 333 67 q 449 98 397 67 q 539 180 502 129 q 598 295 577 232 q 618 423 618 358 q 569 586 618 524 q 430 648 519 648 q 314 617 366 648 q 225 534 262 586 q 169 419 189 482 q 149 290 149 355 q 196 129 149 191 q 333 67 243 67 m 806 0 l 811 26 l 1313 635 l 1313 640 l 951 640 l 966 715 l 1459 715 l 1456 692 l 954 81 l 954 77 l 1337 77 l 1322 0 l 806 0 m 1209 811 l 1049 996 l 1094 1041 l 1227 882 l 1233 882 l 1423 1041 l 1461 996 l 1236 811 l 1209 811 z "},"ð":{"ha":801,"x_min":68,"x_max":769,"o":"m 360 -11 q 208 28 273 -11 q 105 138 142 68 q 68 298 68 208 q 95 448 68 376 q 171 575 122 519 q 286 664 220 631 q 429 696 352 696 q 535 680 484 696 q 622 633 585 663 q 673 561 659 602 l 650 587 l 682 587 l 665 579 q 626 735 658 665 q 548 858 595 805 q 445 949 500 911 q 334 1010 390 987 l 374 1079 q 576 943 494 1027 q 698 749 657 859 q 739 511 739 640 q 715 319 739 413 q 643 151 691 226 q 524 33 595 77 q 360 -11 453 -11 m 361 69 q 474 99 422 69 q 565 180 526 130 q 624 291 603 231 q 646 412 646 351 q 589 567 646 511 q 442 622 533 622 q 291 576 357 622 q 188 458 225 531 q 151 302 151 385 q 180 176 151 229 q 257 96 210 123 q 361 69 305 69 m 313 782 l 294 835 l 748 1078 l 769 1026 l 313 782 z "},"e":{"ha":730,"x_min":63,"x_max":678,"o":"m 340 -11 q 194 26 256 -11 q 97 130 132 62 q 63 289 63 197 q 89 450 63 372 q 163 591 115 528 q 277 690 211 653 q 424 726 343 726 q 562 690 505 726 q 649 592 619 653 q 678 458 678 531 q 675 410 678 435 q 668 363 672 385 q 657 326 663 340 l 125 326 l 138 397 l 593 397 q 598 429 597 413 q 600 458 600 444 q 552 596 600 543 q 422 649 504 649 q 307 618 358 649 q 219 535 256 587 q 162 420 182 484 q 142 291 142 356 q 195 127 142 189 q 345 66 247 66 q 450 86 401 66 q 540 140 499 107 l 569 66 q 468 12 526 35 q 340 -11 410 -11 z "},"é":{"ha":730,"x_min":63,"x_max":678,"o":"m 340 -11 q 194 26 256 -11 q 97 130 132 62 q 63 289 63 197 q 89 450 63 372 q 163 591 115 528 q 277 690 211 653 q 424 726 343 726 q 562 690 505 726 q 649 592 619 653 q 678 458 678 531 q 675 410 678 435 q 668 363 672 385 q 657 326 663 340 l 125 326 l 138 397 l 593 397 q 598 429 597 413 q 600 458 600 444 q 552 596 600 543 q 422 649 504 649 q 307 618 358 649 q 219 535 256 587 q 162 420 182 484 q 142 291 142 356 q 195 127 142 189 q 345 66 247 66 q 450 86 401 66 q 540 140 499 107 l 569 66 q 468 12 526 35 q 340 -11 410 -11 m 461 802 l 410 843 l 587 1069 l 644 1017 l 461 802 z "},"ĕ":{"ha":730,"x_min":63,"x_max":715,"o":"m 340 -11 q 194 26 256 -11 q 97 130 132 62 q 63 289 63 197 q 89 450 63 372 q 163 591 115 528 q 277 690 211 653 q 424 726 343 726 q 562 690 505 726 q 649 592 619 653 q 678 458 678 531 q 675 410 678 435 q 668 363 672 385 q 657 326 663 340 l 125 326 l 138 397 l 593 397 q 598 429 597 413 q 600 458 600 444 q 552 596 600 543 q 422 649 504 649 q 307 618 358 649 q 219 535 256 587 q 162 420 182 484 q 142 291 142 356 q 195 127 142 189 q 345 66 247 66 q 450 86 401 66 q 540 140 499 107 l 569 66 q 468 12 526 35 q 340 -11 410 -11 m 472 825 q 370 853 413 825 q 307 927 327 881 q 298 1029 288 974 l 359 1021 q 379 923 347 962 q 473 883 412 883 q 554 903 515 883 q 620 957 593 923 q 654 1029 647 990 l 715 1021 q 669 920 705 964 q 581 850 633 876 q 472 825 530 825 z "},"ě":{"ha":730,"x_min":63,"x_max":694,"o":"m 340 -11 q 194 26 256 -11 q 97 130 132 62 q 63 289 63 197 q 89 450 63 372 q 163 591 115 528 q 277 690 211 653 q 424 726 343 726 q 562 690 505 726 q 649 592 619 653 q 678 458 678 531 q 675 410 678 435 q 668 363 672 385 q 657 326 663 340 l 125 326 l 138 397 l 593 397 q 598 429 597 413 q 600 458 600 444 q 552 596 600 543 q 422 649 504 649 q 307 618 358 649 q 219 535 256 587 q 162 420 182 484 q 142 291 142 356 q 195 127 142 189 q 345 66 247 66 q 450 86 401 66 q 540 140 499 107 l 569 66 q 468 12 526 35 q 340 -11 410 -11 m 443 811 l 283 996 l 328 1041 l 461 882 l 467 882 l 656 1041 l 694 996 l 469 811 l 443 811 z "},"ḝ":{"ha":730,"x_min":63,"x_max":715,"o":"m 340 -11 q 194 26 256 -11 q 97 130 132 62 q 63 289 63 197 q 89 450 63 372 q 163 591 115 528 q 277 690 211 653 q 424 726 343 726 q 562 690 505 726 q 649 592 619 653 q 678 458 678 531 q 675 410 678 435 q 668 363 672 385 q 657 326 663 340 l 125 326 l 138 397 l 593 397 q 598 429 597 413 q 600 458 600 444 q 552 596 600 543 q 422 649 504 649 q 307 618 358 649 q 219 535 256 587 q 162 420 182 484 q 142 291 142 356 q 195 127 142 189 q 345 66 247 66 q 450 86 401 66 q 540 140 499 107 l 569 66 q 468 12 526 35 q 340 -11 410 -11 m 144 -305 l 151 -249 q 262 -233 218 -251 q 313 -176 306 -215 q 295 -136 319 -151 q 220 -119 271 -121 l 281 0 l 337 0 l 279 -109 l 272 -77 q 330 -92 304 -78 q 367 -131 355 -106 q 372 -190 379 -155 q 332 -259 363 -234 q 252 -295 300 -285 q 144 -305 204 -305 m 472 825 q 370 853 413 825 q 307 927 327 881 q 298 1029 288 974 l 359 1021 q 379 923 347 962 q 473 883 412 883 q 554 903 515 883 q 620 957 593 923 q 654 1029 647 990 l 715 1021 q 669 920 705 964 q 581 850 633 876 q 472 825 530 825 z "},"ê":{"ha":730,"x_min":63,"x_max":678,"o":"m 340 -11 q 194 26 256 -11 q 97 130 132 62 q 63 289 63 197 q 89 450 63 372 q 163 591 115 528 q 277 690 211 653 q 424 726 343 726 q 562 690 505 726 q 649 592 619 653 q 678 458 678 531 q 675 410 678 435 q 668 363 672 385 q 657 326 663 340 l 125 326 l 138 397 l 593 397 q 598 429 597 413 q 600 458 600 444 q 552 596 600 543 q 422 649 504 649 q 307 618 358 649 q 219 535 256 587 q 162 420 182 484 q 142 291 142 356 q 195 127 142 189 q 345 66 247 66 q 450 86 401 66 q 540 140 499 107 l 569 66 q 468 12 526 35 q 340 -11 410 -11 m 302 811 l 264 857 l 488 1041 l 515 1041 l 674 857 l 630 811 l 498 971 l 492 971 l 302 811 z "},"ế":{"ha":730,"x_min":63,"x_max":867,"o":"m 340 -11 q 194 26 256 -11 q 97 130 132 62 q 63 289 63 197 q 89 450 63 372 q 163 591 115 528 q 277 690 211 653 q 424 726 343 726 q 562 690 505 726 q 649 592 619 653 q 678 458 678 531 q 675 410 678 435 q 668 363 672 385 q 657 326 663 340 l 125 326 l 138 397 l 593 397 q 598 429 597 413 q 600 458 600 444 q 552 596 600 543 q 422 649 504 649 q 307 618 358 649 q 219 535 256 587 q 162 420 182 484 q 142 291 142 356 q 195 127 142 189 q 345 66 247 66 q 450 86 401 66 q 540 140 499 107 l 569 66 q 468 12 526 35 q 340 -11 410 -11 m 641 959 l 602 998 l 825 1185 l 866 1127 l 641 959 m 297 813 l 257 861 l 484 1013 l 513 1013 l 684 861 l 636 813 l 494 943 l 488 943 l 297 813 z "},"ệ":{"ha":730,"x_min":63,"x_max":678,"o":"m 340 -11 q 194 26 256 -11 q 97 130 132 62 q 63 289 63 197 q 89 450 63 372 q 163 591 115 528 q 277 690 211 653 q 424 726 343 726 q 562 690 505 726 q 649 592 619 653 q 678 458 678 531 q 675 410 678 435 q 668 363 672 385 q 657 326 663 340 l 125 326 l 138 397 l 593 397 q 598 429 597 413 q 600 458 600 444 q 552 596 600 543 q 422 649 504 649 q 307 618 358 649 q 219 535 256 587 q 162 420 182 484 q 142 291 142 356 q 195 127 142 189 q 345 66 247 66 q 450 86 401 66 q 540 140 499 107 l 569 66 q 468 12 526 35 q 340 -11 410 -11 m 283 -241 q 229 -219 251 -241 q 208 -166 208 -197 q 229 -113 208 -135 q 283 -91 251 -91 q 336 -113 314 -91 q 358 -166 358 -135 q 336 -219 358 -197 q 283 -241 314 -241 m 302 811 l 264 857 l 488 1041 l 515 1041 l 674 857 l 630 811 l 498 971 l 492 971 l 302 811 z "},"ề":{"ha":730,"x_min":63,"x_max":683,"o":"m 340 -11 q 194 26 256 -11 q 97 130 132 62 q 63 289 63 197 q 89 450 63 372 q 163 591 115 528 q 277 690 211 653 q 424 726 343 726 q 562 690 505 726 q 649 592 619 653 q 678 458 678 531 q 675 410 678 435 q 668 363 672 385 q 657 326 663 340 l 125 326 l 138 397 l 593 397 q 598 429 597 413 q 600 458 600 444 q 552 596 600 543 q 422 649 504 649 q 307 618 358 649 q 219 535 256 587 q 162 420 182 484 q 142 291 142 356 q 195 127 142 189 q 345 66 247 66 q 450 86 401 66 q 540 140 499 107 l 569 66 q 468 12 526 35 q 340 -11 410 -11 m 315 958 l 170 1149 l 227 1194 l 367 991 l 315 958 m 295 813 l 256 861 l 481 1013 l 511 1013 l 682 861 l 634 813 l 492 943 l 486 943 l 295 813 z "},"ể":{"ha":730,"x_min":63,"x_max":741,"o":"m 340 -11 q 194 26 256 -11 q 97 130 132 62 q 63 289 63 197 q 89 450 63 372 q 163 591 115 528 q 277 690 211 653 q 424 726 343 726 q 562 690 505 726 q 649 592 619 653 q 678 458 678 531 q 675 410 678 435 q 668 363 672 385 q 657 326 663 340 l 125 326 l 138 397 l 593 397 q 598 429 597 413 q 600 458 600 444 q 552 596 600 543 q 422 649 504 649 q 307 618 358 649 q 219 535 256 587 q 162 420 182 484 q 142 291 142 356 q 195 127 142 189 q 345 66 247 66 q 450 86 401 66 q 540 140 499 107 l 569 66 q 468 12 526 35 q 340 -11 410 -11 m 637 951 l 593 989 q 642 1032 621 1007 q 667 1079 663 1057 q 659 1114 673 1102 q 610 1126 644 1126 q 571 1124 594 1126 q 530 1116 549 1122 l 536 1176 q 575 1185 554 1183 q 614 1187 597 1187 q 711 1157 682 1187 q 731 1079 741 1127 q 695 1007 724 1042 q 637 951 667 972 m 297 813 l 257 861 l 484 1013 l 513 1013 l 684 861 l 636 813 l 494 943 l 488 943 l 297 813 z "},"ễ":{"ha":730,"x_min":63,"x_max":728,"o":"m 340 -11 q 194 26 256 -11 q 97 130 132 62 q 63 289 63 197 q 89 450 63 372 q 163 591 115 528 q 277 690 211 653 q 424 726 343 726 q 562 690 505 726 q 649 592 619 653 q 678 458 678 531 q 675 410 678 435 q 668 363 672 385 q 657 326 663 340 l 125 326 l 138 397 l 593 397 q 598 429 597 413 q 600 458 600 444 q 552 596 600 543 q 422 649 504 649 q 307 618 358 649 q 219 535 256 587 q 162 420 182 484 q 142 291 142 356 q 195 127 142 189 q 345 66 247 66 q 450 86 401 66 q 540 140 499 107 l 569 66 q 468 12 526 35 q 340 -11 410 -11 m 342 1048 l 281 1056 q 332 1156 293 1120 q 425 1192 372 1192 q 479 1180 458 1192 q 516 1152 500 1168 q 546 1124 531 1136 q 581 1112 560 1112 q 633 1136 610 1112 q 663 1197 656 1159 l 728 1190 q 700 1117 720 1148 q 649 1067 679 1085 q 583 1050 618 1050 q 530 1062 551 1050 q 493 1091 509 1075 q 461 1119 477 1107 q 422 1131 444 1131 q 375 1111 397 1131 q 342 1048 352 1090 m 299 813 l 259 861 l 486 1013 l 515 1013 l 686 861 l 638 813 l 496 943 l 490 943 l 299 813 z "},"ȅ":{"ha":730,"x_min":63,"x_max":678,"o":"m 340 -11 q 194 26 256 -11 q 97 130 132 62 q 63 289 63 197 q 89 450 63 372 q 163 591 115 528 q 277 690 211 653 q 424 726 343 726 q 562 690 505 726 q 649 592 619 653 q 678 458 678 531 q 675 410 678 435 q 668 363 672 385 q 657 326 663 340 l 125 326 l 138 397 l 593 397 q 598 429 597 413 q 600 458 600 444 q 552 596 600 543 q 422 649 504 649 q 307 618 358 649 q 219 535 256 587 q 162 420 182 484 q 142 291 142 356 q 195 127 142 189 q 345 66 247 66 q 450 86 401 66 q 540 140 499 107 l 569 66 q 468 12 526 35 q 340 -11 410 -11 m 371 804 l 260 1044 l 328 1080 l 420 821 l 371 804 m 570 804 l 459 1044 l 529 1080 l 618 821 l 570 804 z "},"ë":{"ha":730,"x_min":63,"x_max":682,"o":"m 340 -11 q 194 26 256 -11 q 97 130 132 62 q 63 289 63 197 q 89 450 63 372 q 163 591 115 528 q 277 690 211 653 q 424 726 343 726 q 562 690 505 726 q 649 592 619 653 q 678 458 678 531 q 675 410 678 435 q 668 363 672 385 q 657 326 663 340 l 125 326 l 138 397 l 593 397 q 598 429 597 413 q 600 458 600 444 q 552 596 600 543 q 422 649 504 649 q 307 618 358 649 q 219 535 256 587 q 162 420 182 484 q 142 291 142 356 q 195 127 142 189 q 345 66 247 66 q 450 86 401 66 q 540 140 499 107 l 569 66 q 468 12 526 35 q 340 -11 410 -11 m 608 847 q 556 868 577 847 q 534 921 534 890 q 556 974 534 952 q 608 995 577 995 q 661 974 640 995 q 682 921 682 952 q 661 868 682 890 q 608 847 640 847 m 358 847 q 305 868 326 847 q 284 921 284 890 q 305 974 284 952 q 358 995 326 995 q 410 974 389 995 q 431 921 431 952 q 410 868 431 890 q 358 847 389 847 z "},"ė":{"ha":730,"x_min":63,"x_max":678,"o":"m 340 -11 q 194 26 256 -11 q 97 130 132 62 q 63 289 63 197 q 89 450 63 372 q 163 591 115 528 q 277 690 211 653 q 424 726 343 726 q 562 690 505 726 q 649 592 619 653 q 678 458 678 531 q 675 410 678 435 q 668 363 672 385 q 657 326 663 340 l 125 326 l 138 397 l 593 397 q 598 429 597 413 q 600 458 600 444 q 552 596 600 543 q 422 649 504 649 q 307 618 358 649 q 219 535 256 587 q 162 420 182 484 q 142 291 142 356 q 195 127 142 189 q 345 66 247 66 q 450 86 401 66 q 540 140 499 107 l 569 66 q 468 12 526 35 q 340 -11 410 -11 m 483 842 q 429 864 451 842 q 408 918 408 886 q 429 971 408 949 q 483 993 451 993 q 536 971 514 993 q 558 918 558 949 q 536 864 558 886 q 483 842 514 842 z "},"ẹ":{"ha":730,"x_min":63,"x_max":678,"o":"m 340 -11 q 194 26 256 -11 q 97 130 132 62 q 63 289 63 197 q 89 450 63 372 q 163 591 115 528 q 277 690 211 653 q 424 726 343 726 q 562 690 505 726 q 649 592 619 653 q 678 458 678 531 q 675 410 678 435 q 668 363 672 385 q 657 326 663 340 l 125 326 l 138 397 l 593 397 q 598 429 597 413 q 600 458 600 444 q 552 596 600 543 q 422 649 504 649 q 307 618 358 649 q 219 535 256 587 q 162 420 182 484 q 142 291 142 356 q 195 127 142 189 q 345 66 247 66 q 450 86 401 66 q 540 140 499 107 l 569 66 q 468 12 526 35 q 340 -11 410 -11 m 283 -241 q 229 -219 251 -241 q 208 -166 208 -197 q 229 -113 208 -135 q 283 -91 251 -91 q 336 -113 314 -91 q 358 -166 358 -135 q 336 -219 358 -197 q 283 -241 314 -241 z "},"è":{"ha":730,"x_min":63,"x_max":678,"o":"m 340 -11 q 194 26 256 -11 q 97 130 132 62 q 63 289 63 197 q 89 450 63 372 q 163 591 115 528 q 277 690 211 653 q 424 726 343 726 q 562 690 505 726 q 649 592 619 653 q 678 458 678 531 q 675 410 678 435 q 668 363 672 385 q 657 326 663 340 l 125 326 l 138 397 l 593 397 q 598 429 597 413 q 600 458 600 444 q 552 596 600 543 q 422 649 504 649 q 307 618 358 649 q 219 535 256 587 q 162 420 182 484 q 142 291 142 356 q 195 127 142 189 q 345 66 247 66 q 450 86 401 66 q 540 140 499 107 l 569 66 q 468 12 526 35 q 340 -11 410 -11 m 463 804 l 314 1013 l 389 1067 l 514 840 l 463 804 z "},"ẻ":{"ha":730,"x_min":63,"x_max":678,"o":"m 340 -11 q 194 26 256 -11 q 97 130 132 62 q 63 289 63 197 q 89 450 63 372 q 163 591 115 528 q 277 690 211 653 q 424 726 343 726 q 562 690 505 726 q 649 592 619 653 q 678 458 678 531 q 675 410 678 435 q 668 363 672 385 q 657 326 663 340 l 125 326 l 138 397 l 593 397 q 598 429 597 413 q 600 458 600 444 q 552 596 600 543 q 422 649 504 649 q 307 618 358 649 q 219 535 256 587 q 162 420 182 484 q 142 291 142 356 q 195 127 142 189 q 345 66 247 66 q 450 86 401 66 q 540 140 499 107 l 569 66 q 468 12 526 35 q 340 -11 410 -11 m 473 800 l 441 844 q 495 882 473 859 q 522 928 517 905 q 512 965 527 951 q 467 978 497 978 q 422 973 446 978 q 381 962 399 968 l 389 1025 q 431 1035 410 1032 q 471 1038 452 1038 q 564 1007 536 1038 q 582 927 591 975 q 544 854 574 888 q 473 800 513 820 z "},"ȇ":{"ha":730,"x_min":63,"x_max":692,"o":"m 340 -11 q 194 26 256 -11 q 97 130 132 62 q 63 289 63 197 q 89 450 63 372 q 163 591 115 528 q 277 690 211 653 q 424 726 343 726 q 562 690 505 726 q 649 592 619 653 q 678 458 678 531 q 675 410 678 435 q 668 363 672 385 q 657 326 663 340 l 125 326 l 138 397 l 593 397 q 598 429 597 413 q 600 458 600 444 q 552 596 600 543 q 422 649 504 649 q 307 618 358 649 q 219 535 256 587 q 162 420 182 484 q 142 291 142 356 q 195 127 142 189 q 345 66 247 66 q 450 86 401 66 q 540 140 499 107 l 569 66 q 468 12 526 35 q 340 -11 410 -11 m 678 827 l 618 836 q 599 934 631 894 q 498 974 566 974 q 383 930 429 974 q 326 828 338 887 l 264 838 q 311 941 277 898 q 395 1008 345 985 q 505 1031 446 1031 q 609 1004 565 1031 q 672 931 652 977 q 678 827 692 884 z "},"ē":{"ha":730,"x_min":63,"x_max":719,"o":"m 340 -11 q 194 26 256 -11 q 97 130 132 62 q 63 289 63 197 q 89 450 63 372 q 163 591 115 528 q 277 690 211 653 q 424 726 343 726 q 562 690 505 726 q 649 592 619 653 q 678 458 678 531 q 675 410 678 435 q 668 363 672 385 q 657 326 663 340 l 125 326 l 138 397 l 593 397 q 598 429 597 413 q 600 458 600 444 q 552 596 600 543 q 422 649 504 649 q 307 618 358 649 q 219 535 256 587 q 162 420 182 484 q 142 291 142 356 q 195 127 142 189 q 345 66 247 66 q 450 86 401 66 q 540 140 499 107 l 569 66 q 468 12 526 35 q 340 -11 410 -11 m 244 884 l 256 944 l 719 944 l 707 884 l 244 884 z "},"ḗ":{"ha":730,"x_min":63,"x_max":719,"o":"m 340 -11 q 194 26 256 -11 q 97 130 132 62 q 63 289 63 197 q 89 450 63 372 q 163 591 115 528 q 277 690 211 653 q 424 726 343 726 q 562 690 505 726 q 649 592 619 653 q 678 458 678 531 q 675 410 678 435 q 668 363 672 385 q 657 326 663 340 l 125 326 l 138 397 l 593 397 q 598 429 597 413 q 600 458 600 444 q 552 596 600 543 q 422 649 504 649 q 307 618 358 649 q 219 535 256 587 q 162 420 182 484 q 142 291 142 356 q 195 127 142 189 q 345 66 247 66 q 450 86 401 66 q 540 140 499 107 l 569 66 q 468 12 526 35 q 340 -11 410 -11 m 244 884 l 256 944 l 719 944 l 707 884 l 244 884 m 504 1022 l 452 1063 l 629 1289 l 686 1237 l 504 1022 z "},"ḕ":{"ha":730,"x_min":63,"x_max":719,"o":"m 340 -11 q 194 26 256 -11 q 97 130 132 62 q 63 289 63 197 q 89 450 63 372 q 163 591 115 528 q 277 690 211 653 q 424 726 343 726 q 562 690 505 726 q 649 592 619 653 q 678 458 678 531 q 675 410 678 435 q 668 363 672 385 q 657 326 663 340 l 125 326 l 138 397 l 593 397 q 598 429 597 413 q 600 458 600 444 q 552 596 600 543 q 422 649 504 649 q 307 618 358 649 q 219 535 256 587 q 162 420 182 484 q 142 291 142 356 q 195 127 142 189 q 345 66 247 66 q 450 86 401 66 q 540 140 499 107 l 569 66 q 468 12 526 35 q 340 -11 410 -11 m 244 884 l 256 944 l 719 944 l 707 884 l 244 884 m 506 1024 l 357 1232 l 433 1287 l 557 1060 l 506 1024 z "},"ę":{"ha":730,"x_min":63,"x_max":678,"o":"m 340 -11 q 194 26 256 -11 q 97 130 132 62 q 63 289 63 197 q 89 450 63 372 q 163 591 115 528 q 277 690 211 653 q 424 726 343 726 q 562 690 505 726 q 649 592 619 653 q 678 458 678 531 q 675 410 678 435 q 668 363 672 385 q 657 326 663 340 l 125 326 l 138 397 l 593 397 q 598 429 597 413 q 600 458 600 444 q 552 596 600 543 q 422 649 504 649 q 307 618 358 649 q 219 535 256 587 q 162 420 182 484 q 142 291 142 356 q 195 127 142 189 q 345 66 247 66 q 450 86 401 66 q 540 140 499 107 l 569 66 q 468 12 526 35 q 340 -11 410 -11 m 448 -204 q 371 -172 397 -204 q 356 -90 346 -139 q 414 6 368 -36 q 519 90 460 48 l 569 65 q 506 15 539 41 q 447 -38 472 -11 q 416 -94 422 -65 q 424 -132 411 -119 q 463 -145 437 -145 q 515 -134 489 -145 q 555 -116 541 -123 l 545 -181 q 499 -197 527 -191 q 448 -204 471 -204 z "},"ẽ":{"ha":730,"x_min":63,"x_max":710,"o":"m 340 -11 q 194 26 256 -11 q 97 130 132 62 q 63 289 63 197 q 89 450 63 372 q 163 591 115 528 q 277 690 211 653 q 424 726 343 726 q 562 690 505 726 q 649 592 619 653 q 678 458 678 531 q 675 410 678 435 q 668 363 672 385 q 657 326 663 340 l 125 326 l 138 397 l 593 397 q 598 429 597 413 q 600 458 600 444 q 552 596 600 543 q 422 649 504 649 q 307 618 358 649 q 219 535 256 587 q 162 420 182 484 q 142 291 142 356 q 195 127 142 189 q 345 66 247 66 q 450 86 401 66 q 540 140 499 107 l 569 66 q 468 12 526 35 q 340 -11 410 -11 m 318 830 l 254 836 q 286 919 264 886 q 339 969 309 953 q 404 986 370 986 q 462 972 441 986 q 497 941 483 959 q 526 910 512 924 q 562 897 541 897 q 616 923 593 897 q 648 989 639 950 l 710 983 q 677 901 700 935 q 624 850 654 868 q 559 833 593 833 q 504 847 525 833 q 469 879 484 861 q 438 910 454 897 q 401 924 423 924 q 349 898 372 924 q 318 830 326 872 z "},"ə":{"ha":730,"x_min":52,"x_max":667,"o":"m 390 726 q 537 690 475 726 q 633 586 599 653 q 667 427 667 519 q 642 265 667 343 q 568 125 616 187 q 453 26 519 62 q 307 -11 387 -11 q 169 26 225 -11 q 82 123 112 62 q 52 258 52 184 q 55 305 52 280 q 63 353 58 330 q 73 389 68 375 l 606 389 l 593 319 l 138 319 q 133 287 134 302 q 131 257 131 271 q 179 119 131 173 q 309 66 227 66 q 424 97 372 66 q 512 180 475 128 q 568 295 549 232 q 588 424 588 359 q 536 588 588 527 q 387 650 484 650 q 280 629 330 650 q 191 575 231 608 l 162 650 q 263 704 205 682 q 390 726 321 726 z "},"f":{"ha":485,"x_min":-76,"x_max":581,"o":"m -33 -251 q -54 -250 -43 -251 q -76 -246 -65 -249 l -69 -169 q -53 -172 -62 -171 q -39 -172 -45 -172 q 44 -137 11 -172 q 92 -28 78 -102 l 268 852 q 349 1003 288 950 q 490 1055 410 1055 q 536 1051 514 1055 q 581 1037 559 1046 l 547 962 q 517 973 534 969 q 487 977 501 977 q 400 941 437 977 q 352 845 364 905 l 176 -38 q 98 -199 155 -147 q -33 -251 41 -251 m 111 638 l 125 715 l 501 715 l 486 638 l 111 638 z "},"g":{"ha":800,"x_min":14,"x_max":768,"o":"m 288 -296 q 181 -283 234 -296 q 84 -249 127 -270 q 14 -205 40 -229 l 46 -125 q 110 -171 71 -150 q 197 -206 150 -193 q 292 -219 245 -219 q 410 -191 359 -219 q 494 -110 460 -162 q 543 13 528 -57 l 562 103 l 541 103 l 577 172 l 648 518 l 632 573 l 657 573 l 686 715 l 768 715 l 626 7 q 561 -154 607 -86 q 446 -259 515 -222 q 288 -296 377 -296 m 326 -11 q 189 28 247 -11 q 98 136 130 67 q 65 294 65 205 q 92 454 65 377 q 167 592 119 531 q 282 690 216 654 q 429 726 349 726 q 559 693 505 726 q 644 595 614 659 q 674 438 674 531 q 650 276 674 356 q 580 131 626 196 q 470 28 534 66 q 326 -11 406 -11 m 339 66 q 456 98 404 66 q 544 181 508 129 q 600 297 581 234 q 620 426 620 361 q 567 592 620 536 q 433 648 515 648 q 317 617 369 648 q 228 536 265 587 q 171 422 191 485 q 151 294 151 359 q 199 130 151 193 q 339 66 248 66 z "},"ǵ":{"ha":800,"x_min":14,"x_max":768,"o":"m 288 -296 q 181 -283 234 -296 q 84 -249 127 -270 q 14 -205 40 -229 l 46 -125 q 110 -171 71 -150 q 197 -206 150 -193 q 292 -219 245 -219 q 410 -191 359 -219 q 494 -110 460 -162 q 543 13 528 -57 l 562 103 l 541 103 l 577 172 l 648 518 l 632 573 l 657 573 l 686 715 l 768 715 l 626 7 q 561 -154 607 -86 q 446 -259 515 -222 q 288 -296 377 -296 m 326 -11 q 189 28 247 -11 q 98 136 130 67 q 65 294 65 205 q 92 454 65 377 q 167 592 119 531 q 282 690 216 654 q 429 726 349 726 q 559 693 505 726 q 644 595 614 659 q 674 438 674 531 q 650 276 674 356 q 580 131 626 196 q 470 28 534 66 q 326 -11 406 -11 m 339 66 q 456 98 404 66 q 544 181 508 129 q 600 297 581 234 q 620 426 620 361 q 567 592 620 536 q 433 648 515 648 q 317 617 369 648 q 228 536 265 587 q 171 422 191 485 q 151 294 151 359 q 199 130 151 193 q 339 66 248 66 m 482 802 l 431 843 l 608 1069 l 665 1017 l 482 802 z "},"ğ":{"ha":800,"x_min":14,"x_max":768,"o":"m 288 -296 q 181 -283 234 -296 q 84 -249 127 -270 q 14 -205 40 -229 l 46 -125 q 110 -171 71 -150 q 197 -206 150 -193 q 292 -219 245 -219 q 410 -191 359 -219 q 494 -110 460 -162 q 543 13 528 -57 l 562 103 l 541 103 l 577 172 l 648 518 l 632 573 l 657 573 l 686 715 l 768 715 l 626 7 q 561 -154 607 -86 q 446 -259 515 -222 q 288 -296 377 -296 m 326 -11 q 189 28 247 -11 q 98 136 130 67 q 65 294 65 205 q 92 454 65 377 q 167 592 119 531 q 282 690 216 654 q 429 726 349 726 q 559 693 505 726 q 644 595 614 659 q 674 438 674 531 q 650 276 674 356 q 580 131 626 196 q 470 28 534 66 q 326 -11 406 -11 m 339 66 q 456 98 404 66 q 544 181 508 129 q 600 297 581 234 q 620 426 620 361 q 567 592 620 536 q 433 648 515 648 q 317 617 369 648 q 228 536 265 587 q 171 422 191 485 q 151 294 151 359 q 199 130 151 193 q 339 66 248 66 m 494 825 q 392 853 435 825 q 329 927 349 881 q 319 1029 309 974 l 380 1021 q 401 923 369 962 q 495 883 433 883 q 575 903 536 883 q 642 957 614 923 q 675 1029 669 990 l 736 1021 q 690 920 726 964 q 603 850 654 876 q 494 825 551 825 z "},"ǧ":{"ha":800,"x_min":14,"x_max":768,"o":"m 288 -296 q 181 -283 234 -296 q 84 -249 127 -270 q 14 -205 40 -229 l 46 -125 q 110 -171 71 -150 q 197 -206 150 -193 q 292 -219 245 -219 q 410 -191 359 -219 q 494 -110 460 -162 q 543 13 528 -57 l 562 103 l 541 103 l 577 172 l 648 518 l 632 573 l 657 573 l 686 715 l 768 715 l 626 7 q 561 -154 607 -86 q 446 -259 515 -222 q 288 -296 377 -296 m 326 -11 q 189 28 247 -11 q 98 136 130 67 q 65 294 65 205 q 92 454 65 377 q 167 592 119 531 q 282 690 216 654 q 429 726 349 726 q 559 693 505 726 q 644 595 614 659 q 674 438 674 531 q 650 276 674 356 q 580 131 626 196 q 470 28 534 66 q 326 -11 406 -11 m 339 66 q 456 98 404 66 q 544 181 508 129 q 600 297 581 234 q 620 426 620 361 q 567 592 620 536 q 433 648 515 648 q 317 617 369 648 q 228 536 265 587 q 171 422 191 485 q 151 294 151 359 q 199 130 151 193 q 339 66 248 66 m 464 811 l 304 996 l 349 1041 l 482 882 l 488 882 l 677 1041 l 715 996 l 490 811 l 464 811 z "},"ĝ":{"ha":800,"x_min":14,"x_max":768,"o":"m 288 -296 q 181 -283 234 -296 q 84 -249 127 -270 q 14 -205 40 -229 l 46 -125 q 110 -171 71 -150 q 197 -206 150 -193 q 292 -219 245 -219 q 410 -191 359 -219 q 494 -110 460 -162 q 543 13 528 -57 l 562 103 l 541 103 l 577 172 l 648 518 l 632 573 l 657 573 l 686 715 l 768 715 l 626 7 q 561 -154 607 -86 q 446 -259 515 -222 q 288 -296 377 -296 m 326 -11 q 189 28 247 -11 q 98 136 130 67 q 65 294 65 205 q 92 454 65 377 q 167 592 119 531 q 282 690 216 654 q 429 726 349 726 q 559 693 505 726 q 644 595 614 659 q 674 438 674 531 q 650 276 674 356 q 580 131 626 196 q 470 28 534 66 q 326 -11 406 -11 m 339 66 q 456 98 404 66 q 544 181 508 129 q 600 297 581 234 q 620 426 620 361 q 567 592 620 536 q 433 648 515 648 q 317 617 369 648 q 228 536 265 587 q 171 422 191 485 q 151 294 151 359 q 199 130 151 193 q 339 66 248 66 m 323 811 l 285 857 l 509 1041 l 536 1041 l 695 857 l 651 811 l 519 971 l 513 971 l 323 811 z "},"ģ":{"ha":800,"x_min":14,"x_max":768,"o":"m 288 -296 q 181 -283 234 -296 q 84 -249 127 -270 q 14 -205 40 -229 l 46 -125 q 110 -171 71 -150 q 197 -206 150 -193 q 292 -219 245 -219 q 410 -191 359 -219 q 494 -110 460 -162 q 543 13 528 -57 l 562 103 l 541 103 l 577 172 l 648 518 l 632 573 l 657 573 l 686 715 l 768 715 l 626 7 q 561 -154 607 -86 q 446 -259 515 -222 q 288 -296 377 -296 m 326 -11 q 189 28 247 -11 q 98 136 130 67 q 65 294 65 205 q 92 454 65 377 q 167 592 119 531 q 282 690 216 654 q 429 726 349 726 q 559 693 505 726 q 644 595 614 659 q 674 438 674 531 q 650 276 674 356 q 580 131 626 196 q 470 28 534 66 q 326 -11 406 -11 m 339 66 q 456 98 404 66 q 544 181 508 129 q 600 297 581 234 q 620 426 620 361 q 567 592 620 536 q 433 648 515 648 q 317 617 369 648 q 228 536 265 587 q 171 422 191 485 q 151 294 151 359 q 199 130 151 193 q 339 66 248 66 m 570 1074 l 595 1040 l 524 987 q 497 963 509 975 q 477 939 484 951 q 470 909 469 926 l 454 909 q 466 931 458 922 q 490 941 474 941 q 529 924 511 941 q 547 882 547 907 q 531 843 547 860 q 490 825 515 825 q 446 844 465 825 q 427 896 427 862 q 449 967 427 937 q 496 1015 472 998 l 570 1074 z "},"ġ":{"ha":800,"x_min":14,"x_max":768,"o":"m 288 -296 q 181 -283 234 -296 q 84 -249 127 -270 q 14 -205 40 -229 l 46 -125 q 110 -171 71 -150 q 197 -206 150 -193 q 292 -219 245 -219 q 410 -191 359 -219 q 494 -110 460 -162 q 543 13 528 -57 l 562 103 l 541 103 l 577 172 l 648 518 l 632 573 l 657 573 l 686 715 l 768 715 l 626 7 q 561 -154 607 -86 q 446 -259 515 -222 q 288 -296 377 -296 m 326 -11 q 189 28 247 -11 q 98 136 130 67 q 65 294 65 205 q 92 454 65 377 q 167 592 119 531 q 282 690 216 654 q 429 726 349 726 q 559 693 505 726 q 644 595 614 659 q 674 438 674 531 q 650 276 674 356 q 580 131 626 196 q 470 28 534 66 q 326 -11 406 -11 m 339 66 q 456 98 404 66 q 544 181 508 129 q 600 297 581 234 q 620 426 620 361 q 567 592 620 536 q 433 648 515 648 q 317 617 369 648 q 228 536 265 587 q 171 422 191 485 q 151 294 151 359 q 199 130 151 193 q 339 66 248 66 m 504 842 q 450 864 472 842 q 429 918 429 886 q 450 971 429 949 q 504 993 472 993 q 557 971 535 993 q 579 918 579 949 q 557 864 579 886 q 504 842 535 842 z "},"ḡ":{"ha":800,"x_min":14,"x_max":768,"o":"m 288 -296 q 181 -283 234 -296 q 84 -249 127 -270 q 14 -205 40 -229 l 46 -125 q 110 -171 71 -150 q 197 -206 150 -193 q 292 -219 245 -219 q 410 -191 359 -219 q 494 -110 460 -162 q 543 13 528 -57 l 562 103 l 541 103 l 577 172 l 648 518 l 632 573 l 657 573 l 686 715 l 768 715 l 626 7 q 561 -154 607 -86 q 446 -259 515 -222 q 288 -296 377 -296 m 326 -11 q 189 28 247 -11 q 98 136 130 67 q 65 294 65 205 q 92 454 65 377 q 167 592 119 531 q 282 690 216 654 q 429 726 349 726 q 559 693 505 726 q 644 595 614 659 q 674 438 674 531 q 650 276 674 356 q 580 131 626 196 q 470 28 534 66 q 326 -11 406 -11 m 339 66 q 456 98 404 66 q 544 181 508 129 q 600 297 581 234 q 620 426 620 361 q 567 592 620 536 q 433 648 515 648 q 317 617 369 648 q 228 536 265 587 q 171 422 191 485 q 151 294 151 359 q 199 130 151 193 q 339 66 248 66 m 265 884 l 277 944 l 740 944 l 728 884 l 265 884 z "},"h":{"ha":742,"x_min":31,"x_max":665,"o":"m 595 -10 q 530 35 551 10 q 505 93 509 60 q 510 170 501 126 l 562 431 q 551 593 583 538 q 444 649 520 649 q 340 623 390 649 q 254 550 290 596 q 205 444 218 504 l 117 0 l 31 0 l 239 1044 l 325 1044 l 243 629 l 259 629 l 203 570 q 307 683 240 640 q 459 726 373 726 q 588 688 541 726 q 650 586 635 650 q 650 442 665 522 l 595 171 q 591 103 587 126 q 626 68 595 79 l 595 -10 z "},"ħ":{"ha":742,"x_min":31,"x_max":665,"o":"m 595 -10 q 530 35 551 10 q 505 93 509 60 q 510 170 501 126 l 562 431 q 551 593 583 538 q 444 649 520 649 q 340 623 390 649 q 254 550 290 596 q 205 444 218 504 l 117 0 l 31 0 l 239 1044 l 325 1044 l 243 629 l 259 629 l 203 570 q 307 683 240 640 q 459 726 373 726 q 588 688 541 726 q 650 586 635 650 q 650 442 665 522 l 595 171 q 591 103 587 126 q 626 68 595 79 l 595 -10 m 68 827 l 83 896 l 422 896 l 406 827 l 68 827 z "},"ḫ":{"ha":742,"x_min":31,"x_max":665,"o":"m 595 -10 q 530 35 551 10 q 505 93 509 60 q 510 170 501 126 l 562 431 q 551 593 583 538 q 444 649 520 649 q 340 623 390 649 q 254 550 290 596 q 205 444 218 504 l 117 0 l 31 0 l 239 1044 l 325 1044 l 243 629 l 259 629 l 203 570 q 307 683 240 640 q 459 726 373 726 q 588 688 541 726 q 650 586 635 650 q 650 442 665 522 l 595 171 q 591 103 587 126 q 626 68 595 79 l 595 -10 m 277 -281 q 175 -253 218 -281 q 112 -178 132 -224 q 102 -76 92 -132 l 163 -85 q 184 -183 152 -143 q 278 -222 216 -222 q 358 -202 319 -222 q 425 -149 397 -182 q 458 -76 452 -115 l 519 -85 q 473 -185 509 -141 q 386 -255 437 -229 q 277 -281 334 -281 z "},"ĥ":{"ha":742,"x_min":31,"x_max":665,"o":"m 595 -10 q 530 35 551 10 q 505 93 509 60 q 510 170 501 126 l 562 431 q 551 593 583 538 q 444 649 520 649 q 340 623 390 649 q 254 550 290 596 q 205 444 218 504 l 117 0 l 31 0 l 239 1044 l 325 1044 l 243 629 l 259 629 l 203 570 q 307 683 240 640 q 459 726 373 726 q 588 688 541 726 q 650 586 635 650 q 650 442 665 522 l 595 171 q 591 103 587 126 q 626 68 595 79 l 595 -10 m 127 1063 l 87 1114 l 316 1263 l 345 1263 l 514 1114 l 466 1063 l 327 1195 l 319 1195 l 127 1063 z "},"ḥ":{"ha":742,"x_min":31,"x_max":665,"o":"m 595 -10 q 530 35 551 10 q 505 93 509 60 q 510 170 501 126 l 562 431 q 551 593 583 538 q 444 649 520 649 q 340 623 390 649 q 254 550 290 596 q 205 444 218 504 l 117 0 l 31 0 l 239 1044 l 325 1044 l 243 629 l 259 629 l 203 570 q 307 683 240 640 q 459 726 373 726 q 588 688 541 726 q 650 586 635 650 q 650 442 665 522 l 595 171 q 591 103 587 126 q 626 68 595 79 l 595 -10 m 286 -241 q 233 -219 254 -241 q 211 -166 211 -197 q 233 -113 211 -135 q 286 -91 254 -91 q 339 -113 317 -91 q 361 -166 361 -135 q 339 -219 361 -197 q 286 -241 317 -241 z "},"i":{"ha":355,"x_min":71,"x_max":345,"o":"m 196 -11 q 107 29 135 1 q 75 95 79 56 q 81 181 71 134 l 186 715 l 272 715 l 161 156 q 163 106 155 123 q 189 81 172 89 q 229 68 207 73 l 196 -11 m 270 842 q 216 864 238 842 q 195 918 195 886 q 216 971 195 949 q 270 993 238 993 q 323 971 301 993 q 345 918 345 949 q 323 864 345 886 q 270 842 301 842 z "},"ı":{"ha":355,"x_min":71,"x_max":272,"o":"m 196 -11 q 107 29 135 1 q 75 95 79 56 q 81 181 71 134 l 186 715 l 272 715 l 161 156 q 163 106 155 123 q 189 81 172 89 q 229 68 207 73 l 196 -11 z "},"í":{"ha":355,"x_min":71,"x_max":430,"o":"m 196 -11 q 107 29 135 1 q 75 95 79 56 q 81 181 71 134 l 186 715 l 272 715 l 161 156 q 163 106 155 123 q 189 81 172 89 q 229 68 207 73 l 196 -11 m 248 802 l 196 843 l 373 1069 l 430 1017 l 248 802 z "},"ĭ":{"ha":355,"x_min":71,"x_max":502,"o":"m 196 -11 q 107 29 135 1 q 75 95 79 56 q 81 181 71 134 l 186 715 l 272 715 l 161 156 q 163 106 155 123 q 189 81 172 89 q 229 68 207 73 l 196 -11 m 259 825 q 157 853 200 825 q 94 927 114 881 q 85 1029 75 974 l 146 1021 q 166 923 134 962 q 260 883 199 883 q 341 903 302 883 q 407 957 380 923 q 441 1029 434 990 l 502 1021 q 456 920 492 964 q 368 850 420 876 q 259 825 317 825 z "},"ǐ":{"ha":435,"x_min":110,"x_max":522,"o":"m 236 -11 q 147 29 175 1 q 115 95 119 56 q 121 181 111 134 l 227 715 l 312 715 l 201 156 q 203 106 195 123 q 229 81 212 89 q 269 68 247 73 l 236 -11 m 270 811 l 110 996 l 155 1041 l 288 882 l 294 882 l 484 1041 l 522 996 l 296 811 l 270 811 z "},"î":{"ha":355,"x_min":50,"x_max":461,"o":"m 196 -11 q 107 29 135 1 q 75 95 79 56 q 81 181 71 134 l 186 715 l 272 715 l 161 156 q 163 106 155 123 q 189 81 172 89 q 229 68 207 73 l 196 -11 m 89 811 l 51 857 l 275 1041 l 302 1041 l 461 857 l 417 811 l 285 971 l 279 971 l 89 811 z "},"ȉ":{"ha":355,"x_min":47,"x_max":406,"o":"m 196 -11 q 107 29 135 1 q 75 95 79 56 q 81 181 71 134 l 186 715 l 272 715 l 161 156 q 163 106 155 123 q 189 81 172 89 q 229 68 207 73 l 196 -11 m 158 804 l 47 1044 l 115 1080 l 207 821 l 158 804 m 357 804 l 246 1044 l 316 1080 l 406 821 l 357 804 z "},"ï":{"ha":355,"x_min":71,"x_max":469,"o":"m 196 -11 q 107 29 135 1 q 75 95 79 56 q 81 181 71 134 l 186 715 l 272 715 l 161 156 q 163 106 155 123 q 189 81 172 89 q 229 68 207 73 l 196 -11 m 395 847 q 343 868 364 847 q 321 921 321 890 q 343 974 321 952 q 395 995 364 995 q 448 974 427 995 q 469 921 469 952 q 448 868 469 890 q 395 847 427 847 m 145 847 q 92 868 113 847 q 71 921 71 890 q 92 974 71 952 q 145 995 113 995 q 197 974 176 995 q 218 921 218 952 q 197 868 218 890 q 145 847 176 847 z "},"ḯ":{"ha":355,"x_min":71,"x_max":475,"o":"m 196 -11 q 107 29 135 1 q 75 95 79 56 q 81 181 71 134 l 186 715 l 272 715 l 161 156 q 163 106 155 123 q 189 81 172 89 q 229 68 207 73 l 196 -11 m 395 847 q 343 868 364 847 q 321 921 321 890 q 343 974 321 952 q 395 995 364 995 q 448 974 427 995 q 469 921 469 952 q 448 868 469 890 q 395 847 427 847 m 145 847 q 92 868 113 847 q 71 921 71 890 q 92 974 71 952 q 145 995 113 995 q 197 974 176 995 q 218 921 218 952 q 197 868 218 890 q 145 847 176 847 m 292 1028 l 241 1069 l 418 1295 l 475 1243 l 292 1028 z "},"ị":{"ha":355,"x_min":22,"x_max":345,"o":"m 196 -11 q 107 29 135 1 q 75 95 79 56 q 81 181 71 134 l 186 715 l 272 715 l 161 156 q 163 106 155 123 q 189 81 172 89 q 229 68 207 73 l 196 -11 m 270 842 q 216 864 238 842 q 195 918 195 886 q 216 971 195 949 q 270 993 238 993 q 323 971 301 993 q 345 918 345 949 q 323 864 345 886 q 270 842 301 842 m 98 -241 q 44 -219 66 -241 q 22 -166 22 -197 q 44 -113 22 -135 q 98 -91 66 -91 q 151 -113 129 -91 q 173 -166 173 -135 q 151 -219 173 -197 q 98 -241 129 -241 z "},"ì":{"ha":355,"x_min":71,"x_max":300,"o":"m 196 -11 q 107 29 135 1 q 75 95 79 56 q 81 181 71 134 l 186 715 l 272 715 l 161 156 q 163 106 155 123 q 189 81 172 89 q 229 68 207 73 l 196 -11 m 250 804 l 101 1013 l 176 1067 l 301 840 l 250 804 z "},"ỉ":{"ha":355,"x_min":71,"x_max":378,"o":"m 196 -11 q 107 29 135 1 q 75 95 79 56 q 81 181 71 134 l 186 715 l 272 715 l 161 156 q 163 106 155 123 q 189 81 172 89 q 229 68 207 73 l 196 -11 m 260 800 l 228 844 q 282 882 260 859 q 309 928 304 905 q 299 965 314 951 q 254 978 284 978 q 209 973 233 978 q 168 962 186 968 l 176 1025 q 218 1035 197 1032 q 258 1038 239 1038 q 351 1007 323 1038 q 369 927 378 975 q 331 854 361 888 q 260 800 300 820 z "},"ȋ":{"ha":355,"x_min":51,"x_max":479,"o":"m 196 -11 q 107 29 135 1 q 75 95 79 56 q 81 181 71 134 l 186 715 l 272 715 l 161 156 q 163 106 155 123 q 189 81 172 89 q 229 68 207 73 l 196 -11 m 465 827 l 405 836 q 385 934 418 894 q 284 974 353 974 q 170 930 215 974 q 112 828 124 887 l 50 838 q 97 941 63 898 q 182 1008 132 985 q 291 1031 232 1031 q 395 1004 351 1031 q 458 931 439 977 q 465 827 478 884 z "},"ī":{"ha":355,"x_min":60,"x_max":465,"o":"m 196 -11 q 107 29 135 1 q 75 95 79 56 q 81 181 71 134 l 186 715 l 272 715 l 161 156 q 163 106 155 123 q 189 81 172 89 q 229 68 207 73 l 196 -11 m 60 884 l 71 944 l 465 944 l 454 884 l 60 884 z "},"į":{"ha":355,"x_min":1,"x_max":345,"o":"m 196 -11 q 107 29 135 1 q 75 95 79 56 q 81 181 71 134 l 186 715 l 272 715 l 161 156 q 163 106 155 123 q 189 81 172 89 q 229 68 207 73 l 196 -11 m 270 842 q 216 864 238 842 q 195 918 195 886 q 216 971 195 949 q 270 993 238 993 q 323 971 301 993 q 345 918 345 949 q 323 864 345 886 q 270 842 301 842 m 104 -271 q 26 -239 52 -271 q 10 -158 1 -207 q 42 -87 18 -119 q 96 -27 65 -56 q 156 33 127 1 l 195 -11 q 145 -62 172 -37 q 100 -113 119 -87 q 75 -163 80 -138 q 82 -196 71 -184 q 116 -209 92 -209 q 147 -204 128 -209 q 191 -186 166 -199 l 180 -254 q 144 -266 163 -261 q 104 -271 124 -271 z "},"ĩ":{"ha":355,"x_min":40,"x_max":497,"o":"m 196 -11 q 107 29 135 1 q 75 95 79 56 q 81 181 71 134 l 186 715 l 272 715 l 161 156 q 163 106 155 123 q 189 81 172 89 q 229 68 207 73 l 196 -11 m 104 830 l 40 836 q 73 919 50 886 q 126 969 95 953 q 191 986 157 986 q 248 972 227 986 q 284 941 269 959 q 313 910 298 924 q 349 897 327 897 q 402 923 379 897 q 434 989 425 950 l 496 983 q 464 901 486 935 q 410 850 441 868 q 345 833 380 833 q 291 847 311 833 q 255 879 270 861 q 225 910 240 897 q 188 924 210 924 q 136 898 159 924 q 104 830 113 872 z "},"j":{"ha":318,"x_min":-162,"x_max":359,"o":"m -92 -297 q -133 -293 -113 -297 q -162 -287 -153 -290 l -146 -209 q -120 -215 -134 -213 q -98 -217 -107 -217 q -6 -181 -43 -217 q 41 -87 30 -144 l 201 715 l 287 715 l 125 -98 q 85 -198 115 -153 q 11 -270 56 -243 q -92 -297 -33 -297 m 283 842 q 230 864 252 842 q 208 918 208 886 q 230 971 208 949 q 283 993 252 993 q 337 971 315 993 q 359 918 359 949 q 337 864 359 886 q 283 842 315 842 z "},"ȷ":{"ha":318,"x_min":-162,"x_max":287,"o":"m -92 -297 q -133 -293 -113 -297 q -162 -287 -153 -290 l -146 -209 q -120 -215 -134 -213 q -98 -217 -107 -217 q -6 -181 -43 -217 q 41 -87 30 -144 l 201 715 l 287 715 l 125 -98 q 85 -198 115 -153 q 11 -270 56 -243 q -92 -297 -33 -297 z "},"ĵ":{"ha":370,"x_min":-162,"x_max":475,"o":"m -92 -297 q -133 -293 -113 -297 q -162 -287 -153 -290 l -146 -209 q -120 -215 -134 -213 q -98 -217 -107 -217 q -6 -181 -43 -217 q 41 -87 30 -144 l 201 715 l 287 715 l 125 -98 q 85 -198 115 -153 q 11 -270 56 -243 q -92 -297 -33 -297 m 102 811 l 64 857 l 288 1041 l 316 1041 l 475 857 l 431 811 l 298 971 l 292 971 l 102 811 z "},"k":{"ha":683,"x_min":31,"x_max":694,"o":"m 31 0 l 239 1044 l 325 1044 l 197 402 l 256 402 l 220 385 l 578 715 l 694 715 l 290 345 l 283 391 l 579 0 l 481 0 l 210 361 l 241 333 l 184 333 l 117 0 l 31 0 z "},"ķ":{"ha":683,"x_min":31,"x_max":694,"o":"m 31 0 l 239 1044 l 325 1044 l 197 402 l 256 402 l 220 385 l 578 715 l 694 715 l 290 345 l 283 391 l 579 0 l 481 0 l 210 361 l 241 333 l 184 333 l 117 0 l 31 0 m 171 -359 l 146 -326 l 217 -273 q 245 -249 233 -261 q 264 -224 257 -237 q 271 -195 271 -211 l 288 -195 q 275 -217 283 -208 q 251 -227 267 -227 q 212 -210 231 -227 q 194 -168 194 -193 q 210 -129 194 -146 q 252 -111 225 -111 q 295 -129 276 -111 q 315 -182 315 -147 q 292 -253 315 -222 q 245 -301 269 -283 l 171 -359 z "},"ĸ":{"ha":667,"x_min":30,"x_max":686,"o":"m 30 0 l 172 715 l 258 715 l 194 397 l 243 397 l 201 377 l 576 715 l 686 715 l 263 340 l 271 390 l 562 0 l 463 0 l 198 355 l 231 335 l 182 335 l 115 0 l 30 0 z "},"l":{"ha":340,"x_min":52,"x_max":326,"o":"m 163 -7 q 91 14 117 -7 q 59 70 66 35 q 60 149 52 106 l 241 1044 l 326 1044 l 146 144 q 182 72 132 72 q 211 76 195 72 q 235 83 227 79 l 223 2 q 195 -5 211 -3 q 163 -7 178 -7 z "},"ĺ":{"ha":340,"x_min":52,"x_max":484,"o":"m 163 -7 q 91 14 117 -7 q 59 70 66 35 q 60 149 52 106 l 241 1044 l 326 1044 l 146 144 q 182 72 132 72 q 211 76 195 72 q 235 83 227 79 l 223 2 q 195 -5 211 -3 q 163 -7 178 -7 m 301 1131 l 250 1172 l 427 1398 l 484 1346 l 301 1131 z "},"ľ":{"ha":364,"x_min":52,"x_max":495,"o":"m 163 -7 q 91 14 117 -7 q 59 70 66 35 q 60 149 52 106 l 241 1044 l 326 1044 l 146 144 q 182 72 132 72 q 211 76 195 72 q 235 83 227 79 l 223 2 q 195 -5 211 -3 q 163 -7 178 -7 m 357 751 l 420 1044 l 496 1044 l 423 751 l 357 751 z "},"ļ":{"ha":340,"x_min":-26,"x_max":326,"o":"m 163 -7 q 91 14 117 -7 q 59 70 66 35 q 60 149 52 106 l 241 1044 l 326 1044 l 146 144 q 182 72 132 72 q 211 76 195 72 q 235 83 227 79 l 223 2 q 195 -5 211 -3 q 163 -7 178 -7 m -1 -359 l -26 -326 l 45 -273 q 73 -249 60 -261 q 92 -224 85 -237 q 99 -195 99 -211 l 115 -195 q 103 -217 111 -208 q 79 -227 95 -227 q 40 -210 58 -227 q 22 -168 22 -193 q 37 -129 22 -146 q 79 -111 53 -111 q 123 -129 104 -111 q 142 -182 142 -147 q 120 -253 142 -222 q 73 -301 97 -283 l -1 -359 z "},"ŀ":{"ha":419,"x_min":52,"x_max":470,"o":"m 163 -7 q 91 14 117 -7 q 59 70 66 35 q 60 149 52 106 l 241 1044 l 326 1044 l 146 144 q 182 72 132 72 q 211 76 195 72 q 235 83 227 79 l 223 2 q 195 -5 211 -3 q 163 -7 178 -7 m 395 436 q 342 458 364 436 q 321 511 321 479 q 342 564 321 542 q 395 586 364 586 q 448 564 427 586 q 470 511 470 542 q 448 458 470 479 q 395 436 427 436 z "},"ḷ":{"ha":340,"x_min":5,"x_max":326,"o":"m 163 -7 q 91 14 117 -7 q 59 70 66 35 q 60 149 52 106 l 241 1044 l 326 1044 l 146 144 q 182 72 132 72 q 211 76 195 72 q 235 83 227 79 l 223 2 q 195 -5 211 -3 q 163 -7 178 -7 m 80 -241 q 26 -219 48 -241 q 5 -166 5 -197 q 26 -113 5 -135 q 80 -91 48 -91 q 133 -113 111 -91 q 155 -166 155 -135 q 133 -219 155 -197 q 80 -241 111 -241 z "}}}
